<?xml version="1.0" encoding="utf-8" standalone="no"?>
<!DOCTYPE svg PUBLIC "-//W3C//DTD SVG 1.1//EN"
  "http://www.w3.org/Graphics/SVG/1.1/DTD/svg11.dtd">
<svg xmlns:xlink="http://www.w3.org/1999/xlink" width="460.8pt" height="345.6pt" viewBox="0 0 460.8 345.6" xmlns="http://www.w3.org/2000/svg" version="1.1">
 <metadata>
  <rdf:RDF xmlns:dc="http://purl.org/dc/elements/1.1/" xmlns:cc="http://creativecommons.org/ns#" xmlns:rdf="http://www.w3.org/1999/02/22-rdf-syntax-ns#">
   <cc:Work>
    <dc:type rdf:resource="http://purl.org/dc/dcmitype/StillImage"/>
    <dc:date>2022-11-27T10:27:15.951152</dc:date>
    <dc:format>image/svg+xml</dc:format>
    <dc:creator>
     <cc:Agent>
      <dc:title>Matplotlib v3.6.1, https://matplotlib.org/</dc:title>
     </cc:Agent>
    </dc:creator>
   </cc:Work>
  </rdf:RDF>
 </metadata>
 <defs>
  <style type="text/css">*{stroke-linejoin: round; stroke-linecap: butt}</style>
 </defs>
 <g id="figure_1">
  <g id="patch_1">
   <path d="M 0 345.6 
L 460.8 345.6 
L 460.8 0 
L 0 0 
z
" style="fill: #ffffff"/>
  </g>
  <g id="axes_1">
   <g id="patch_2">
    <path d="M 57.6 307.584 
L 414.72 307.584 
L 414.72 41.472 
L 57.6 41.472 
z
" style="fill: #ffffff"/>
   </g>
   <g id="matplotlib.axis_1">
    <g id="xtick_1">
     <g id="line2d_1">
      <defs>
       <path id="mf47bfdaffb" d="M 0 0 
L 0 3.5 
" style="stroke: #000000; stroke-width: 0.8"/>
      </defs>
      <g>
       <use xlink:href="#mf47bfdaffb" x="73.832727" y="307.584" style="stroke: #000000; stroke-width: 0.8"/>
      </g>
     </g>
     <g id="text_1">
      <!-- 0 -->
      <g transform="translate(70.651477 322.182437) scale(0.1 -0.1)">
       <defs>
        <path id="DejaVuSans-30" d="M 2034 4250 
Q 1547 4250 1301 3770 
Q 1056 3291 1056 2328 
Q 1056 1369 1301 889 
Q 1547 409 2034 409 
Q 2525 409 2770 889 
Q 3016 1369 3016 2328 
Q 3016 3291 2770 3770 
Q 2525 4250 2034 4250 
z
M 2034 4750 
Q 2819 4750 3233 4129 
Q 3647 3509 3647 2328 
Q 3647 1150 3233 529 
Q 2819 -91 2034 -91 
Q 1250 -91 836 529 
Q 422 1150 422 2328 
Q 422 3509 836 4129 
Q 1250 4750 2034 4750 
z
" transform="scale(0.015625)"/>
       </defs>
       <use xlink:href="#DejaVuSans-30"/>
      </g>
     </g>
    </g>
    <g id="xtick_2">
     <g id="line2d_2">
      <g>
       <use xlink:href="#mf47bfdaffb" x="138.776625" y="307.584" style="stroke: #000000; stroke-width: 0.8"/>
      </g>
     </g>
     <g id="text_2">
      <!-- 1000 -->
      <g transform="translate(126.051625 322.182437) scale(0.1 -0.1)">
       <defs>
        <path id="DejaVuSans-31" d="M 794 531 
L 1825 531 
L 1825 4091 
L 703 3866 
L 703 4441 
L 1819 4666 
L 2450 4666 
L 2450 531 
L 3481 531 
L 3481 0 
L 794 0 
L 794 531 
z
" transform="scale(0.015625)"/>
       </defs>
       <use xlink:href="#DejaVuSans-31"/>
       <use xlink:href="#DejaVuSans-30" x="63.623047"/>
       <use xlink:href="#DejaVuSans-30" x="127.246094"/>
       <use xlink:href="#DejaVuSans-30" x="190.869141"/>
      </g>
     </g>
    </g>
    <g id="xtick_3">
     <g id="line2d_3">
      <g>
       <use xlink:href="#mf47bfdaffb" x="203.720523" y="307.584" style="stroke: #000000; stroke-width: 0.8"/>
      </g>
     </g>
     <g id="text_3">
      <!-- 2000 -->
      <g transform="translate(190.995523 322.182437) scale(0.1 -0.1)">
       <defs>
        <path id="DejaVuSans-32" d="M 1228 531 
L 3431 531 
L 3431 0 
L 469 0 
L 469 531 
Q 828 903 1448 1529 
Q 2069 2156 2228 2338 
Q 2531 2678 2651 2914 
Q 2772 3150 2772 3378 
Q 2772 3750 2511 3984 
Q 2250 4219 1831 4219 
Q 1534 4219 1204 4116 
Q 875 4013 500 3803 
L 500 4441 
Q 881 4594 1212 4672 
Q 1544 4750 1819 4750 
Q 2544 4750 2975 4387 
Q 3406 4025 3406 3419 
Q 3406 3131 3298 2873 
Q 3191 2616 2906 2266 
Q 2828 2175 2409 1742 
Q 1991 1309 1228 531 
z
" transform="scale(0.015625)"/>
       </defs>
       <use xlink:href="#DejaVuSans-32"/>
       <use xlink:href="#DejaVuSans-30" x="63.623047"/>
       <use xlink:href="#DejaVuSans-30" x="127.246094"/>
       <use xlink:href="#DejaVuSans-30" x="190.869141"/>
      </g>
     </g>
    </g>
    <g id="xtick_4">
     <g id="line2d_4">
      <g>
       <use xlink:href="#mf47bfdaffb" x="268.664421" y="307.584" style="stroke: #000000; stroke-width: 0.8"/>
      </g>
     </g>
     <g id="text_4">
      <!-- 3000 -->
      <g transform="translate(255.939421 322.182437) scale(0.1 -0.1)">
       <defs>
        <path id="DejaVuSans-33" d="M 2597 2516 
Q 3050 2419 3304 2112 
Q 3559 1806 3559 1356 
Q 3559 666 3084 287 
Q 2609 -91 1734 -91 
Q 1441 -91 1130 -33 
Q 819 25 488 141 
L 488 750 
Q 750 597 1062 519 
Q 1375 441 1716 441 
Q 2309 441 2620 675 
Q 2931 909 2931 1356 
Q 2931 1769 2642 2001 
Q 2353 2234 1838 2234 
L 1294 2234 
L 1294 2753 
L 1863 2753 
Q 2328 2753 2575 2939 
Q 2822 3125 2822 3475 
Q 2822 3834 2567 4026 
Q 2313 4219 1838 4219 
Q 1578 4219 1281 4162 
Q 984 4106 628 3988 
L 628 4550 
Q 988 4650 1302 4700 
Q 1616 4750 1894 4750 
Q 2613 4750 3031 4423 
Q 3450 4097 3450 3541 
Q 3450 3153 3228 2886 
Q 3006 2619 2597 2516 
z
" transform="scale(0.015625)"/>
       </defs>
       <use xlink:href="#DejaVuSans-33"/>
       <use xlink:href="#DejaVuSans-30" x="63.623047"/>
       <use xlink:href="#DejaVuSans-30" x="127.246094"/>
       <use xlink:href="#DejaVuSans-30" x="190.869141"/>
      </g>
     </g>
    </g>
    <g id="xtick_5">
     <g id="line2d_5">
      <g>
       <use xlink:href="#mf47bfdaffb" x="333.608319" y="307.584" style="stroke: #000000; stroke-width: 0.8"/>
      </g>
     </g>
     <g id="text_5">
      <!-- 4000 -->
      <g transform="translate(320.883319 322.182437) scale(0.1 -0.1)">
       <defs>
        <path id="DejaVuSans-34" d="M 2419 4116 
L 825 1625 
L 2419 1625 
L 2419 4116 
z
M 2253 4666 
L 3047 4666 
L 3047 1625 
L 3713 1625 
L 3713 1100 
L 3047 1100 
L 3047 0 
L 2419 0 
L 2419 1100 
L 313 1100 
L 313 1709 
L 2253 4666 
z
" transform="scale(0.015625)"/>
       </defs>
       <use xlink:href="#DejaVuSans-34"/>
       <use xlink:href="#DejaVuSans-30" x="63.623047"/>
       <use xlink:href="#DejaVuSans-30" x="127.246094"/>
       <use xlink:href="#DejaVuSans-30" x="190.869141"/>
      </g>
     </g>
    </g>
    <g id="xtick_6">
     <g id="line2d_6">
      <g>
       <use xlink:href="#mf47bfdaffb" x="398.552217" y="307.584" style="stroke: #000000; stroke-width: 0.8"/>
      </g>
     </g>
     <g id="text_6">
      <!-- 5000 -->
      <g transform="translate(385.827217 322.182437) scale(0.1 -0.1)">
       <defs>
        <path id="DejaVuSans-35" d="M 691 4666 
L 3169 4666 
L 3169 4134 
L 1269 4134 
L 1269 2991 
Q 1406 3038 1543 3061 
Q 1681 3084 1819 3084 
Q 2600 3084 3056 2656 
Q 3513 2228 3513 1497 
Q 3513 744 3044 326 
Q 2575 -91 1722 -91 
Q 1428 -91 1123 -41 
Q 819 9 494 109 
L 494 744 
Q 775 591 1075 516 
Q 1375 441 1709 441 
Q 2250 441 2565 725 
Q 2881 1009 2881 1497 
Q 2881 1984 2565 2268 
Q 2250 2553 1709 2553 
Q 1456 2553 1204 2497 
Q 953 2441 691 2322 
L 691 4666 
z
" transform="scale(0.015625)"/>
       </defs>
       <use xlink:href="#DejaVuSans-35"/>
       <use xlink:href="#DejaVuSans-30" x="63.623047"/>
       <use xlink:href="#DejaVuSans-30" x="127.246094"/>
       <use xlink:href="#DejaVuSans-30" x="190.869141"/>
      </g>
     </g>
    </g>
   </g>
   <g id="matplotlib.axis_2">
    <g id="ytick_1">
     <g id="line2d_7">
      <defs>
       <path id="m119abbe13b" d="M 0 0 
L -3.5 0 
" style="stroke: #000000; stroke-width: 0.8"/>
      </defs>
      <g>
       <use xlink:href="#m119abbe13b" x="57.6" y="277.025409" style="stroke: #000000; stroke-width: 0.8"/>
      </g>
     </g>
     <g id="text_7">
      <!-- −15 -->
      <g transform="translate(29.495313 280.824627) scale(0.1 -0.1)">
       <defs>
        <path id="DejaVuSans-2212" d="M 678 2272 
L 4684 2272 
L 4684 1741 
L 678 1741 
L 678 2272 
z
" transform="scale(0.015625)"/>
       </defs>
       <use xlink:href="#DejaVuSans-2212"/>
       <use xlink:href="#DejaVuSans-31" x="83.789062"/>
       <use xlink:href="#DejaVuSans-35" x="147.412109"/>
      </g>
     </g>
    </g>
    <g id="ytick_2">
     <g id="line2d_8">
      <g>
       <use xlink:href="#m119abbe13b" x="57.6" y="243.672212" style="stroke: #000000; stroke-width: 0.8"/>
      </g>
     </g>
     <g id="text_8">
      <!-- −10 -->
      <g transform="translate(29.495313 247.471431) scale(0.1 -0.1)">
       <use xlink:href="#DejaVuSans-2212"/>
       <use xlink:href="#DejaVuSans-31" x="83.789062"/>
       <use xlink:href="#DejaVuSans-30" x="147.412109"/>
      </g>
     </g>
    </g>
    <g id="ytick_3">
     <g id="line2d_9">
      <g>
       <use xlink:href="#m119abbe13b" x="57.6" y="210.319016" style="stroke: #000000; stroke-width: 0.8"/>
      </g>
     </g>
     <g id="text_9">
      <!-- −5 -->
      <g transform="translate(35.857813 214.118234) scale(0.1 -0.1)">
       <use xlink:href="#DejaVuSans-2212"/>
       <use xlink:href="#DejaVuSans-35" x="83.789062"/>
      </g>
     </g>
    </g>
    <g id="ytick_4">
     <g id="line2d_10">
      <g>
       <use xlink:href="#m119abbe13b" x="57.6" y="176.965819" style="stroke: #000000; stroke-width: 0.8"/>
      </g>
     </g>
     <g id="text_10">
      <!-- 0 -->
      <g transform="translate(44.2375 180.765038) scale(0.1 -0.1)">
       <use xlink:href="#DejaVuSans-30"/>
      </g>
     </g>
    </g>
    <g id="ytick_5">
     <g id="line2d_11">
      <g>
       <use xlink:href="#m119abbe13b" x="57.6" y="143.612622" style="stroke: #000000; stroke-width: 0.8"/>
      </g>
     </g>
     <g id="text_11">
      <!-- 5 -->
      <g transform="translate(44.2375 147.411841) scale(0.1 -0.1)">
       <use xlink:href="#DejaVuSans-35"/>
      </g>
     </g>
    </g>
    <g id="ytick_6">
     <g id="line2d_12">
      <g>
       <use xlink:href="#m119abbe13b" x="57.6" y="110.259426" style="stroke: #000000; stroke-width: 0.8"/>
      </g>
     </g>
     <g id="text_12">
      <!-- 10 -->
      <g transform="translate(37.875 114.058645) scale(0.1 -0.1)">
       <use xlink:href="#DejaVuSans-31"/>
       <use xlink:href="#DejaVuSans-30" x="63.623047"/>
      </g>
     </g>
    </g>
    <g id="ytick_7">
     <g id="line2d_13">
      <g>
       <use xlink:href="#m119abbe13b" x="57.6" y="76.906229" style="stroke: #000000; stroke-width: 0.8"/>
      </g>
     </g>
     <g id="text_13">
      <!-- 15 -->
      <g transform="translate(37.875 80.705448) scale(0.1 -0.1)">
       <use xlink:href="#DejaVuSans-31"/>
       <use xlink:href="#DejaVuSans-35" x="63.623047"/>
      </g>
     </g>
    </g>
    <g id="ytick_8">
     <g id="line2d_14">
      <g>
       <use xlink:href="#m119abbe13b" x="57.6" y="43.553033" style="stroke: #000000; stroke-width: 0.8"/>
      </g>
     </g>
     <g id="text_14">
      <!-- 20 -->
      <g transform="translate(37.875 47.352252) scale(0.1 -0.1)">
       <use xlink:href="#DejaVuSans-32"/>
       <use xlink:href="#DejaVuSans-30" x="63.623047"/>
      </g>
     </g>
    </g>
   </g>
   <g id="line2d_15">
    <path d="M 73.832727 163.62454 
L 73.962615 163.196317 
L 74.157447 161.107672 
L 74.417222 155.779158 
L 74.741942 144.447911 
L 75.131605 121.854301 
L 75.975876 64.076314 
L 76.04082 64.53031 
L 76.170708 69.468875 
L 76.430483 92.4466 
L 77.144866 163.687447 
L 77.534529 182.710442 
L 77.989137 194.444301 
L 78.768464 211.747146 
L 79.223071 227.740765 
L 80.132285 263.512744 
L 80.262173 264.307423 
L 80.392061 262.988115 
L 80.586893 257.21905 
L 81.0415 233.46601 
L 81.561051 209.32637 
L 81.950715 200.023621 
L 82.21049 197.519823 
L 82.340378 197.165386 
L 82.405322 197.188098 
L 82.53521 197.609217 
L 82.730041 199.13835 
L 83.054761 204.073037 
L 83.444424 214.393262 
L 83.899031 233.460324 
L 84.678358 267.976339 
L 84.808246 268.744921 
L 84.938134 266.939157 
L 85.132966 259.688449 
L 85.717461 223.324563 
L 86.172068 202.170432 
L 86.561731 193.329059 
L 86.821507 190.964724 
L 87.016339 190.538396 
L 87.146226 190.786491 
L 87.341058 191.881312 
L 87.600834 194.667815 
L 87.925553 200.543 
L 88.315216 212.180797 
L 88.769824 234.147406 
L 89.549151 275.142349 
L 89.614094 275.693785 
L 89.679038 275.409888 
L 89.808926 272.295031 
L 90.068702 257.37196 
L 90.977916 195.799076 
L 91.36758 184.785282 
L 91.757243 179.87934 
L 92.081963 178.12013 
L 92.406682 177.325271 
L 92.796345 176.898501 
L 93.965336 175.937398 
L 94.354999 175.157053 
L 94.679718 174.024073 
L 95.004438 172.116277 
L 95.329157 168.878497 
L 95.653877 163.356727 
L 95.978596 153.948028 
L 96.303316 138.165118 
L 96.692979 106.964661 
L 97.277474 54.870667 
L 97.342418 53.568 
L 97.407362 54.009981 
L 97.53725 60.271907 
L 97.797026 89.804079 
L 98.446465 169.999021 
L 98.836128 193.703261 
L 99.290735 208.019002 
L 101.174108 250.591065 
L 101.239052 250.764443 
L 101.303996 250.693446 
L 101.433884 249.814956 
L 101.693659 245.372219 
L 102.343098 227.127402 
L 102.797706 217.656538 
L 103.122425 214.77557 
L 103.252313 214.54621 
L 103.382201 214.822073 
L 103.577032 216.14523 
L 103.901752 220.629372 
L 104.356359 231.011372 
L 105.20063 251.217108 
L 105.395462 252.203003 
L 105.525349 251.533618 
L 105.720181 248.592073 
L 106.109845 237.771263 
L 106.824227 217.974239 
L 107.148947 213.782528 
L 107.343779 212.949909 
L 107.408722 212.940775 
L 107.53861 213.310361 
L 107.733442 214.800081 
L 108.058161 219.640953 
L 108.512769 230.762885 
L 109.357039 252.679301 
L 109.551871 253.727437 
L 109.681759 252.955735 
L 109.876591 249.657929 
L 110.266254 237.715497 
L 110.915693 217.748436 
L 111.305356 211.987203 
L 111.500188 211.09988 
L 111.565132 211.082254 
L 111.69502 211.44702 
L 111.889851 212.957872 
L 112.214571 217.923025 
L 112.669178 229.548333 
L 113.578393 254.760836 
L 113.708281 255.48683 
L 113.773224 255.35922 
L 113.903112 254.10458 
L 114.162888 247.996177 
L 115.396822 210.861134 
L 115.656598 209.010243 
L 115.786485 208.955835 
L 115.916373 209.44602 
L 116.111205 211.158818 
L 116.435924 216.523036 
L 116.890532 228.991181 
L 117.799746 256.702686 
L 117.929634 257.522482 
L 117.994578 257.380346 
L 118.124466 255.969368 
L 118.384241 249.109601 
L 119.553231 209.423551 
L 119.813007 206.757846 
L 120.007839 206.359784 
L 120.137726 206.793375 
L 120.332558 208.434722 
L 120.657278 213.734008 
L 121.046941 224.282186 
L 122.215931 259.952217 
L 122.280875 259.710234 
L 122.410763 257.942657 
L 122.670538 249.894165 
L 123.774585 207.580272 
L 124.099304 203.655954 
L 124.294136 203.188906 
L 124.424024 203.576307 
L 124.618855 205.141199 
L 124.943575 210.313303 
L 125.333238 220.895378 
L 125.917733 244.685941 
L 126.372341 260.935034 
L 126.567172 262.948822 
L 126.69706 261.862952 
L 126.891892 256.655656 
L 127.281555 237.87806 
L 127.86605 211.041957 
L 128.255714 201.878583 
L 128.515489 199.432883 
L 128.645377 199.12001 
L 128.775265 199.347613 
L 128.970097 200.63652 
L 129.229872 204.073314 
L 129.554592 211.274078 
L 130.009199 227.457445 
L 130.983357 266.710952 
L 131.048301 266.838933 
L 131.178189 265.303511 
L 131.373021 258.780049 
L 131.892572 228.625594 
L 132.412123 204.489391 
L 132.801787 195.918986 
L 133.061562 193.754523 
L 133.19145 193.494839 
L 133.321338 193.709361 
L 133.516169 194.852258 
L 133.775945 197.870813 
L 134.100664 204.270667 
L 134.490328 216.744271 
L 134.944935 239.141667 
L 135.594374 271.211102 
L 135.724262 272.519878 
L 135.85415 270.860165 
L 136.048981 263.024079 
L 136.568533 226.668182 
L 137.088084 198.707974 
L 137.477747 188.716084 
L 137.802467 185.179452 
L 138.062242 184.290973 
L 138.19213 184.31052 
L 138.386962 184.82068 
L 138.646737 186.342444 
L 138.971457 189.731887 
L 139.36112 196.796989 
L 139.750784 208.996172 
L 140.140447 228.975255 
L 141.049662 283.460775 
L 141.114605 283.057182 
L 141.244493 278.933577 
L 141.504269 259.692543 
L 142.283596 193.189577 
L 142.673259 177.492155 
L 143.127866 168.209341 
L 144.037081 152.941886 
L 144.426744 141.14732 
L 144.881352 119.665157 
L 145.660678 80.60437 
L 145.725622 80.076197 
L 145.790566 80.328662 
L 145.920454 83.214352 
L 146.18023 97.16982 
L 147.089444 156.047561 
L 147.479107 166.69422 
L 147.803827 170.686719 
L 148.063603 171.997384 
L 148.258434 172.269961 
L 148.388322 172.194403 
L 148.583154 171.75032 
L 148.842929 170.567344 
L 149.167649 168.004567 
L 149.492368 163.767505 
L 149.882032 155.147212 
L 150.271695 140.179205 
L 150.661358 115.837543 
L 151.375741 66.9109 
L 151.440685 66.34336 
L 151.505629 67.02026 
L 151.635517 72.12771 
L 151.895293 94.347971 
L 152.609675 162.058436 
L 152.999339 180.182657 
L 153.453946 191.22797 
L 154.298217 208.856952 
L 154.752824 225.023585 
L 155.791926 267.451002 
L 155.85687 267.416277 
L 155.986758 265.500021 
L 156.246534 255.06123 
L 157.285636 201.278989 
L 157.610356 194.828239 
L 157.870131 192.737618 
L 158.000019 192.491029 
L 158.129907 192.702411 
L 158.324738 193.810665 
L 158.584514 196.729261 
L 158.909233 202.925671 
L 159.298897 215.088169 
L 159.753504 237.345014 
L 160.467887 272.862157 
L 160.532831 273.527419 
L 160.597775 273.42721 
L 160.727663 270.869707 
L 160.987438 257.499611 
L 161.961597 196.287268 
L 162.35126 186.752542 
L 162.67598 183.332482 
L 162.935755 182.347405 
L 163.130587 182.289367 
L 163.325419 182.68909 
L 163.585194 183.872867 
L 163.909914 186.508598 
L 164.234633 190.888175 
L 164.624296 199.774085 
L 165.01396 215.092022 
L 165.468567 244.665345 
L 166.053062 284.961443 
L 166.18295 286.497035 
L 166.312838 283.21467 
L 166.572613 263.900091 
L 167.416884 188.03826 
L 167.806547 172.508619 
L 168.261155 162.765335 
L 168.975538 148.75144 
L 169.430145 133.919719 
L 170.01464 105.129351 
L 170.469247 86.324349 
L 170.599135 84.933008 
L 170.664079 85.191815 
L 170.793967 87.672314 
L 171.053742 99.43419 
L 172.027901 153.063186 
L 172.417564 161.329333 
L 172.67734 163.43847 
L 172.872172 163.727151 
L 173.002059 163.405757 
L 173.196891 162.219403 
L 173.521611 158.355289 
L 173.84633 151.733008 
L 174.235993 138.860842 
L 174.690601 115.161272 
L 175.34004 79.446853 
L 175.469927 77.835477 
L 175.534871 78.2872 
L 175.664759 81.766792 
L 175.924535 97.345347 
L 176.768805 156.376709 
L 177.158469 168.615807 
L 177.548132 174.223173 
L 177.937796 176.633119 
L 178.392403 177.957652 
L 179.041842 179.665361 
L 179.431505 181.468321 
L 179.756225 183.982114 
L 180.080944 188.096372 
L 180.405664 194.882357 
L 180.730383 206.042553 
L 181.120047 228.51067 
L 182.029261 294.431646 
L 182.159149 290.464912 
L 182.418925 266.732694 
L 183.198251 183.127483 
L 183.587915 164.108554 
L 184.107466 150.495974 
L 184.821849 132.566611 
L 186.055783 95.743688 
L 186.120727 95.805857 
L 186.250614 97.107757 
L 186.51039 103.978247 
L 187.744324 146.096404 
L 188.0041 148.327495 
L 188.133988 148.533974 
L 188.263875 148.18176 
L 188.458707 146.658022 
L 188.783427 141.545329 
L 189.17309 131.151061 
L 189.887473 103.538819 
L 190.212192 94.40593 
L 190.34208 93.135864 
L 190.407024 93.149696 
L 190.536912 94.527012 
L 190.796687 102.193077 
L 191.965677 147.922922 
L 192.290397 151.577475 
L 192.420285 151.938054 
L 192.485229 151.905939 
L 192.615116 151.438187 
L 192.809948 149.767471 
L 193.134668 144.434507 
L 193.524331 133.603816 
L 194.108826 109.047398 
L 194.563433 92.004324 
L 194.758265 89.845885 
L 194.823209 90.141369 
L 194.953097 92.307772 
L 195.212872 102.111251 
L 196.251975 149.611851 
L 196.576694 155.032667 
L 196.83647 156.391004 
L 196.901414 156.382471 
L 197.031302 155.985428 
L 197.226133 154.483332 
L 197.550853 149.578248 
L 197.940516 139.293372 
L 198.395123 120.331942 
L 199.17445 86.281515 
L 199.304338 85.559917 
L 199.434226 87.374677 
L 199.629057 94.563533 
L 200.213553 130.496843 
L 200.66816 151.421041 
L 201.057823 160.150862 
L 201.317599 162.4472 
L 201.51243 162.813085 
L 201.642318 162.516743 
L 201.83715 161.333439 
L 202.161869 157.396463 
L 202.486589 150.623883 
L 202.876252 137.524501 
L 203.33086 113.780881 
L 203.980299 79.931037 
L 204.110186 78.913217 
L 204.240074 81.183323 
L 204.434906 90.353576 
L 205.66884 164.792496 
L 206.058503 171.603377 
L 206.383223 174.001443 
L 206.707942 174.878927 
L 206.902774 174.983539 
L 207.097606 174.869407 
L 207.357381 174.427613 
L 207.682101 173.386132 
L 208.00682 171.614039 
L 208.33154 168.699226 
L 208.656259 163.913894 
L 208.980979 156.047511 
L 209.305698 143.227181 
L 209.695362 118.083826 
L 210.474688 60.438655 
L 210.539632 60.777019 
L 210.66952 65.935473 
L 210.929296 90.831576 
L 211.643679 167.248102 
L 212.033342 187.271703 
L 212.487949 199.798007 
L 213.33222 220.657631 
L 214.046603 247.31415 
L 214.436266 258.22831 
L 214.566154 259.391031 
L 214.631098 259.365008 
L 214.760986 258.054959 
L 215.020761 250.858929 
L 216.254695 206.506861 
L 216.514471 204.093424 
L 216.644359 203.808415 
L 216.774246 204.08471 
L 216.969078 205.494069 
L 217.228854 209.172469 
L 217.618517 218.613016 
L 218.138068 238.221391 
L 218.722563 260.063352 
L 218.917395 262.342143 
L 218.982339 262.175481 
L 219.112227 260.388816 
L 219.372002 251.660762 
L 220.476049 205.14855 
L 220.800768 200.69505 
L 220.9956 199.954031 
L 221.060544 199.988418 
L 221.190432 200.451056 
L 221.385263 202.089598 
L 221.709983 207.320007 
L 222.099646 218.060168 
L 222.619197 240.198869 
L 223.203692 264.26396 
L 223.398524 265.99509 
L 223.528412 264.321319 
L 223.723244 257.775072 
L 224.242795 228.360865 
L 224.762346 205.018917 
L 225.152009 196.818909 
L 225.411785 194.858303 
L 225.541673 194.703626 
L 225.67156 195.031384 
L 225.866392 196.368327 
L 226.191112 200.834603 
L 226.580775 210.396587 
L 227.035382 228.811864 
L 227.944597 270.990713 
L 228.009541 271.278191 
L 228.139429 269.705586 
L 228.33426 262.245281 
L 228.853811 227.318875 
L 229.373363 200.096954 
L 229.763026 190.359425 
L 230.087746 187.064244 
L 230.282577 186.481321 
L 230.412465 186.537683 
L 230.607297 187.202183 
L 230.867072 189.116486 
L 231.191792 193.33272 
L 231.581455 202.008356 
L 231.971119 216.595977 
L 232.425726 243.558212 
L 233.010221 278.862497 
L 233.140109 280.506986 
L 233.269997 278.198032 
L 233.464828 267.701818 
L 234.633818 184.663764 
L 235.023482 175.4629 
L 235.543033 168.990584 
L 236.127528 161.655208 
L 236.517191 153.491211 
L 236.906855 140.143476 
L 237.361462 115.20423 
L 238.010901 76.338645 
L 238.140789 74.585084 
L 238.205733 75.117702 
L 238.335621 79.068619 
L 238.595396 96.484956 
L 239.439667 160.05225 
L 239.82933 172.954068 
L 240.218994 179.353925 
L 241.517872 194.787882 
L 241.907535 205.290627 
L 242.297198 222.549971 
L 242.81675 257.668089 
L 243.206413 280.117369 
L 243.336301 281.948966 
L 243.466189 279.643505 
L 243.66102 268.795739 
L 244.83001 182.993369 
L 245.219674 173.436099 
L 245.804169 165.42044 
L 246.258776 158.489338 
L 246.64844 149.106238 
L 247.038103 134.178161 
L 247.557654 103.845955 
L 248.012261 79.529125 
L 248.142149 77.426684 
L 248.207093 77.633422 
L 248.336981 80.674329 
L 248.596756 95.786098 
L 249.505971 158.817388 
L 249.895634 170.140445 
L 250.285298 175.334099 
L 250.674961 177.72783 
L 251.779007 182.687943 
L 252.168671 186.458229 
L 252.49339 191.745432 
L 252.81811 200.325262 
L 253.207773 217.670739 
L 253.66238 251.416774 
L 254.181932 289.994356 
L 254.246876 291.296739 
L 254.311819 291.245216 
L 254.441707 286.913041 
L 254.701483 264.048674 
L 255.48081 185.561395 
L 255.870473 167.608225 
L 256.390024 154.807733 
L 257.039463 139.546933 
L 257.559014 120.847011 
L 258.273397 93.730442 
L 258.468229 91.743074 
L 258.533173 92.011768 
L 258.663061 93.990776 
L 258.922836 102.98148 
L 259.961939 147.536145 
L 260.286658 152.663074 
L 260.48149 153.740194 
L 260.546434 153.808643 
L 260.611378 153.741018 
L 260.741265 153.213662 
L 261.001041 150.652782 
L 261.32576 144.60622 
L 261.715424 132.774357 
L 262.299919 106.459028 
L 262.754526 89.435862 
L 262.884414 88.064471 
L 262.949358 88.208739 
L 263.079246 90.213763 
L 263.339021 100.296216 
L 264.378124 151.133296 
L 264.702843 157.129487 
L 264.962619 158.890308 
L 265.092507 158.956257 
L 265.222394 158.54294 
L 265.417226 157.076791 
L 265.741945 152.369916 
L 266.131609 142.442538 
L 266.586216 123.552588 
L 267.430487 83.623334 
L 267.495431 82.972588 
L 267.560375 83.013624 
L 267.690262 85.23011 
L 267.950038 97.235486 
L 268.98914 156.660451 
L 269.378804 164.554206 
L 269.638579 166.629026 
L 269.833411 167.036149 
L 269.963299 166.867611 
L 270.158131 166.029146 
L 270.417906 163.845873 
L 270.742626 159.177696 
L 271.132289 149.686678 
L 271.521952 133.926088 
L 272.041504 101.172639 
L 272.496111 75.554561 
L 272.625999 73.971205 
L 272.755886 76.272164 
L 272.950718 86.625644 
L 274.119708 168.629164 
L 274.509372 177.697971 
L 274.963979 183.250649 
L 275.613418 190.561971 
L 276.003081 197.910803 
L 276.392745 210.040671 
L 276.782408 229.412111 
L 277.691623 280.501524 
L 277.756567 280.176105 
L 277.886454 276.512134 
L 278.14623 259.049464 
L 278.990501 193.261336 
L 279.380164 179.766577 
L 279.769827 172.914603 
L 280.938818 157.125946 
L 281.328481 146.075201 
L 281.718144 128.361609 
L 282.692303 74.620922 
L 282.757247 74.84502 
L 282.887135 78.191962 
L 283.14691 94.76734 
L 283.991181 159.086914 
L 284.380844 172.471078 
L 284.770508 179.101654 
L 285.419947 185.384627 
L 285.874554 190.909314 
L 286.264217 198.805782 
L 286.653881 211.986536 
L 287.043544 232.980859 
L 287.887815 281.930495 
L 287.952759 281.652127 
L 288.082646 277.932997 
L 288.342422 259.840067 
L 289.186693 191.833252 
L 289.576356 177.940282 
L 290.030963 169.79532 
L 290.875234 157.620523 
L 291.264897 147.720397 
L 291.654561 132.02737 
L 292.239056 96.757583 
L 292.628719 78.463095 
L 292.758607 77.48541 
L 292.888495 79.977313 
L 293.14827 94.27109 
L 294.122429 160.542949 
L 294.512092 170.950322 
L 294.901756 175.682832 
L 295.291419 177.893166 
L 296.330521 182.467483 
L 296.720185 186.080798 
L 297.044904 191.143086 
L 297.369624 199.361163 
L 297.759287 216.024668 
L 298.148951 243.31251 
L 298.798389 290.944855 
L 298.863333 291.507025 
L 298.993221 288.415128 
L 299.188053 274.022845 
L 300.227155 176.388381 
L 300.616819 162.661351 
L 302.045584 124.572387 
L 302.889855 93.100557 
L 303.019743 91.858635 
L 303.084687 91.934144 
L 303.214575 93.526086 
L 303.47435 101.888232 
L 304.64334 149.573001 
L 304.96806 153.291289 
L 305.097948 153.67844 
L 305.162891 153.662112 
L 305.292779 153.232507 
L 305.487611 151.637526 
L 305.81233 146.473027 
L 306.201994 135.824975 
L 306.721545 113.875631 
L 307.30604 89.984892 
L 307.500872 88.211358 
L 307.63076 89.818669 
L 307.825591 96.225525 
L 308.345142 125.293112 
L 308.864694 148.527185 
L 309.254357 156.715968 
L 309.514133 158.664216 
L 309.64402 158.807287 
L 309.773908 158.463313 
L 309.96874 157.092346 
L 310.293459 152.541382 
L 310.683123 142.836517 
L 311.13773 124.272702 
L 312.046945 83.236284 
L 312.111889 83.115017 
L 312.241776 84.989993 
L 312.436608 92.749862 
L 313.021103 131.619234 
L 313.47571 153.892402 
L 313.865374 163.242359 
L 314.190093 166.296824 
L 314.384925 166.74121 
L 314.514813 166.586045 
L 314.709644 165.753367 
L 314.96942 163.555565 
L 315.29414 158.838999 
L 315.683803 149.251888 
L 316.073466 133.377604 
L 316.593018 100.662307 
L 317.047625 75.688931 
L 317.177513 74.365575 
L 317.3074 76.892878 
L 317.502232 87.439385 
L 318.671222 168.44815 
L 319.060886 177.303061 
L 319.515493 182.651164 
L 320.164932 189.508748 
L 320.554595 196.360563 
L 320.944259 207.733746 
L 321.333922 226.178347 
L 322.308081 281.344761 
L 322.373024 280.794113 
L 322.502912 276.606446 
L 322.762688 258.110973 
L 323.542015 194.918946 
L 323.931678 179.975416 
L 324.321341 172.332028 
L 325.490332 155.090208 
L 325.879995 143.289848 
L 326.334602 120.982236 
L 327.113929 77.114633 
L 327.178873 76.320401 
L 327.243817 76.412341 
L 327.373705 79.334571 
L 327.63348 94.685633 
L 328.542695 159.747483 
L 328.932358 171.501328 
L 329.322021 177.090437 
L 329.776629 180.460912 
L 330.426068 185.095023 
L 330.815731 189.938498 
L 331.205395 198.248838 
L 331.595058 212.55314 
L 331.984721 235.837576 
L 332.764048 286.483833 
L 332.828992 286.426251 
L 332.95888 282.644621 
L 333.218655 262.603824 
L 333.997982 190.92536 
L 334.387646 173.980679 
L 334.842253 163.614956 
L 335.62158 148.312157 
L 336.076187 133.253462 
L 336.660682 104.30603 
L 337.115289 86.08258 
L 337.245177 84.995114 
L 337.375065 86.486824 
L 337.569897 93.366024 
L 338.024504 121.519653 
L 338.544055 149.076132 
L 338.933718 159.559663 
L 339.258438 163.118522 
L 339.45327 163.652019 
L 339.583157 163.472459 
L 339.777989 162.483334 
L 340.037765 159.857395 
L 340.362484 154.242146 
L 340.752148 143.036691 
L 341.206755 121.640092 
L 342.051025 78.11686 
L 342.115969 77.993607 
L 342.245857 80.322531 
L 342.440689 89.773737 
L 343.609679 164.113092 
L 343.999342 172.140654 
L 344.389006 175.614249 
L 344.778669 177.109875 
L 345.493052 178.596993 
L 345.882715 179.707538 
L 346.272379 181.601009 
L 346.597098 184.282964 
L 346.921818 188.709132 
L 347.246537 196.053694 
L 347.571257 208.173314 
L 347.96092 232.475234 
L 348.805191 295.488 
L 348.935079 291.905551 
L 349.12991 275.742692 
L 350.104069 174.693083 
L 350.493732 158.909666 
L 351.143171 143.394816 
L 351.727666 127.161004 
L 352.701825 97.695034 
L 352.831713 97.005911 
L 352.896656 97.200882 
L 353.026544 98.682685 
L 353.28632 105.520277 
L 354.45531 144.05864 
L 354.715086 146.558913 
L 354.844973 146.897226 
L 354.909917 146.853205 
L 355.039805 146.356037 
L 355.234637 144.624225 
L 355.559356 139.186643 
L 355.94902 128.538841 
L 357.053066 94.695245 
L 357.11801 94.681233 
L 357.247898 95.897509 
L 357.442729 100.64869 
L 357.897337 119.914127 
L 358.481832 141.884638 
L 358.806551 147.975019 
L 359.066327 149.806082 
L 359.131271 149.887891 
L 359.196215 149.829072 
L 359.326102 149.304257 
L 359.585878 146.689999 
L 359.910597 140.523387 
L 360.365205 126.356459 
L 361.339363 92.130334 
L 361.404307 91.813283 
L 361.469251 91.969898 
L 361.599139 93.720846 
L 361.858914 102.331414 
L 362.962961 148.506932 
L 363.28768 152.942959 
L 363.482512 153.673656 
L 363.547456 153.635198 
L 363.677343 153.16309 
L 363.872175 151.506546 
L 364.196895 146.236598 
L 364.586558 135.447387 
L 365.106109 113.348926 
L 365.690604 89.772203 
L 365.820492 88.22441 
L 365.885436 88.268811 
L 366.015324 90.065402 
L 366.275099 99.7848 
L 367.379146 152.315874 
L 367.703865 157.521537 
L 367.963641 158.794161 
L 368.028585 158.781211 
L 368.158472 158.397002 
L 368.353304 156.967963 
L 368.678024 152.315004 
L 369.067687 142.459889 
L 369.522294 123.692681 
L 370.366565 83.861691 
L 370.496453 83.182228 
L 370.626341 85.305744 
L 370.886116 97.106391 
L 371.925218 156.335316 
L 372.314882 164.253718 
L 372.574657 166.324652 
L 372.769489 166.715009 
L 372.899377 166.528 
L 373.094209 165.649761 
L 373.353984 163.387612 
L 373.678704 158.56951 
L 374.068367 148.80357 
L 374.458031 132.674375 
L 374.977582 99.717612 
L 375.432189 75.411274 
L 375.562077 74.478446 
L 375.691965 77.408546 
L 375.95174 93.46556 
L 376.860955 161.616871 
L 377.250618 173.906421 
L 377.640282 180.056612 
L 378.809272 193.811378 
L 379.198935 203.508746 
L 379.588598 219.48982 
L 380.043206 248.311038 
L 380.562757 279.735595 
L 380.692645 281.407327 
L 380.822533 279.004365 
L 381.017364 268.167632 
L 382.186354 183.514235 
L 382.576018 174.136953 
L 383.095569 167.223911 
L 383.61512 159.978305 
L 384.004784 151.225872 
L 384.394447 137.145237 
L 384.849054 111.72095 
L 385.433549 78.367012 
L 385.563437 76.400775 
L 385.628381 76.729796 
L 385.758269 80.107191 
L 386.018044 96.061989 
L 386.862315 157.49525 
L 387.251978 170.288139 
L 387.641642 176.376006 
L 388.096249 179.863163 
L 388.810632 184.663791 
L 389.200295 189.282101 
L 389.589959 197.22384 
L 389.979622 210.958741 
L 390.369285 233.573727 
L 391.148612 286.583256 
L 391.213556 287.097675 
L 391.2785 286.383949 
L 391.408388 281.260971 
L 391.668163 259.226362 
L 392.382546 192.247967 
L 392.77221 174.304651 
L 393.226817 163.408098 
L 394.071088 146.187202 
L 394.525695 130.274468 
L 395.629741 85.720145 
L 395.759629 87.172589 
L 395.954461 93.856544 
L 396.409068 121.295639 
L 396.928619 148.338612 
L 397.318283 158.651828 
L 397.643002 162.084657 
L 397.837834 162.519054 
L 397.967722 162.256878 
L 398.162553 161.111903 
L 398.422329 158.204226 
L 398.487273 157.217438 
L 398.487273 157.217438 
" clip-path="url(#pae88b615f0)" style="fill: none; stroke: #1f77b4; stroke-width: 1.5; stroke-linecap: square"/>
   </g>
   <g id="patch_3">
    <path d="M 57.6 307.584 
L 57.6 41.472 
" style="fill: none; stroke: #000000; stroke-width: 0.8; stroke-linejoin: miter; stroke-linecap: square"/>
   </g>
   <g id="patch_4">
    <path d="M 414.72 307.584 
L 414.72 41.472 
" style="fill: none; stroke: #000000; stroke-width: 0.8; stroke-linejoin: miter; stroke-linecap: square"/>
   </g>
   <g id="patch_5">
    <path d="M 57.6 307.584 
L 414.72 307.584 
" style="fill: none; stroke: #000000; stroke-width: 0.8; stroke-linejoin: miter; stroke-linecap: square"/>
   </g>
   <g id="patch_6">
    <path d="M 57.6 41.472 
L 414.72 41.472 
" style="fill: none; stroke: #000000; stroke-width: 0.8; stroke-linejoin: miter; stroke-linecap: square"/>
   </g>
  </g>
 </g>
 <defs>
  <clipPath id="pae88b615f0">
   <rect x="57.6" y="41.472" width="357.12" height="266.112"/>
  </clipPath>
 </defs>
</svg>
