<?xml version="1.0" encoding="utf-8" standalone="no"?>
<!DOCTYPE svg PUBLIC "-//W3C//DTD SVG 1.1//EN"
  "http://www.w3.org/Graphics/SVG/1.1/DTD/svg11.dtd">
<svg xmlns:xlink="http://www.w3.org/1999/xlink" width="460.8pt" height="345.6pt" viewBox="0 0 460.8 345.6" xmlns="http://www.w3.org/2000/svg" version="1.1">
 <metadata>
  <rdf:RDF xmlns:dc="http://purl.org/dc/elements/1.1/" xmlns:cc="http://creativecommons.org/ns#" xmlns:rdf="http://www.w3.org/1999/02/22-rdf-syntax-ns#">
   <cc:Work>
    <dc:type rdf:resource="http://purl.org/dc/dcmitype/StillImage"/>
    <dc:date>2022-11-27T10:32:52.700739</dc:date>
    <dc:format>image/svg+xml</dc:format>
    <dc:creator>
     <cc:Agent>
      <dc:title>Matplotlib v3.6.1, https://matplotlib.org/</dc:title>
     </cc:Agent>
    </dc:creator>
   </cc:Work>
  </rdf:RDF>
 </metadata>
 <defs>
  <style type="text/css">*{stroke-linejoin: round; stroke-linecap: butt}</style>
 </defs>
 <g id="figure_1">
  <g id="patch_1">
   <path d="M 0 345.6 
L 460.8 345.6 
L 460.8 0 
L 0 0 
z
" style="fill: #ffffff"/>
  </g>
  <g id="axes_1">
   <g id="patch_2">
    <path d="M 57.6 307.584 
L 414.72 307.584 
L 414.72 41.472 
L 57.6 41.472 
z
" style="fill: #ffffff"/>
   </g>
   <g id="matplotlib.axis_1">
    <g id="xtick_1">
     <g id="line2d_1">
      <defs>
       <path id="m7c80e45ca7" d="M 0 0 
L 0 3.5 
" style="stroke: #000000; stroke-width: 0.8"/>
      </defs>
      <g>
       <use xlink:href="#m7c80e45ca7" x="73.832727" y="307.584" style="stroke: #000000; stroke-width: 0.8"/>
      </g>
     </g>
     <g id="text_1">
      <!-- 0 -->
      <g transform="translate(70.651477 322.182437) scale(0.1 -0.1)">
       <defs>
        <path id="DejaVuSans-30" d="M 2034 4250 
Q 1547 4250 1301 3770 
Q 1056 3291 1056 2328 
Q 1056 1369 1301 889 
Q 1547 409 2034 409 
Q 2525 409 2770 889 
Q 3016 1369 3016 2328 
Q 3016 3291 2770 3770 
Q 2525 4250 2034 4250 
z
M 2034 4750 
Q 2819 4750 3233 4129 
Q 3647 3509 3647 2328 
Q 3647 1150 3233 529 
Q 2819 -91 2034 -91 
Q 1250 -91 836 529 
Q 422 1150 422 2328 
Q 422 3509 836 4129 
Q 1250 4750 2034 4750 
z
" transform="scale(0.015625)"/>
       </defs>
       <use xlink:href="#DejaVuSans-30"/>
      </g>
     </g>
    </g>
    <g id="xtick_2">
     <g id="line2d_2">
      <g>
       <use xlink:href="#m7c80e45ca7" x="138.776625" y="307.584" style="stroke: #000000; stroke-width: 0.8"/>
      </g>
     </g>
     <g id="text_2">
      <!-- 1000 -->
      <g transform="translate(126.051625 322.182437) scale(0.1 -0.1)">
       <defs>
        <path id="DejaVuSans-31" d="M 794 531 
L 1825 531 
L 1825 4091 
L 703 3866 
L 703 4441 
L 1819 4666 
L 2450 4666 
L 2450 531 
L 3481 531 
L 3481 0 
L 794 0 
L 794 531 
z
" transform="scale(0.015625)"/>
       </defs>
       <use xlink:href="#DejaVuSans-31"/>
       <use xlink:href="#DejaVuSans-30" x="63.623047"/>
       <use xlink:href="#DejaVuSans-30" x="127.246094"/>
       <use xlink:href="#DejaVuSans-30" x="190.869141"/>
      </g>
     </g>
    </g>
    <g id="xtick_3">
     <g id="line2d_3">
      <g>
       <use xlink:href="#m7c80e45ca7" x="203.720523" y="307.584" style="stroke: #000000; stroke-width: 0.8"/>
      </g>
     </g>
     <g id="text_3">
      <!-- 2000 -->
      <g transform="translate(190.995523 322.182437) scale(0.1 -0.1)">
       <defs>
        <path id="DejaVuSans-32" d="M 1228 531 
L 3431 531 
L 3431 0 
L 469 0 
L 469 531 
Q 828 903 1448 1529 
Q 2069 2156 2228 2338 
Q 2531 2678 2651 2914 
Q 2772 3150 2772 3378 
Q 2772 3750 2511 3984 
Q 2250 4219 1831 4219 
Q 1534 4219 1204 4116 
Q 875 4013 500 3803 
L 500 4441 
Q 881 4594 1212 4672 
Q 1544 4750 1819 4750 
Q 2544 4750 2975 4387 
Q 3406 4025 3406 3419 
Q 3406 3131 3298 2873 
Q 3191 2616 2906 2266 
Q 2828 2175 2409 1742 
Q 1991 1309 1228 531 
z
" transform="scale(0.015625)"/>
       </defs>
       <use xlink:href="#DejaVuSans-32"/>
       <use xlink:href="#DejaVuSans-30" x="63.623047"/>
       <use xlink:href="#DejaVuSans-30" x="127.246094"/>
       <use xlink:href="#DejaVuSans-30" x="190.869141"/>
      </g>
     </g>
    </g>
    <g id="xtick_4">
     <g id="line2d_4">
      <g>
       <use xlink:href="#m7c80e45ca7" x="268.664421" y="307.584" style="stroke: #000000; stroke-width: 0.8"/>
      </g>
     </g>
     <g id="text_4">
      <!-- 3000 -->
      <g transform="translate(255.939421 322.182437) scale(0.1 -0.1)">
       <defs>
        <path id="DejaVuSans-33" d="M 2597 2516 
Q 3050 2419 3304 2112 
Q 3559 1806 3559 1356 
Q 3559 666 3084 287 
Q 2609 -91 1734 -91 
Q 1441 -91 1130 -33 
Q 819 25 488 141 
L 488 750 
Q 750 597 1062 519 
Q 1375 441 1716 441 
Q 2309 441 2620 675 
Q 2931 909 2931 1356 
Q 2931 1769 2642 2001 
Q 2353 2234 1838 2234 
L 1294 2234 
L 1294 2753 
L 1863 2753 
Q 2328 2753 2575 2939 
Q 2822 3125 2822 3475 
Q 2822 3834 2567 4026 
Q 2313 4219 1838 4219 
Q 1578 4219 1281 4162 
Q 984 4106 628 3988 
L 628 4550 
Q 988 4650 1302 4700 
Q 1616 4750 1894 4750 
Q 2613 4750 3031 4423 
Q 3450 4097 3450 3541 
Q 3450 3153 3228 2886 
Q 3006 2619 2597 2516 
z
" transform="scale(0.015625)"/>
       </defs>
       <use xlink:href="#DejaVuSans-33"/>
       <use xlink:href="#DejaVuSans-30" x="63.623047"/>
       <use xlink:href="#DejaVuSans-30" x="127.246094"/>
       <use xlink:href="#DejaVuSans-30" x="190.869141"/>
      </g>
     </g>
    </g>
    <g id="xtick_5">
     <g id="line2d_5">
      <g>
       <use xlink:href="#m7c80e45ca7" x="333.608319" y="307.584" style="stroke: #000000; stroke-width: 0.8"/>
      </g>
     </g>
     <g id="text_5">
      <!-- 4000 -->
      <g transform="translate(320.883319 322.182437) scale(0.1 -0.1)">
       <defs>
        <path id="DejaVuSans-34" d="M 2419 4116 
L 825 1625 
L 2419 1625 
L 2419 4116 
z
M 2253 4666 
L 3047 4666 
L 3047 1625 
L 3713 1625 
L 3713 1100 
L 3047 1100 
L 3047 0 
L 2419 0 
L 2419 1100 
L 313 1100 
L 313 1709 
L 2253 4666 
z
" transform="scale(0.015625)"/>
       </defs>
       <use xlink:href="#DejaVuSans-34"/>
       <use xlink:href="#DejaVuSans-30" x="63.623047"/>
       <use xlink:href="#DejaVuSans-30" x="127.246094"/>
       <use xlink:href="#DejaVuSans-30" x="190.869141"/>
      </g>
     </g>
    </g>
    <g id="xtick_6">
     <g id="line2d_6">
      <g>
       <use xlink:href="#m7c80e45ca7" x="398.552217" y="307.584" style="stroke: #000000; stroke-width: 0.8"/>
      </g>
     </g>
     <g id="text_6">
      <!-- 5000 -->
      <g transform="translate(385.827217 322.182437) scale(0.1 -0.1)">
       <defs>
        <path id="DejaVuSans-35" d="M 691 4666 
L 3169 4666 
L 3169 4134 
L 1269 4134 
L 1269 2991 
Q 1406 3038 1543 3061 
Q 1681 3084 1819 3084 
Q 2600 3084 3056 2656 
Q 3513 2228 3513 1497 
Q 3513 744 3044 326 
Q 2575 -91 1722 -91 
Q 1428 -91 1123 -41 
Q 819 9 494 109 
L 494 744 
Q 775 591 1075 516 
Q 1375 441 1709 441 
Q 2250 441 2565 725 
Q 2881 1009 2881 1497 
Q 2881 1984 2565 2268 
Q 2250 2553 1709 2553 
Q 1456 2553 1204 2497 
Q 953 2441 691 2322 
L 691 4666 
z
" transform="scale(0.015625)"/>
       </defs>
       <use xlink:href="#DejaVuSans-35"/>
       <use xlink:href="#DejaVuSans-30" x="63.623047"/>
       <use xlink:href="#DejaVuSans-30" x="127.246094"/>
       <use xlink:href="#DejaVuSans-30" x="190.869141"/>
      </g>
     </g>
    </g>
   </g>
   <g id="matplotlib.axis_2">
    <g id="ytick_1">
     <g id="line2d_7">
      <defs>
       <path id="m775715877d" d="M 0 0 
L -3.5 0 
" style="stroke: #000000; stroke-width: 0.8"/>
      </defs>
      <g>
       <use xlink:href="#m775715877d" x="57.6" y="282.439748" style="stroke: #000000; stroke-width: 0.8"/>
      </g>
     </g>
     <g id="text_7">
      <!-- −20 -->
      <g transform="translate(29.495313 286.238966) scale(0.1 -0.1)">
       <defs>
        <path id="DejaVuSans-2212" d="M 678 2272 
L 4684 2272 
L 4684 1741 
L 678 1741 
L 678 2272 
z
" transform="scale(0.015625)"/>
       </defs>
       <use xlink:href="#DejaVuSans-2212"/>
       <use xlink:href="#DejaVuSans-32" x="83.789062"/>
       <use xlink:href="#DejaVuSans-30" x="147.412109"/>
      </g>
     </g>
    </g>
    <g id="ytick_2">
     <g id="line2d_8">
      <g>
       <use xlink:href="#m775715877d" x="57.6" y="247.609342" style="stroke: #000000; stroke-width: 0.8"/>
      </g>
     </g>
     <g id="text_8">
      <!-- −10 -->
      <g transform="translate(29.495313 251.408561) scale(0.1 -0.1)">
       <use xlink:href="#DejaVuSans-2212"/>
       <use xlink:href="#DejaVuSans-31" x="83.789062"/>
       <use xlink:href="#DejaVuSans-30" x="147.412109"/>
      </g>
     </g>
    </g>
    <g id="ytick_3">
     <g id="line2d_9">
      <g>
       <use xlink:href="#m775715877d" x="57.6" y="212.778937" style="stroke: #000000; stroke-width: 0.8"/>
      </g>
     </g>
     <g id="text_9">
      <!-- 0 -->
      <g transform="translate(44.2375 216.578156) scale(0.1 -0.1)">
       <use xlink:href="#DejaVuSans-30"/>
      </g>
     </g>
    </g>
    <g id="ytick_4">
     <g id="line2d_10">
      <g>
       <use xlink:href="#m775715877d" x="57.6" y="177.948532" style="stroke: #000000; stroke-width: 0.8"/>
      </g>
     </g>
     <g id="text_10">
      <!-- 10 -->
      <g transform="translate(37.875 181.747751) scale(0.1 -0.1)">
       <use xlink:href="#DejaVuSans-31"/>
       <use xlink:href="#DejaVuSans-30" x="63.623047"/>
      </g>
     </g>
    </g>
    <g id="ytick_5">
     <g id="line2d_11">
      <g>
       <use xlink:href="#m775715877d" x="57.6" y="143.118127" style="stroke: #000000; stroke-width: 0.8"/>
      </g>
     </g>
     <g id="text_11">
      <!-- 20 -->
      <g transform="translate(37.875 146.917345) scale(0.1 -0.1)">
       <use xlink:href="#DejaVuSans-32"/>
       <use xlink:href="#DejaVuSans-30" x="63.623047"/>
      </g>
     </g>
    </g>
    <g id="ytick_6">
     <g id="line2d_12">
      <g>
       <use xlink:href="#m775715877d" x="57.6" y="108.287721" style="stroke: #000000; stroke-width: 0.8"/>
      </g>
     </g>
     <g id="text_12">
      <!-- 30 -->
      <g transform="translate(37.875 112.08694) scale(0.1 -0.1)">
       <use xlink:href="#DejaVuSans-33"/>
       <use xlink:href="#DejaVuSans-30" x="63.623047"/>
      </g>
     </g>
    </g>
    <g id="ytick_7">
     <g id="line2d_13">
      <g>
       <use xlink:href="#m775715877d" x="57.6" y="73.457316" style="stroke: #000000; stroke-width: 0.8"/>
      </g>
     </g>
     <g id="text_13">
      <!-- 40 -->
      <g transform="translate(37.875 77.256535) scale(0.1 -0.1)">
       <use xlink:href="#DejaVuSans-34"/>
       <use xlink:href="#DejaVuSans-30" x="63.623047"/>
      </g>
     </g>
    </g>
   </g>
   <g id="line2d_14">
    <path d="M 73.832727 205.812856 
L 74.352278 194.642558 
L 74.741942 180.767223 
L 75.196549 155.419076 
L 75.586213 136.170201 
L 75.651156 135.497046 
L 75.7161 136.086979 
L 75.845988 141.560014 
L 76.105764 167.967954 
L 76.560371 216.109766 
L 76.820147 226.138704 
L 77.014978 228.154933 
L 77.144866 228.296565 
L 77.404642 227.738686 
L 77.599473 227.501764 
L 77.729361 227.640782 
L 77.924193 228.406666 
L 78.183968 230.569562 
L 78.508688 235.249017 
L 78.963295 245.729155 
L 79.807566 266.890379 
L 79.87251 267.000523 
L 80.002398 265.819938 
L 80.197229 260.407952 
L 81.301276 219.174912 
L 81.496107 218.264978 
L 81.625995 218.31928 
L 81.820827 219.03953 
L 82.145546 221.290377 
L 82.600153 226.117772 
L 83.054761 233.716043 
L 83.509368 245.660268 
L 84.353639 270.677935 
L 84.418583 270.83651 
L 84.54847 269.408102 
L 84.743302 262.698667 
L 85.717461 216.769059 
L 85.977236 214.73301 
L 86.107124 214.680419 
L 86.301956 215.25482 
L 86.691619 217.506439 
L 87.21117 221.798345 
L 87.600834 226.69137 
L 87.990497 234.366057 
L 88.445104 248.749598 
L 89.224431 276.834625 
L 89.289375 276.910232 
L 89.419263 274.653741 
L 89.614094 265.058338 
L 90.458365 212.522838 
L 90.718141 209.31334 
L 90.848029 209.017383 
L 90.977916 209.16636 
L 91.36758 210.506917 
L 91.822187 211.786487 
L 92.21185 212.301249 
L 92.601514 212.477023 
L 93.056121 212.448526 
L 93.575672 212.181475 
L 93.965336 211.744955 
L 94.354999 210.929548 
L 94.679718 209.727138 
L 95.004438 207.684155 
L 95.329157 204.194833 
L 95.653877 198.228015 
L 95.978596 188.118715 
L 96.36826 167.432175 
L 97.017699 125.385438 
L 97.082643 125.526274 
L 97.212531 131.712055 
L 97.472306 166.188803 
L 97.926913 226.236737 
L 98.186689 236.148928 
L 98.381521 237.389501 
L 98.511408 237.121327 
L 98.901072 235.965602 
L 99.03096 236.052805 
L 99.225791 236.806893 
L 99.485567 238.948962 
L 99.940174 245.205694 
L 100.654557 255.253854 
L 100.849389 255.781212 
L 100.979277 255.172136 
L 101.174108 252.755016 
L 101.563772 244.00146 
L 102.148267 231.835812 
L 102.472986 229.206587 
L 102.667818 228.970951 
L 102.797706 229.262688 
L 103.057481 230.723515 
L 103.447145 234.70924 
L 103.966696 242.823229 
L 104.810967 256.371688 
L 104.940854 256.858125 
L 105.005798 256.789013 
L 105.135686 255.975386 
L 105.395462 251.726331 
L 106.434564 229.113556 
L 106.69434 227.911926 
L 106.824227 227.953892 
L 107.019059 228.652999 
L 107.343779 231.176242 
L 107.798386 237.078773 
L 108.447825 249.348869 
L 108.967376 257.550942 
L 109.097264 258.104947 
L 109.162208 258.034948 
L 109.292096 257.139409 
L 109.551871 252.408176 
L 110.590973 227.867596 
L 110.850749 226.695642 
L 110.980637 226.775475 
L 111.175469 227.536688 
L 111.500188 230.154491 
L 111.954795 236.213791 
L 112.53929 247.742298 
L 113.123785 258.623772 
L 113.318617 259.537492 
L 113.448505 258.811547 
L 113.643337 255.580751 
L 114.033 243.663875 
L 114.552551 229.338407 
L 114.877271 225.74799 
L 115.072102 225.298825 
L 115.20199 225.523207 
L 115.396822 226.468263 
L 115.721541 229.321063 
L 116.176149 235.696261 
L 116.6957 246.450982 
L 117.345139 260.112809 
L 117.539971 261.231968 
L 117.669858 260.471222 
L 117.86469 256.877009 
L 118.254353 243.474251 
L 118.773905 227.793293 
L 119.098624 224.095455 
L 119.293456 223.689904 
L 119.423344 223.950793 
L 119.683119 225.400135 
L 120.072783 229.339241 
L 120.52739 236.537106 
L 121.111885 250.293885 
L 121.631436 262.041615 
L 121.826268 263.25785 
L 121.956156 262.322468 
L 122.150987 258.072773 
L 122.605595 239.885238 
L 123.060202 225.659363 
L 123.319977 222.417084 
L 123.514809 221.755697 
L 123.644697 221.904015 
L 123.839529 222.755041 
L 124.164248 225.373272 
L 124.618855 231.218993 
L 125.073463 240.243314 
L 126.177509 265.80372 
L 126.307397 264.796672 
L 126.502228 259.902645 
L 126.956836 238.851335 
L 127.346499 224.612254 
L 127.671219 219.929217 
L 127.86605 219.355514 
L 127.995938 219.556335 
L 128.255714 220.851233 
L 128.645377 224.252532 
L 129.099984 230.388386 
L 129.554592 240.025578 
L 130.139087 258.292079 
L 130.52875 268.374556 
L 130.658638 269.161069 
L 130.788526 267.892497 
L 130.983357 261.835317 
L 132.02246 217.667303 
L 132.282235 216.221194 
L 132.412123 216.325811 
L 132.606955 217.065379 
L 132.996618 219.671266 
L 133.451226 224.132975 
L 133.905833 231.160313 
L 134.295496 240.710612 
L 134.815047 259.579474 
L 135.269655 273.655462 
L 135.334599 274.113531 
L 135.399542 273.927121 
L 135.52943 271.406687 
L 135.789206 258.098324 
L 136.438645 218.449152 
L 136.69842 212.934002 
L 136.893252 211.698206 
L 137.02314 211.651313 
L 137.217972 212.185637 
L 137.867411 215.2832 
L 138.451906 218.702964 
L 138.841569 222.328987 
L 139.231232 228.342306 
L 139.620896 238.474901 
L 140.075503 257.881785 
L 140.659998 283.715767 
L 140.724942 284.044135 
L 140.85483 281.491492 
L 141.049662 269.16143 
L 141.828988 206.969089 
L 142.088764 202.971837 
L 142.218652 202.609642 
L 142.283596 202.629549 
L 142.543371 203.2008 
L 142.803147 203.595267 
L 142.933035 203.525888 
L 143.127866 203.001302 
L 143.387642 201.433852 
L 143.712361 197.87611 
L 144.102025 190.629265 
L 144.556632 176.76243 
L 145.335959 150.327751 
L 145.400903 150.293691 
L 145.530791 152.459475 
L 145.725622 161.440765 
L 146.569893 211.375598 
L 146.829668 214.689075 
L 147.0245 215.021183 
L 147.219332 214.530627 
L 148.583154 208.954018 
L 148.972817 206.470278 
L 149.36248 202.299828 
L 149.752144 195.038492 
L 150.141807 182.551615 
L 150.596415 159.16005 
L 151.051022 138.000943 
L 151.115966 137.67492 
L 151.245854 140.764727 
L 151.440685 155.258472 
L 152.155068 220.802461 
L 152.414844 225.862367 
L 152.609675 226.385298 
L 152.804507 226.010183 
L 153.064283 225.57885 
L 153.19417 225.656793 
L 153.389002 226.280254 
L 153.648778 228.167949 
L 153.973497 232.410069 
L 154.363161 240.6766 
L 154.947656 259.173408 
L 155.337319 269.143046 
L 155.467207 269.704843 
L 155.597095 268.105337 
L 155.791926 261.433616 
L 156.766085 217.69958 
L 157.02586 215.748164 
L 157.155748 215.710381 
L 157.35058 216.311372 
L 157.740243 218.713651 
L 158.259795 223.526546 
L 158.649458 229.127279 
L 159.039121 237.807988 
L 159.493729 253.287691 
L 160.078224 274.097245 
L 160.208111 275.045884 
L 160.337999 273.184185 
L 160.532831 264.705381 
L 161.442046 213.389154 
L 161.701821 210.899991 
L 161.831709 210.764417 
L 161.961597 211.010582 
L 162.35126 212.588459 
L 163.585194 218.42665 
L 163.974858 222.050823 
L 164.364521 228.272268 
L 164.754184 238.986195 
L 165.143848 256.317802 
L 165.793287 286.834659 
L 165.858231 286.773748 
L 165.988118 282.935539 
L 166.247894 260.837965 
L 166.767445 210.653794 
L 167.027221 201.920717 
L 167.222052 200.153283 
L 167.35194 200.037153 
L 167.611716 200.581064 
L 167.806547 200.85649 
L 167.936435 200.786568 
L 168.131267 200.195672 
L 168.391043 198.39299 
L 168.715762 194.313342 
L 169.105425 186.251992 
L 169.624977 169.747728 
L 170.144528 154.95619 
L 170.209472 154.531312 
L 170.274416 154.654158 
L 170.404303 156.718066 
L 170.664079 167.929235 
L 171.378462 205.65084 
L 171.638237 210.134926 
L 171.833069 211.064132 
L 171.962957 211.00293 
L 172.157789 210.33272 
L 172.612396 207.570874 
L 173.131947 203.028002 
L 173.521611 197.704869 
L 173.911274 189.282578 
L 174.365881 173.703878 
L 175.01532 148.977102 
L 175.080264 148.30608 
L 175.145208 148.363944 
L 175.275096 150.957468 
L 175.469927 161.123384 
L 176.249254 212.086497 
L 176.50903 216.269213 
L 176.703861 216.861898 
L 176.833749 216.678453 
L 177.872852 214.008914 
L 178.132627 213.939623 
L 178.392403 214.07901 
L 178.717122 214.536624 
L 179.041842 215.378989 
L 179.366561 216.793697 
L 179.691281 219.133702 
L 180.016 223.00893 
L 180.34072 229.428344 
L 180.665439 239.929452 
L 181.055103 260.309019 
L 181.639598 294.133587 
L 181.704542 294.461208 
L 181.834429 290.362976 
L 182.029261 271.808555 
L 182.613756 203.147319 
L 182.873532 194.553837 
L 183.068363 193.313949 
L 183.198251 193.455405 
L 183.587915 194.246151 
L 183.717802 194.071695 
L 183.912634 193.19066 
L 184.17241 190.799639 
L 184.562073 184.649994 
L 185.666119 163.684844 
L 185.731063 163.837337 
L 185.860951 165.165062 
L 186.120727 171.752402 
L 187.029941 200.201542 
L 187.289717 202.270775 
L 187.419605 202.453498 
L 187.549492 202.217947 
L 187.809268 200.810977 
L 188.198931 196.954703 
L 188.653539 189.880998 
L 189.17309 177.816844 
L 189.822529 162.469313 
L 189.952417 161.554383 
L 190.017361 161.625361 
L 190.147248 162.953001 
L 190.34208 167.916597 
L 191.381182 203.007215 
L 191.640958 204.488578 
L 191.770846 204.433292 
L 191.965677 203.687898 
L 192.290397 201.230428 
L 192.745004 195.69361 
L 193.199612 187.057285 
L 193.784107 170.644184 
L 194.238714 159.554663 
L 194.368602 158.780346 
L 194.433546 159.042348 
L 194.563433 161.006443 
L 194.823209 170.369936 
L 195.602536 203.268529 
L 195.862311 206.56212 
L 196.057143 207.113599 
L 196.187031 206.900933 
L 196.446806 205.614893 
L 196.83647 202.333554 
L 197.291077 196.491516 
L 197.745684 187.21974 
L 198.265236 171.039975 
L 198.784787 155.819028 
L 198.914675 155.046492 
L 199.044562 156.501608 
L 199.239394 163.167831 
L 200.213553 208.500118 
L 200.473328 210.527816 
L 200.603216 210.580766 
L 200.798048 210.002739 
L 201.187711 207.710496 
L 201.707262 203.269728 
L 202.096926 198.172763 
L 202.486589 190.201255 
L 202.941196 175.456958 
L 203.655579 149.546759 
L 203.720523 149.155957 
L 203.785467 149.496214 
L 203.915355 152.600085 
L 204.17513 167.897146 
L 204.759625 207.601114 
L 205.019401 214.253349 
L 205.214233 215.850901 
L 205.34412 216.01839 
L 205.474008 215.796126 
L 205.993559 213.891972 
L 206.513111 212.485405 
L 207.487269 210.254948 
L 207.876932 208.483652 
L 208.201652 205.996929 
L 208.526371 201.91638 
L 208.851091 195.199796 
L 209.240754 181.456907 
L 209.695362 154.857853 
L 210.085025 133.041144 
L 210.149969 132.009961 
L 210.214913 132.357311 
L 210.344801 137.851781 
L 210.604576 166.603647 
L 211.059183 219.2108 
L 211.318959 229.508027 
L 211.513791 231.357205 
L 211.578735 231.441429 
L 211.643679 231.387647 
L 212.098286 230.552281 
L 212.228174 230.778184 
L 212.423005 231.735119 
L 212.682781 234.225945 
L 213.072444 240.568258 
L 214.176491 262.881904 
L 214.241434 262.773913 
L 214.371322 261.462042 
L 214.631098 254.573279 
L 215.540312 224.452003 
L 215.800088 222.322192 
L 215.929976 222.137419 
L 216.059864 222.375056 
L 216.319639 223.774005 
L 216.709303 227.555556 
L 217.16391 234.484586 
L 217.683461 246.59997 
L 218.397844 264.48187 
L 218.527732 265.294501 
L 218.592676 265.114986 
L 218.722563 263.452516 
L 218.982339 255.130403 
L 219.761666 224.007355 
L 220.021441 220.534933 
L 220.216273 219.842625 
L 220.346161 219.987419 
L 220.540993 220.818361 
L 220.865712 223.302538 
L 221.320319 228.723752 
L 221.774927 237.23442 
L 222.294478 251.991315 
L 222.878973 267.85897 
L 223.008861 268.433556 
L 223.138748 267.002806 
L 223.33358 260.882436 
L 224.372683 218.233874 
L 224.567514 216.973549 
L 224.697402 216.882849 
L 224.82729 217.187437 
L 225.087065 218.532699 
L 225.541673 222.283127 
L 225.99628 228.015117 
L 226.385943 235.678363 
L 226.840551 249.373556 
L 227.554934 272.610456 
L 227.619877 273.021055 
L 227.684821 272.818199 
L 227.814709 270.37832 
L 228.074485 257.691227 
L 228.723924 219.526727 
L 228.983699 214.015113 
L 229.178531 212.72729 
L 229.308419 212.654588 
L 229.50325 213.183902 
L 229.957858 215.499788 
L 230.607297 219.856572 
L 230.99696 224.009726 
L 231.386624 230.754535 
L 231.776287 241.801849 
L 232.295838 264.908359 
L 232.685501 280.423871 
L 232.750445 281.241413 
L 232.815389 281.198892 
L 232.945277 278.155122 
L 233.140109 266.085514 
L 233.854492 211.191386 
L 234.114267 205.904037 
L 234.309099 205.061081 
L 234.438987 205.170554 
L 235.023482 206.373696 
L 235.15337 206.312774 
L 235.348201 205.883874 
L 235.607977 204.631825 
L 235.932696 201.79707 
L 236.32236 195.889174 
L 236.712023 185.933967 
L 237.16663 167.554935 
L 237.686182 146.225893 
L 237.816069 145.393409 
L 237.945957 148.191569 
L 238.140789 159.573499 
L 238.920116 215.095374 
L 239.179891 219.085855 
L 239.374723 219.529514 
L 239.569555 219.131456 
L 240.024162 218.055575 
L 240.218994 218.033627 
L 240.413825 218.360451 
L 240.673601 219.377071 
L 240.99832 221.725094 
L 241.32304 225.658265 
L 241.712703 233.517706 
L 242.102367 246.484415 
L 243.011581 282.561783 
L 243.141469 279.56334 
L 243.336301 267.103872 
L 244.050684 209.981778 
L 244.310459 204.668486 
L 244.505291 203.867817 
L 244.635179 203.99337 
L 245.15473 204.995401 
L 245.284618 204.910213 
L 245.479449 204.398538 
L 245.739225 202.933175 
L 246.063944 199.643666 
L 246.453608 192.886768 
L 246.843271 181.848356 
L 247.81743 147.864091 
L 247.882374 148.491526 
L 248.012261 152.359149 
L 248.272037 169.445693 
L 248.856532 209.808275 
L 249.116308 215.862545 
L 249.311139 217.145953 
L 249.441027 217.19196 
L 249.635859 216.708339 
L 250.285298 214.862136 
L 250.545073 214.654988 
L 250.739905 214.706271 
L 250.999681 215.032861 
L 251.3244 215.884468 
L 251.64912 217.377747 
L 251.973839 219.847595 
L 252.298559 223.89147 
L 252.623278 230.490659 
L 253.012941 243.839517 
L 253.467549 269.34465 
L 253.857212 290.350387 
L 253.922156 291.470838 
L 253.9871 291.32876 
L 254.116988 286.617675 
L 254.376763 260.329578 
L 254.896315 205.282426 
L 255.15609 197.189936 
L 255.350922 195.926225 
L 255.48081 196.013036 
L 255.870473 196.739741 
L 256.000361 196.593924 
L 256.195192 195.79388 
L 256.454968 193.548124 
L 256.779688 188.749893 
L 257.234295 178.332587 
L 257.948678 160.990703 
L 258.078566 160.359687 
L 258.208453 161.343518 
L 258.403285 166.063397 
L 258.857892 186.39261 
L 259.247556 200.329301 
L 259.572275 205.014139 
L 259.767107 205.617187 
L 259.896995 205.431755 
L 260.15677 204.143927 
L 260.546434 200.6856 
L 261.001041 194.400441 
L 261.455648 184.604679 
L 262.494751 157.257202 
L 262.559694 157.351914 
L 262.689582 159.098675 
L 262.884414 165.625595 
L 263.858572 206.628258 
L 264.118348 208.491964 
L 264.248236 208.516211 
L 264.443068 207.88658 
L 264.767787 205.819502 
L 265.222394 201.481364 
L 265.677002 194.721897 
L 266.131609 183.761032 
L 267.170711 152.775642 
L 267.300599 154.470652 
L 267.495431 162.080086 
L 268.404645 209.83729 
L 268.664421 212.511678 
L 268.794309 212.722011 
L 268.924196 212.511393 
L 269.248916 211.101569 
L 269.963299 206.646086 
L 270.417906 202.248924 
L 270.80757 196.028453 
L 271.197233 185.847275 
L 271.65184 167.13063 
L 272.171391 145.57265 
L 272.236335 144.79902 
L 272.301279 144.872331 
L 272.431167 147.922181 
L 272.625999 159.832508 
L 273.340382 213.903134 
L 273.600157 219.184986 
L 273.794989 220.045361 
L 273.924877 219.942391 
L 274.574316 218.640728 
L 274.704203 218.735682 
L 274.899035 219.200042 
L 275.158811 220.465464 
L 275.48353 223.267341 
L 275.873194 229.084394 
L 276.262857 238.945198 
L 276.717464 257.443637 
L 277.301959 281.068847 
L 277.366903 281.315354 
L 277.496791 278.925091 
L 277.691623 267.755517 
L 278.470949 209.797971 
L 278.730725 205.554454 
L 278.925557 205.059171 
L 279.120388 205.434262 
L 279.510052 206.3208 
L 279.704884 206.333033 
L 279.899715 205.94842 
L 280.159491 204.761184 
L 280.48421 202.025788 
L 280.873874 196.289687 
L 281.263537 186.590798 
L 281.718144 168.533942 
L 282.302639 145.583138 
L 282.367583 145.302924 
L 282.497471 147.48366 
L 282.692303 158.004273 
L 283.536573 216.190042 
L 283.796349 219.309636 
L 283.926237 219.535926 
L 284.056125 219.355526 
L 284.64062 218.018616 
L 284.835451 218.073431 
L 285.030283 218.481732 
L 285.290059 219.616758 
L 285.614778 222.148597 
L 286.004442 227.443792 
L 286.394105 236.542568 
L 286.783768 251.198838 
L 287.563095 282.656461 
L 287.628039 282.039504 
L 287.757927 277.569936 
L 288.017702 256.995221 
L 288.537254 213.522165 
L 288.797029 205.709452 
L 288.991861 204.013643 
L 289.121749 203.868778 
L 289.31658 204.249966 
L 289.706244 204.98531 
L 289.836132 204.93115 
L 290.030963 204.470212 
L 290.290739 203.079374 
L 290.615458 199.902534 
L 291.005122 193.333509 
L 291.394785 182.553004 
L 291.97928 158.246821 
L 292.304 148.256676 
L 292.368944 147.847037 
L 292.433888 148.213413 
L 292.563775 151.524586 
L 292.823551 167.780045 
L 293.408046 209.016748 
L 293.667822 215.59062 
L 293.862653 217.083018 
L 293.992541 217.202413 
L 294.187373 216.765758 
L 294.836812 214.879597 
L 295.096587 214.642999 
L 295.291419 214.672917 
L 295.551195 214.969734 
L 295.875914 215.775233 
L 296.200634 217.200672 
L 296.525353 219.562976 
L 296.850073 223.43259 
L 297.174792 229.752599 
L 297.564455 242.58134 
L 298.019063 267.490812 
L 298.47367 291.177396 
L 298.538614 291.624319 
L 298.668502 288.262258 
L 298.863333 271.919556 
L 299.512772 203.418369 
L 299.772548 196.692651 
L 299.96738 195.850414 
L 300.097267 196.037297 
L 300.421987 196.679858 
L 300.551875 196.595305 
L 300.746706 195.898727 
L 301.006482 193.79926 
L 301.331202 189.191912 
L 301.785809 179.027699 
L 302.565136 160.71874 
L 302.630079 160.438693 
L 302.695023 160.550525 
L 302.824911 162.051377 
L 303.084687 170.029332 
L 303.928957 202.380556 
L 304.188733 205.166279 
L 304.383565 205.532471 
L 304.513453 205.238137 
L 304.773228 203.802253 
L 305.162891 200.173518 
L 305.617499 193.621624 
L 306.072106 183.451968 
L 307.111208 157.364895 
L 307.241096 158.745727 
L 307.435928 164.735745 
L 308.47503 207.053456 
L 308.669862 208.343465 
L 308.79975 208.449101 
L 308.929638 208.154058 
L 309.189413 206.811285 
L 309.64402 203.019003 
L 310.098628 197.196647 
L 310.488291 189.428526 
L 310.942898 175.653272 
L 311.657281 153.163174 
L 311.722225 152.904185 
L 311.787169 153.262393 
L 311.917057 155.995339 
L 312.176832 168.984792 
L 312.826271 206.145753 
L 313.086047 211.342803 
L 313.280879 212.511895 
L 313.410767 212.540026 
L 313.605598 211.969507 
L 314.060205 209.563437 
L 314.644701 205.456851 
L 315.034364 201.216572 
L 315.424027 194.386181 
L 315.813691 183.29059 
L 316.333242 160.453851 
L 316.722905 145.739341 
L 316.787849 145.088466 
L 316.852793 145.288917 
L 316.982681 148.578291 
L 317.242456 166.224561 
L 317.826952 211.430948 
L 318.086727 218.222543 
L 318.281559 219.65086 
L 318.411447 219.727908 
L 318.606278 219.295465 
L 319.060886 218.293118 
L 319.255717 218.336493 
L 319.450549 218.74447 
L 319.710325 219.899538 
L 320.035044 222.491022 
L 320.424707 227.911212 
L 320.814371 237.188276 
L 321.204034 251.998324 
L 321.918417 281.93289 
L 321.983361 282.020134 
L 322.113249 279.171474 
L 322.308081 267.108383 
L 323.022463 210.679467 
L 323.282239 205.24065 
L 323.477071 204.375692 
L 323.606958 204.481241 
L 324.191454 205.568649 
L 324.321341 205.443548 
L 324.516173 204.884961 
L 324.775949 203.387177 
L 325.100668 200.09791 
L 325.490332 193.365656 
L 325.879995 182.296134 
L 326.46449 157.227988 
L 326.789209 147.124414 
L 326.854153 146.802957 
L 326.919097 147.306883 
L 327.048985 151.03811 
L 327.308761 168.454173 
L 327.893256 210.499797 
L 328.153031 216.768721 
L 328.347863 218.085282 
L 328.477751 218.136759 
L 328.672583 217.670124 
L 329.192134 216.286714 
L 329.386965 216.158435 
L 329.581797 216.290095 
L 329.841573 216.875873 
L 330.166292 218.339273 
L 330.491012 220.866016 
L 330.815731 224.982867 
L 331.205395 233.292039 
L 331.595058 247.341655 
L 332.439329 286.95162 
L 332.504272 286.655018 
L 332.63416 282.285054 
L 332.893936 259.355032 
L 333.413487 209.911956 
L 333.673263 201.670185 
L 333.868094 200.080505 
L 333.997982 200.017165 
L 334.517533 200.807757 
L 334.647421 200.585594 
L 334.842253 199.737653 
L 335.102028 197.555615 
L 335.426748 192.929131 
L 335.816411 184.086226 
L 336.46585 162.364732 
L 336.79057 154.85513 
L 336.855514 154.56036 
L 336.920458 154.825452 
L 337.050345 157.189757 
L 337.310121 168.874487 
L 338.024504 206.01597 
L 338.284279 210.221189 
L 338.479111 211.03135 
L 338.608999 210.922558 
L 338.868774 209.881906 
L 339.388326 206.415252 
L 339.842933 202.016899 
L 340.232596 196.135659 
L 340.62226 186.822686 
L 341.076867 170.055748 
L 341.661362 148.770891 
L 341.726306 148.334296 
L 341.79125 148.653095 
L 341.921138 151.80571 
L 342.180913 167.57886 
L 342.765408 208.372414 
L 343.025184 215.055589 
L 343.220016 216.619438 
L 343.349903 216.768048 
L 343.479791 216.538885 
L 344.45395 213.897427 
L 344.778669 213.740325 
L 345.103389 213.874977 
L 345.428108 214.27935 
L 345.752828 215.017661 
L 346.077547 216.25793 
L 346.402267 218.314862 
L 346.726986 221.73434 
L 347.051706 227.430826 
L 347.376425 236.846375 
L 347.766088 255.647323 
L 348.480471 295.488 
L 348.545415 294.548375 
L 348.675303 287.437013 
L 348.935079 255.252535 
L 349.389686 202.739223 
L 349.649462 193.748709 
L 349.844293 192.450241 
L 349.974181 192.596356 
L 350.363844 193.437537 
L 350.493732 193.275179 
L 350.688564 192.40656 
L 350.948339 190.032386 
L 351.338003 183.971072 
L 352.377105 164.798244 
L 352.442049 164.772124 
L 352.571937 165.642596 
L 352.766769 169.3034 
L 353.221376 184.81946 
L 353.675983 197.545139 
L 354.000703 201.071312 
L 354.195534 201.428543 
L 354.325422 201.146428 
L 354.585198 199.662463 
L 354.974861 195.660754 
L 355.429468 188.377036 
L 356.013964 174.702876 
L 356.533515 163.69383 
L 356.663402 162.857027 
L 356.728346 162.924014 
L 356.858234 164.140862 
L 357.053066 168.67749 
L 358.157112 202.306769 
L 358.351944 203.234858 
L 358.481832 203.220947 
L 358.676663 202.516883 
L 359.001383 200.051458 
L 359.45599 194.372068 
L 359.910597 185.598299 
L 361.014644 160.452623 
L 361.079588 160.626937 
L 361.209475 162.262588 
L 361.469251 170.472526 
L 362.248578 201.346571 
L 362.508353 204.830307 
L 362.703185 205.53593 
L 362.833073 205.398157 
L 363.027904 204.572722 
L 363.352624 202.083151 
L 363.807231 196.629649 
L 364.261839 188.076774 
L 364.78139 173.340285 
L 365.365885 157.848349 
L 365.430829 157.398474 
L 365.495773 157.409984 
L 365.62566 158.966727 
L 365.820492 165.203408 
L 366.794651 206.363581 
L 367.054426 208.363054 
L 367.184314 208.429442 
L 367.379146 207.839012 
L 367.703865 205.799488 
L 368.158472 201.475833 
L 368.61308 194.742936 
L 369.067687 183.843596 
L 370.106789 152.93475 
L 370.236677 154.55214 
L 370.431509 162.005301 
L 371.405667 210.667286 
L 371.665443 212.520729 
L 371.795331 212.510571 
L 371.990162 211.908896 
L 372.509714 209.085027 
L 373.094209 204.737782 
L 373.483872 200.089965 
L 373.873535 192.544661 
L 374.263199 180.391063 
L 375.172413 145.085617 
L 375.237357 145.47753 
L 375.367245 149.180805 
L 375.627021 167.449379 
L 376.211516 211.954553 
L 376.471291 218.368708 
L 376.666123 219.655404 
L 376.796011 219.686503 
L 377.055786 219.035722 
L 377.380506 218.308488 
L 377.575338 218.255918 
L 377.770169 218.559571 
L 378.029945 219.560399 
L 378.354664 221.910202 
L 378.679384 225.861573 
L 379.069047 233.748566 
L 379.458711 246.707958 
L 380.302981 282.06083 
L 380.367925 282.033727 
L 380.497813 278.918988 
L 380.692645 266.471748 
L 381.407028 210.328542 
L 381.666803 205.100507 
L 381.861635 204.309546 
L 381.991523 204.436252 
L 382.511074 205.495239 
L 382.640962 205.445928 
L 382.835793 205.008061 
L 383.095569 203.683793 
L 383.420288 200.654459 
L 383.809952 194.36052 
L 384.199615 183.915986 
L 384.719166 162.398273 
L 385.10883 147.950887 
L 385.238718 146.983034 
L 385.368605 149.35557 
L 385.563437 159.623508 
L 386.342764 213.103011 
L 386.602539 217.441503 
L 386.797371 218.049797 
L 386.927259 217.873037 
L 387.706586 216.000577 
L 387.901417 216.037349 
L 388.096249 216.32521 
L 388.356025 217.115227 
L 388.680744 218.871593 
L 389.005464 221.81094 
L 389.395127 227.820711 
L 389.78479 238.291299 
L 390.174454 255.412378 
L 390.823893 287.146923 
L 390.888837 287.409319 
L 391.018724 284.237785 
L 391.213556 269.805538 
L 391.927939 205.139262 
L 392.187715 200.111641 
L 392.382546 199.580729 
L 392.577378 199.95058 
L 392.837154 200.394439 
L 392.967041 200.332682 
L 393.161873 199.745996 
L 393.421649 197.929712 
L 393.746368 193.807572 
L 394.136032 185.695621 
L 394.655583 169.346041 
L 395.11019 156.211327 
L 395.240078 155.190197 
L 395.305022 155.465476 
L 395.43491 157.789213 
L 395.694685 169.145315 
L 396.409068 205.407433 
L 396.668844 209.609844 
L 396.863675 210.442702 
L 396.993563 210.344085 
L 397.188395 209.629743 
L 397.643002 206.708843 
L 398.097609 202.501834 
L 398.487273 197.026775 
L 398.487273 197.026775 
" clip-path="url(#pfc09a3d77a)" style="fill: none; stroke: #2ca02c; stroke-width: 1.5; stroke-linecap: square"/>
   </g>
   <g id="line2d_15">
    <path d="M 73.832727 177.948532 
L 74.287335 182.176272 
L 74.482166 182.826226 
L 74.54711 182.793118 
L 74.676998 182.215637 
L 74.87183 179.569425 
L 75.066661 173.658321 
L 75.326437 157.738356 
L 75.651156 120.994205 
L 76.105764 68.357695 
L 76.235651 64.423898 
L 76.300595 64.726183 
L 76.430483 68.868799 
L 77.794305 133.743455 
L 78.313856 145.448066 
L 78.70352 150.009949 
L 78.833407 150.427849 
L 78.898351 150.375622 
L 79.028239 149.670664 
L 79.223071 146.851091 
L 79.482846 139.113581 
L 79.87251 118.850831 
L 80.392061 92.298788 
L 80.586893 89.463404 
L 80.651837 89.58995 
L 80.781724 91.213714 
L 81.0415 98.280119 
L 82.470266 143.669947 
L 82.989817 153.132982 
L 83.314536 155.739199 
L 83.37948 155.813838 
L 83.509368 155.386909 
L 83.7042 152.991317 
L 83.963975 145.547116 
L 84.288695 128.083663 
L 85.003078 86.249999 
L 85.132966 85.173708 
L 85.262853 86.550403 
L 85.522629 94.260931 
L 86.886451 142.732558 
L 87.53589 157.313696 
L 87.990497 163.339538 
L 88.185329 164.219391 
L 88.250273 164.183089 
L 88.38016 163.486267 
L 88.574992 160.459492 
L 88.834768 151.320831 
L 89.159487 129.387155 
L 89.808926 80.17689 
L 89.938814 78.43772 
L 90.068702 80.031573 
L 90.328477 89.584835 
L 91.36758 133.340105 
L 92.146906 155.167308 
L 92.926233 170.945769 
L 93.70556 182.398483 
L 94.484887 190.68689 
L 95.19927 196.029731 
L 95.588933 197.734753 
L 95.783765 197.920424 
L 95.913653 197.593965 
L 96.108484 195.981124 
L 96.303316 192.092732 
L 96.563092 180.306766 
L 96.822867 155.3664 
L 97.602194 53.568 
L 97.667138 54.617561 
L 97.861969 65.768103 
L 98.511408 108.58356 
L 98.966016 123.682895 
L 99.420623 132.253955 
L 99.745343 135.019751 
L 99.87523 135.244546 
L 100.005118 134.905931 
L 100.19995 133.26092 
L 100.459725 128.864086 
L 100.914333 116.424347 
L 101.433884 103.890742 
L 101.628716 102.369306 
L 101.693659 102.334704 
L 101.823547 102.924965 
L 102.083323 106.266269 
L 102.667818 118.752917 
L 103.382201 132.602839 
L 103.771864 136.638708 
L 103.966696 137.200127 
L 104.096584 136.906733 
L 104.291415 135.327776 
L 104.551191 130.910337 
L 105.005798 117.695864 
L 105.525349 103.279153 
L 105.785125 101.045938 
L 105.850069 101.13657 
L 105.979957 102.018294 
L 106.239732 105.992483 
L 106.954115 122.605469 
L 107.603554 134.974425 
L 107.928274 138.24299 
L 108.123105 138.826757 
L 108.252993 138.512261 
L 108.447825 136.825509 
L 108.7076 132.069365 
L 109.097264 120.00339 
L 109.681759 101.876964 
L 109.876591 99.721672 
L 109.941534 99.589941 
L 110.071422 100.146624 
L 110.266254 102.705905 
L 110.720861 113.152731 
L 111.630076 134.166722 
L 112.019739 139.390058 
L 112.279515 140.698495 
L 112.344459 140.680592 
L 112.474347 140.165871 
L 112.669178 138.059571 
L 112.928954 132.487196 
L 113.383561 116.182325 
L 113.903112 99.632335 
L 114.097944 97.933395 
L 114.162888 98.015522 
L 114.292776 99.046404 
L 114.552551 103.764557 
L 116.241093 141.529075 
L 116.500868 142.91661 
L 116.565812 142.903597 
L 116.6957 142.371634 
L 116.890532 140.14465 
L 117.150307 134.144949 
L 117.539971 119.080844 
L 118.124466 97.746576 
L 118.319297 95.985041 
L 118.384241 96.129426 
L 118.514129 97.377713 
L 118.773905 102.72857 
L 120.332558 141.93242 
L 120.657278 145.217525 
L 120.787165 145.615203 
L 120.852109 145.574754 
L 120.981997 144.952189 
L 121.176829 142.46612 
L 121.436604 135.785906 
L 121.826268 118.853144 
L 122.345819 96.634955 
L 122.540651 93.772742 
L 122.605595 93.680115 
L 122.735482 94.653943 
L 122.995258 100.093344 
L 124.683799 145.206647 
L 125.008519 148.589056 
L 125.138407 149.001196 
L 125.20335 148.957407 
L 125.333238 148.296234 
L 125.52807 145.62823 
L 125.787846 138.316446 
L 126.177509 119.238685 
L 126.69706 93.870609 
L 126.891892 90.851658 
L 126.956836 90.853097 
L 127.086724 92.17525 
L 127.346499 98.617192 
L 128.905153 145.356424 
L 129.35976 152.217043 
L 129.619536 153.533759 
L 129.684479 153.448566 
L 129.814367 152.661807 
L 130.009199 149.63673 
L 130.268975 141.314606 
L 130.658638 119.115253 
L 131.178189 89.861192 
L 131.373021 87.029297 
L 131.437965 87.285698 
L 131.632796 90.89969 
L 132.087404 107.333412 
L 132.931674 136.451852 
L 133.581113 152.168161 
L 134.035721 158.929583 
L 134.295496 160.303601 
L 134.36044 160.234587 
L 134.490328 159.461251 
L 134.68516 156.326946 
L 134.944935 147.254577 
L 135.269655 126.482293 
L 135.919094 82.931916 
L 136.048981 81.548474 
L 136.178869 83.065626 
L 136.438645 91.772364 
L 137.607635 137.58734 
L 138.386962 157.784537 
L 139.036401 169.457631 
L 139.426064 173.542874 
L 139.620896 174.162382 
L 139.750784 173.745578 
L 139.945615 171.310658 
L 140.140447 165.735868 
L 140.400223 151.108477 
L 140.789886 111.453022 
L 141.179549 74.74407 
L 141.374381 70.891027 
L 141.504269 73.799751 
L 141.828988 90.26153 
L 142.478427 121.856096 
L 143.127866 142.834472 
L 143.712361 155.821716 
L 144.102025 160.948102 
L 144.296856 161.894529 
L 144.3618 161.877858 
L 144.491688 161.222793 
L 144.68652 158.291262 
L 144.946295 149.459288 
L 145.271015 128.539154 
L 145.920454 82.035688 
L 146.050342 80.228419 
L 146.115286 80.540594 
L 146.310117 85.231265 
L 146.959556 113.762759 
L 147.673939 139.24142 
L 148.453266 159.24619 
L 149.167649 172.324508 
L 149.6872 178.434061 
L 149.946976 179.640052 
L 150.011919 179.620206 
L 150.141807 179.03961 
L 150.336639 176.316636 
L 150.531471 170.272527 
L 150.791246 154.300195 
L 151.18091 110.088363 
L 151.570573 70.019793 
L 151.700461 66.679824 
L 151.765405 67.085824 
L 151.960236 74.295279 
L 152.999339 126.630822 
L 153.583834 143.236646 
L 154.038441 151.518454 
L 154.363161 154.128875 
L 154.428105 154.190996 
L 154.557992 153.730344 
L 154.752824 151.278408 
L 155.0126 143.826165 
L 155.337319 126.736175 
L 155.986758 88.719325 
L 156.18159 86.406613 
L 156.311478 87.805061 
L 156.571253 95.266756 
L 157.935075 142.537293 
L 158.584514 156.468445 
L 158.974177 161.038101 
L 159.169009 161.583864 
L 159.298897 161.006792 
L 159.493729 158.241863 
L 159.753504 149.748341 
L 160.078224 129.388962 
L 160.727663 82.683198 
L 160.85755 80.54732 
L 160.922494 80.699848 
L 161.052382 83.035439 
L 161.377102 95.742834 
L 162.286316 132.656792 
L 163.065643 154.486944 
L 163.780026 168.847813 
L 164.364521 176.588225 
L 164.624296 178.172903 
L 164.68924 178.273293 
L 164.754184 178.218138 
L 164.884072 177.537324 
L 165.078904 174.575391 
L 165.338679 165.011376 
L 165.598455 145.74782 
L 166.442726 67.68688 
L 166.572613 70.146116 
L 166.897333 87.376428 
L 167.546772 120.314412 
L 168.196211 141.001786 
L 168.715762 151.800428 
L 169.040482 155.448764 
L 169.235313 155.950365 
L 169.365201 155.327645 
L 169.560033 152.5385 
L 169.819808 144.374753 
L 170.144528 125.923452 
L 170.793967 86.711773 
L 170.923855 84.973434 
L 170.988798 85.1012 
L 171.118686 87.047315 
L 171.443406 98.001235 
L 172.482508 136.37525 
L 173.196891 154.371812 
L 173.716442 162.735628 
L 173.976218 164.608539 
L 174.041162 164.714952 
L 174.106106 164.640055 
L 174.235993 163.851177 
L 174.430825 160.635693 
L 174.690601 151.115161 
L 175.01532 128.52581 
L 175.664759 79.458243 
L 175.794647 78.078705 
L 175.924535 80.005621 
L 176.18431 89.984674 
L 177.158469 131.612084 
L 177.937796 153.937717 
L 178.717122 170.032493 
L 179.496449 181.578017 
L 180.080944 187.486433 
L 180.405664 189.148612 
L 180.535551 189.199488 
L 180.665439 188.687939 
L 180.860271 186.329234 
L 181.055103 180.927747 
L 181.314878 165.723952 
L 181.639598 127.805332 
L 182.159149 62.017904 
L 182.289037 59.775661 
L 182.418925 63.699386 
L 183.717802 129.154617 
L 184.237354 139.974237 
L 184.562073 143.1427 
L 184.691961 143.42371 
L 184.821849 143.024371 
L 185.01668 140.955467 
L 185.276456 135.059129 
L 185.666119 119.758582 
L 186.250614 97.302606 
L 186.445446 95.288156 
L 186.51039 95.384902 
L 186.640278 96.590754 
L 186.900053 102.016486 
L 188.523651 143.313967 
L 188.84837 146.358377 
L 188.978258 146.617627 
L 189.108146 146.188057 
L 189.302978 144.010116 
L 189.562753 137.70204 
L 189.952417 120.787632 
L 190.536912 95.101922 
L 190.731743 92.819129 
L 190.796687 92.947248 
L 190.926575 94.35655 
L 191.186351 100.503648 
L 192.745004 144.340301 
L 193.134668 149.439479 
L 193.329499 150.30193 
L 193.394443 150.262042 
L 193.524331 149.599708 
L 193.719163 146.890759 
L 193.978938 139.386246 
L 194.368602 119.53478 
L 194.888153 92.871704 
L 195.082985 89.75183 
L 195.147928 89.778807 
L 195.277816 91.217694 
L 195.537592 98.020137 
L 197.031302 144.709583 
L 197.550853 153.490876 
L 197.810628 155.307942 
L 197.875572 155.37823 
L 198.00546 154.942532 
L 198.200292 152.537791 
L 198.460067 145.109497 
L 198.784787 127.779887 
L 199.49917 86.578668 
L 199.629057 85.528812 
L 199.758945 86.890747 
L 200.018721 94.504881 
L 201.382543 142.647715 
L 202.031982 157.061664 
L 202.421645 162.285054 
L 202.681421 163.438395 
L 202.811308 162.955647 
L 203.00614 160.363403 
L 203.265916 152.083774 
L 203.590635 131.567649 
L 204.305018 79.995318 
L 204.369962 79.150998 
L 204.434906 79.166773 
L 204.564794 81.40582 
L 204.889513 94.473228 
L 205.733784 130.060431 
L 206.513111 152.791588 
L 207.292437 169.182428 
L 208.00682 180.079145 
L 208.591315 186.199866 
L 208.916035 187.835444 
L 209.045923 187.817559 
L 209.17581 187.185771 
L 209.370642 184.51164 
L 209.565474 178.573276 
L 209.825249 162.271076 
L 210.149969 123.196716 
L 210.604576 64.967012 
L 210.734464 60.674225 
L 210.799408 61.086716 
L 210.99424 69.54063 
L 211.83851 117.785892 
L 212.358061 133.639379 
L 212.812669 142.131224 
L 213.137388 144.727267 
L 213.202332 144.803344 
L 213.33222 144.425835 
L 213.527052 142.351017 
L 213.786827 136.310271 
L 214.176491 120.303191 
L 214.760986 96.306712 
L 214.955817 94.129651 
L 215.020761 94.228678 
L 215.150649 95.50749 
L 215.410425 101.242991 
L 216.969078 143.286638 
L 217.358742 147.815764 
L 217.553573 148.2981 
L 217.683461 147.738415 
L 217.878293 145.274374 
L 218.138068 138.351673 
L 218.527732 120.015934 
L 219.112227 93.242799 
L 219.307059 91.382453 
L 219.436946 92.438855 
L 219.696722 98.439974 
L 221.320319 145.86431 
L 221.709983 151.372174 
L 221.969758 152.585862 
L 222.099646 152.15515 
L 222.294478 149.815236 
L 222.554253 142.713767 
L 222.878973 126.534642 
L 223.528412 90.325835 
L 223.723244 87.810793 
L 223.853131 88.922336 
L 224.112907 95.740826 
L 225.67156 146.424997 
L 226.191112 155.912549 
L 226.515831 158.674493 
L 226.580775 158.794089 
L 226.645719 158.731599 
L 226.775607 157.976568 
L 226.970438 154.901382 
L 227.230214 146.047315 
L 227.554934 125.980484 
L 228.204373 84.178787 
L 228.33426 82.752129 
L 228.464148 84.098922 
L 228.723924 92.334723 
L 229.957858 139.265091 
L 230.672241 157.230413 
L 231.256736 167.203375 
L 231.581455 170.062003 
L 231.711343 170.319053 
L 231.841231 169.845399 
L 232.036062 167.263998 
L 232.295838 158.705491 
L 232.555614 141.86244 
L 233.399884 73.79021 
L 233.464828 73.877747 
L 233.594716 76.718313 
L 233.919436 92.105802 
L 234.633818 125.109006 
L 235.348201 147.340032 
L 235.99764 161.487668 
L 236.452248 167.610301 
L 236.712023 168.807022 
L 236.841911 168.396549 
L 237.036743 165.938136 
L 237.296518 157.673427 
L 237.556294 141.416341 
L 238.400564 75.013565 
L 238.465508 74.94775 
L 238.595396 77.43708 
L 238.920116 92.123939 
L 239.699442 127.26518 
L 240.413825 149.015426 
L 241.128208 164.329483 
L 241.582815 170.55319 
L 241.842591 172.121916 
L 241.907535 172.16643 
L 242.037423 171.691108 
L 242.232254 169.113428 
L 242.427086 163.349713 
L 242.686862 148.547856 
L 243.076525 109.777157 
L 243.466189 75.586391 
L 243.596076 72.364799 
L 243.66102 72.474777 
L 243.790908 75.488613 
L 244.180571 95.087353 
L 244.83001 124.946858 
L 245.479449 145.287135 
L 246.128888 159.356167 
L 246.518552 164.304847 
L 246.713383 165.223275 
L 246.778327 165.203503 
L 246.908215 164.544833 
L 247.103047 161.582003 
L 247.362822 152.496079 
L 247.687542 130.36259 
L 248.336981 79.51876 
L 248.466869 77.619955 
L 248.531813 78.019948 
L 248.726644 83.296174 
L 250.415186 148.568545 
L 251.194512 166.107317 
L 251.908895 177.673361 
L 252.428446 183.357513 
L 252.688222 184.805634 
L 252.81811 184.919161 
L 252.947998 184.421974 
L 253.142829 181.986518 
L 253.337661 176.407839 
L 253.597437 161.026917 
L 253.922156 124.228658 
L 254.441707 64.585433 
L 254.571595 62.941926 
L 254.701483 66.785837 
L 255.221034 99.00266 
L 255.740585 122.514372 
L 256.32508 138.971594 
L 256.779688 146.393081 
L 257.039463 147.941366 
L 257.104407 147.927572 
L 257.234295 147.325679 
L 257.429127 144.760446 
L 257.688902 137.6601 
L 258.078566 119.163889 
L 258.598117 94.566889 
L 258.792948 91.561751 
L 258.857892 91.531452 
L 258.98778 92.752679 
L 259.247556 98.931273 
L 260.806209 144.812511 
L 261.260817 151.349014 
L 261.455648 152.360471 
L 261.520592 152.37464 
L 261.65048 151.822478 
L 261.845312 149.261228 
L 262.105087 141.807024 
L 262.494751 121.172186 
L 263.079246 89.988175 
L 263.274077 88.008154 
L 263.403965 89.392328 
L 263.663741 96.494079 
L 265.092507 143.747751 
L 265.677002 155.130674 
L 266.001721 158.234741 
L 266.131609 158.483275 
L 266.261497 157.965305 
L 266.456328 155.353416 
L 266.716104 147.339908 
L 267.040823 128.434248 
L 267.690262 85.330768 
L 267.885094 83.078458 
L 268.014982 84.944826 
L 268.274757 93.674304 
L 269.443748 138.173417 
L 270.158131 156.373611 
L 270.742626 166.466885 
L 271.067345 169.35767 
L 271.197233 169.620263 
L 271.327121 169.148992 
L 271.521952 166.570234 
L 271.781728 158.041339 
L 272.106447 135.73499 
L 272.82083 75.296252 
L 272.885774 74.330418 
L 272.950718 74.405988 
L 273.080606 77.176509 
L 273.405325 92.321688 
L 274.119708 125.152481 
L 274.834091 147.447718 
L 275.548474 162.965697 
L 276.003081 169.041702 
L 276.262857 170.308712 
L 276.327801 170.238376 
L 276.457689 169.472319 
L 276.65252 166.277771 
L 276.912296 156.490358 
L 277.237015 132.056514 
L 277.886454 75.316045 
L 278.016342 73.738929 
L 278.14623 76.058665 
L 278.470949 90.985236 
L 279.185332 124.326528 
L 279.899715 146.795584 
L 280.549154 161.119577 
L 281.003761 167.422435 
L 281.263537 168.797213 
L 281.328481 168.754848 
L 281.458369 168.05134 
L 281.6532 164.986738 
L 281.912976 155.524331 
L 282.237696 131.950425 
L 282.887135 76.688529 
L 283.017022 74.865409 
L 283.14691 76.84296 
L 283.406686 87.697121 
L 284.3159 128.844941 
L 285.030283 150.137172 
L 285.744666 165.077439 
L 286.199273 170.95579 
L 286.459049 172.178796 
L 286.523993 172.105054 
L 286.653881 171.338923 
L 286.848712 168.147368 
L 287.108488 158.285911 
L 287.433207 133.281967 
L 288.082646 73.955763 
L 288.212534 72.316877 
L 288.342422 74.778997 
L 288.667141 90.333246 
L 289.381524 124.153306 
L 290.030963 144.726208 
L 290.680402 158.994185 
L 291.070066 164.120941 
L 291.264897 165.177209 
L 291.329841 165.215159 
L 291.459729 164.695028 
L 291.654561 162.01225 
L 291.914336 153.459331 
L 292.239056 132.103212 
L 292.953439 78.450473 
L 293.018383 77.682526 
L 293.083326 77.816631 
L 293.213214 80.368703 
L 293.537934 94.197628 
L 294.317261 128.02635 
L 295.031643 149.730645 
L 295.81097 166.945062 
L 296.525353 178.271041 
L 297.044904 183.733061 
L 297.30468 184.98131 
L 297.369624 185.032119 
L 297.434568 184.94199 
L 297.564455 184.234488 
L 297.759287 181.32172 
L 297.954119 174.979254 
L 298.213894 158.011747 
L 298.538614 119.106057 
L 298.993221 65.77772 
L 299.123109 62.701047 
L 299.252997 65.509045 
L 299.577716 84.950173 
L 300.162211 116.495358 
L 300.746706 135.228145 
L 301.266258 145.233357 
L 301.526033 147.571845 
L 301.655921 147.85294 
L 301.785809 147.410464 
L 301.98064 145.133001 
L 302.240416 138.492782 
L 302.630079 120.580819 
L 303.214575 93.690773 
L 303.409406 91.572604 
L 303.539294 92.460114 
L 303.79907 98.207235 
L 305.487611 146.647997 
L 305.877274 151.547341 
L 306.072106 152.254129 
L 306.201994 151.841274 
L 306.396826 149.541976 
L 306.656601 142.535618 
L 306.981321 126.562175 
L 307.695704 89.211198 
L 307.825591 88.084193 
L 307.890535 88.358074 
L 308.085367 91.875536 
L 308.539974 107.794026 
L 309.384245 136.304186 
L 310.033684 151.522935 
L 310.423347 157.015838 
L 310.683123 158.280477 
L 310.813011 157.861519 
L 311.007842 155.444328 
L 311.267618 147.792401 
L 311.592337 129.424772 
L 312.30672 84.281699 
L 312.436608 83.187155 
L 312.566496 84.75957 
L 312.826271 93.141301 
L 314.060205 139.604566 
L 314.774588 157.323792 
L 315.359083 166.847705 
L 315.683803 169.11478 
L 315.748747 169.146633 
L 315.878635 168.62663 
L 316.073466 165.945539 
L 316.333242 157.229818 
L 316.657961 134.728289 
L 317.372344 75.481747 
L 317.437288 74.64913 
L 317.502232 74.832226 
L 317.63212 77.736273 
L 318.021783 96.290261 
L 318.736166 127.833552 
L 319.450549 149.384785 
L 320.164932 164.436808 
L 320.619539 170.27009 
L 320.879315 171.379565 
L 321.009203 170.939857 
L 321.204034 168.432233 
L 321.398866 162.781367 
L 321.658642 148.258224 
L 322.048305 110.221629 
L 322.437968 76.359618 
L 322.567856 73.006432 
L 322.6328 73.022304 
L 322.762688 75.830743 
L 323.087407 91.471806 
L 323.80179 124.82321 
L 324.516173 147.001153 
L 325.165612 160.808327 
L 325.555275 165.721216 
L 325.750107 166.666134 
L 325.815051 166.662333 
L 325.944939 166.045562 
L 326.13977 163.162354 
L 326.399546 154.15339 
L 326.724266 131.771354 
L 327.373705 78.636107 
L 327.503592 76.498054 
L 327.568536 76.851408 
L 327.763368 82.210336 
L 329.386965 146.621762 
L 330.166292 164.495646 
L 330.815731 174.722513 
L 331.205395 178.047061 
L 331.335282 178.32615 
L 331.46517 177.960183 
L 331.660002 175.688636 
L 331.854834 170.340511 
L 332.114609 155.834011 
L 332.439329 122.452455 
L 332.95888 69.630833 
L 333.088768 67.693812 
L 333.218655 70.583616 
L 333.543375 88.171021 
L 334.192814 120.828967 
L 334.842253 141.324091 
L 335.361804 151.969528 
L 335.686523 155.472482 
L 335.816411 155.900378 
L 335.881355 155.848616 
L 336.011243 155.119556 
L 336.206075 152.130406 
L 336.46585 143.631534 
L 336.855514 120.162084 
L 337.375065 88.154631 
L 337.569897 85.004165 
L 337.63484 85.278989 
L 337.829672 89.203977 
L 338.284279 106.701122 
L 339.12855 136.82982 
L 339.842933 154.656288 
L 340.362484 162.828245 
L 340.62226 164.530675 
L 340.687204 164.580372 
L 340.817091 164.09003 
L 341.011923 161.476401 
L 341.271699 153.096772 
L 341.596418 132.161157 
L 342.310801 79.08097 
L 342.375745 78.240313 
L 342.440689 78.289957 
L 342.570577 80.661579 
L 342.895296 94.148312 
L 343.739567 130.114636 
L 344.518894 152.8689 
L 345.29822 169.267615 
L 346.077547 181.099046 
L 346.726986 188.027969 
L 347.11665 190.42575 
L 347.246537 190.676101 
L 347.311481 190.641278 
L 347.441369 190.145102 
L 347.636201 187.864543 
L 347.831032 182.618396 
L 348.090808 167.706186 
L 348.415527 129.809789 
L 348.935079 61.436638 
L 349.064966 58.689352 
L 349.194854 62.427937 
L 349.649462 92.955928 
L 350.104069 115.917563 
L 350.62362 131.66698 
L 351.078227 139.745856 
L 351.338003 141.804132 
L 351.467891 141.964804 
L 351.597778 141.447364 
L 351.79261 139.226664 
L 352.052386 133.258416 
L 352.506993 115.636447 
L 352.9616 99.300674 
L 353.156432 96.655435 
L 353.221376 96.498352 
L 353.351264 97.184195 
L 353.546095 100.263374 
L 354.000703 112.382577 
L 354.909917 136.061485 
L 355.364525 143.161204 
L 355.6243 144.828394 
L 355.689244 144.885526 
L 355.819132 144.487995 
L 356.013964 142.423856 
L 356.273739 136.463062 
L 356.663402 120.647663 
L 357.247898 96.630817 
L 357.442729 94.320409 
L 357.507673 94.370861 
L 357.637561 95.555676 
L 357.897337 101.141743 
L 359.520934 144.047853 
L 359.845653 147.55801 
L 360.040485 148.04691 
L 360.170373 147.495734 
L 360.365205 145.054775 
L 360.62498 138.193138 
L 361.014644 120.033313 
L 361.599139 93.477996 
L 361.79397 91.592638 
L 361.923858 92.611216 
L 362.183634 98.52191 
L 363.872175 146.822536 
L 364.261839 151.611016 
L 364.45667 152.237231 
L 364.586558 151.757206 
L 364.78139 149.333346 
L 365.041165 142.119971 
L 365.365885 125.899096 
L 366.015324 90.390415 
L 366.210155 88.103254 
L 366.340043 89.305548 
L 366.599819 96.169378 
L 368.093529 144.958404 
L 368.61308 154.847144 
L 368.937799 157.988754 
L 369.067687 158.257196 
L 369.197575 157.764159 
L 369.392406 155.203756 
L 369.652182 147.297527 
L 369.976902 128.593567 
L 370.626341 85.619535 
L 370.821172 83.241982 
L 370.95106 85.019074 
L 371.210836 93.613558 
L 372.379826 138.022896 
L 373.094209 156.204495 
L 373.678704 166.198083 
L 374.003423 168.931189 
L 374.133311 169.089659 
L 374.263199 168.480321 
L 374.458031 165.613936 
L 374.717806 156.532561 
L 375.042526 133.469819 
L 375.756908 75.251976 
L 375.821852 74.638732 
L 375.886796 75.018115 
L 376.081628 80.736284 
L 377.510394 140.896332 
L 378.224777 158.64739 
L 378.809272 168.441736 
L 379.133991 171.234475 
L 379.263879 171.471727 
L 379.393767 170.979325 
L 379.588598 168.361358 
L 379.848374 159.687486 
L 380.10815 142.531855 
L 380.95242 72.875386 
L 381.017364 73.024764 
L 381.147252 76.047669 
L 381.536915 95.433813 
L 382.186354 125.122212 
L 382.900737 147.192591 
L 383.550176 160.885588 
L 383.93984 165.666447 
L 384.134671 166.500168 
L 384.199615 166.448825 
L 384.329503 165.716882 
L 384.524335 162.59974 
L 384.78411 153.151945 
L 385.10883 130.17848 
L 385.758269 78.27081 
L 385.888157 76.645729 
L 386.018044 78.552786 
L 386.27782 88.874646 
L 387.187034 129.096694 
L 387.901417 150.482994 
L 388.6158 166.069793 
L 389.265239 175.866427 
L 389.589959 178.589225 
L 389.719847 178.9783 
L 389.78479 178.959831 
L 389.914678 178.376788 
L 390.10951 175.638249 
L 390.304342 169.572378 
L 390.564117 153.609636 
L 390.953781 109.768532 
L 391.343444 70.403816 
L 391.473332 67.165539 
L 391.538276 67.583803 
L 391.733107 74.722427 
L 392.77221 126.791588 
L 393.421649 144.993796 
L 393.876256 152.849544 
L 394.136032 154.898426 
L 394.200975 155.031257 
L 394.265919 154.981809 
L 394.395807 154.261 
L 394.590639 151.304391 
L 394.850414 142.932253 
L 395.240078 119.981659 
L 395.759629 88.8298 
L 395.954461 85.705389 
L 396.019405 85.948227 
L 396.214236 89.707067 
L 396.668844 106.802936 
L 397.513114 136.627963 
L 398.227497 154.195927 
L 398.487273 158.711887 
L 398.487273 158.711887 
" clip-path="url(#pfc09a3d77a)" style="fill: none; stroke: #ff7f0e; stroke-width: 1.5; stroke-linecap: square"/>
   </g>
   <g id="patch_3">
    <path d="M 57.6 307.584 
L 57.6 41.472 
" style="fill: none; stroke: #000000; stroke-width: 0.8; stroke-linejoin: miter; stroke-linecap: square"/>
   </g>
   <g id="patch_4">
    <path d="M 414.72 307.584 
L 414.72 41.472 
" style="fill: none; stroke: #000000; stroke-width: 0.8; stroke-linejoin: miter; stroke-linecap: square"/>
   </g>
   <g id="patch_5">
    <path d="M 57.6 307.584 
L 414.72 307.584 
" style="fill: none; stroke: #000000; stroke-width: 0.8; stroke-linejoin: miter; stroke-linecap: square"/>
   </g>
   <g id="patch_6">
    <path d="M 57.6 41.472 
L 414.72 41.472 
" style="fill: none; stroke: #000000; stroke-width: 0.8; stroke-linejoin: miter; stroke-linecap: square"/>
   </g>
   <g id="legend_1">
    <g id="patch_7">
     <path d="M 64.6 302.584 
L 114.242188 302.584 
Q 116.242188 302.584 116.242188 300.584 
L 116.242188 272.22775 
Q 116.242188 270.22775 114.242188 270.22775 
L 64.6 270.22775 
Q 62.6 270.22775 62.6 272.22775 
L 62.6 300.584 
Q 62.6 302.584 64.6 302.584 
z
" style="fill: #ffffff; opacity: 0.8; stroke: #cccccc; stroke-linejoin: miter"/>
    </g>
    <g id="line2d_16">
     <path d="M 66.6 278.326187 
L 76.6 278.326187 
L 86.6 278.326187 
" style="fill: none; stroke: #2ca02c; stroke-width: 1.5; stroke-linecap: square"/>
    </g>
    <g id="text_14">
     <!-- y(t) -->
     <g transform="translate(94.6 281.826187) scale(0.1 -0.1)">
      <defs>
       <path id="DejaVuSans-79" d="M 2059 -325 
Q 1816 -950 1584 -1140 
Q 1353 -1331 966 -1331 
L 506 -1331 
L 506 -850 
L 844 -850 
Q 1081 -850 1212 -737 
Q 1344 -625 1503 -206 
L 1606 56 
L 191 3500 
L 800 3500 
L 1894 763 
L 2988 3500 
L 3597 3500 
L 2059 -325 
z
" transform="scale(0.015625)"/>
       <path id="DejaVuSans-28" d="M 1984 4856 
Q 1566 4138 1362 3434 
Q 1159 2731 1159 2009 
Q 1159 1288 1364 580 
Q 1569 -128 1984 -844 
L 1484 -844 
Q 1016 -109 783 600 
Q 550 1309 550 2009 
Q 550 2706 781 3412 
Q 1013 4119 1484 4856 
L 1984 4856 
z
" transform="scale(0.015625)"/>
       <path id="DejaVuSans-74" d="M 1172 4494 
L 1172 3500 
L 2356 3500 
L 2356 3053 
L 1172 3053 
L 1172 1153 
Q 1172 725 1289 603 
Q 1406 481 1766 481 
L 2356 481 
L 2356 0 
L 1766 0 
Q 1100 0 847 248 
Q 594 497 594 1153 
L 594 3053 
L 172 3053 
L 172 3500 
L 594 3500 
L 594 4494 
L 1172 4494 
z
" transform="scale(0.015625)"/>
       <path id="DejaVuSans-29" d="M 513 4856 
L 1013 4856 
Q 1481 4119 1714 3412 
Q 1947 2706 1947 2009 
Q 1947 1309 1714 600 
Q 1481 -109 1013 -844 
L 513 -844 
Q 928 -128 1133 580 
Q 1338 1288 1338 2009 
Q 1338 2731 1133 3434 
Q 928 4138 513 4856 
z
" transform="scale(0.015625)"/>
      </defs>
      <use xlink:href="#DejaVuSans-79"/>
      <use xlink:href="#DejaVuSans-28" x="59.179688"/>
      <use xlink:href="#DejaVuSans-74" x="98.193359"/>
      <use xlink:href="#DejaVuSans-29" x="137.402344"/>
     </g>
    </g>
    <g id="line2d_17">
     <path d="M 66.6 293.004312 
L 76.6 293.004312 
L 86.6 293.004312 
" style="fill: none; stroke: #ff7f0e; stroke-width: 1.5; stroke-linecap: square"/>
    </g>
    <g id="text_15">
     <!-- z(t) -->
     <g transform="translate(94.6 296.504312) scale(0.1 -0.1)">
      <defs>
       <path id="DejaVuSans-7a" d="M 353 3500 
L 3084 3500 
L 3084 2975 
L 922 459 
L 3084 459 
L 3084 0 
L 275 0 
L 275 525 
L 2438 3041 
L 353 3041 
L 353 3500 
z
" transform="scale(0.015625)"/>
      </defs>
      <use xlink:href="#DejaVuSans-7a"/>
      <use xlink:href="#DejaVuSans-28" x="52.490234"/>
      <use xlink:href="#DejaVuSans-74" x="91.503906"/>
      <use xlink:href="#DejaVuSans-29" x="130.712891"/>
     </g>
    </g>
   </g>
  </g>
 </g>
 <defs>
  <clipPath id="pfc09a3d77a">
   <rect x="57.6" y="41.472" width="357.12" height="266.112"/>
  </clipPath>
 </defs>
</svg>
