<?xml version="1.0" encoding="utf-8" standalone="no"?>
<!DOCTYPE svg PUBLIC "-//W3C//DTD SVG 1.1//EN"
  "http://www.w3.org/Graphics/SVG/1.1/DTD/svg11.dtd">
<svg xmlns:xlink="http://www.w3.org/1999/xlink" width="460.8pt" height="345.6pt" viewBox="0 0 460.8 345.6" xmlns="http://www.w3.org/2000/svg" version="1.1">
 <metadata>
  <rdf:RDF xmlns:dc="http://purl.org/dc/elements/1.1/" xmlns:cc="http://creativecommons.org/ns#" xmlns:rdf="http://www.w3.org/1999/02/22-rdf-syntax-ns#">
   <cc:Work>
    <dc:type rdf:resource="http://purl.org/dc/dcmitype/StillImage"/>
    <dc:date>2022-11-27T09:37:28.745112</dc:date>
    <dc:format>image/svg+xml</dc:format>
    <dc:creator>
     <cc:Agent>
      <dc:title>Matplotlib v3.6.1, https://matplotlib.org/</dc:title>
     </cc:Agent>
    </dc:creator>
   </cc:Work>
  </rdf:RDF>
 </metadata>
 <defs>
  <style type="text/css">*{stroke-linejoin: round; stroke-linecap: butt}</style>
 </defs>
 <g id="figure_1">
  <g id="patch_1">
   <path d="M 0 345.6 
L 460.8 345.6 
L 460.8 0 
L 0 0 
z
" style="fill: #ffffff"/>
  </g>
  <g id="axes_1">
   <g id="patch_2">
    <path d="M 57.6 307.584 
L 414.72 307.584 
L 414.72 41.472 
L 57.6 41.472 
z
" style="fill: #ffffff"/>
   </g>
   <g id="matplotlib.axis_1">
    <g id="xtick_1">
     <g id="line2d_1">
      <defs>
       <path id="m1e3a275754" d="M 0 0 
L 0 3.5 
" style="stroke: #000000; stroke-width: 0.8"/>
      </defs>
      <g>
       <use xlink:href="#m1e3a275754" x="74.524296" y="307.584" style="stroke: #000000; stroke-width: 0.8"/>
      </g>
     </g>
     <g id="text_1">
      <!-- −2.0 -->
      <g transform="translate(62.382889 322.182437) scale(0.1 -0.1)">
       <defs>
        <path id="DejaVuSans-2212" d="M 678 2272 
L 4684 2272 
L 4684 1741 
L 678 1741 
L 678 2272 
z
" transform="scale(0.015625)"/>
        <path id="DejaVuSans-32" d="M 1228 531 
L 3431 531 
L 3431 0 
L 469 0 
L 469 531 
Q 828 903 1448 1529 
Q 2069 2156 2228 2338 
Q 2531 2678 2651 2914 
Q 2772 3150 2772 3378 
Q 2772 3750 2511 3984 
Q 2250 4219 1831 4219 
Q 1534 4219 1204 4116 
Q 875 4013 500 3803 
L 500 4441 
Q 881 4594 1212 4672 
Q 1544 4750 1819 4750 
Q 2544 4750 2975 4387 
Q 3406 4025 3406 3419 
Q 3406 3131 3298 2873 
Q 3191 2616 2906 2266 
Q 2828 2175 2409 1742 
Q 1991 1309 1228 531 
z
" transform="scale(0.015625)"/>
        <path id="DejaVuSans-2e" d="M 684 794 
L 1344 794 
L 1344 0 
L 684 0 
L 684 794 
z
" transform="scale(0.015625)"/>
        <path id="DejaVuSans-30" d="M 2034 4250 
Q 1547 4250 1301 3770 
Q 1056 3291 1056 2328 
Q 1056 1369 1301 889 
Q 1547 409 2034 409 
Q 2525 409 2770 889 
Q 3016 1369 3016 2328 
Q 3016 3291 2770 3770 
Q 2525 4250 2034 4250 
z
M 2034 4750 
Q 2819 4750 3233 4129 
Q 3647 3509 3647 2328 
Q 3647 1150 3233 529 
Q 2819 -91 2034 -91 
Q 1250 -91 836 529 
Q 422 1150 422 2328 
Q 422 3509 836 4129 
Q 1250 4750 2034 4750 
z
" transform="scale(0.015625)"/>
       </defs>
       <use xlink:href="#DejaVuSans-2212"/>
       <use xlink:href="#DejaVuSans-32" x="83.789062"/>
       <use xlink:href="#DejaVuSans-2e" x="147.412109"/>
       <use xlink:href="#DejaVuSans-30" x="179.199219"/>
      </g>
     </g>
    </g>
    <g id="xtick_2">
     <g id="line2d_2">
      <g>
       <use xlink:href="#m1e3a275754" x="114.933215" y="307.584" style="stroke: #000000; stroke-width: 0.8"/>
      </g>
     </g>
     <g id="text_2">
      <!-- −1.5 -->
      <g transform="translate(102.791809 322.182437) scale(0.1 -0.1)">
       <defs>
        <path id="DejaVuSans-31" d="M 794 531 
L 1825 531 
L 1825 4091 
L 703 3866 
L 703 4441 
L 1819 4666 
L 2450 4666 
L 2450 531 
L 3481 531 
L 3481 0 
L 794 0 
L 794 531 
z
" transform="scale(0.015625)"/>
        <path id="DejaVuSans-35" d="M 691 4666 
L 3169 4666 
L 3169 4134 
L 1269 4134 
L 1269 2991 
Q 1406 3038 1543 3061 
Q 1681 3084 1819 3084 
Q 2600 3084 3056 2656 
Q 3513 2228 3513 1497 
Q 3513 744 3044 326 
Q 2575 -91 1722 -91 
Q 1428 -91 1123 -41 
Q 819 9 494 109 
L 494 744 
Q 775 591 1075 516 
Q 1375 441 1709 441 
Q 2250 441 2565 725 
Q 2881 1009 2881 1497 
Q 2881 1984 2565 2268 
Q 2250 2553 1709 2553 
Q 1456 2553 1204 2497 
Q 953 2441 691 2322 
L 691 4666 
z
" transform="scale(0.015625)"/>
       </defs>
       <use xlink:href="#DejaVuSans-2212"/>
       <use xlink:href="#DejaVuSans-31" x="83.789062"/>
       <use xlink:href="#DejaVuSans-2e" x="147.412109"/>
       <use xlink:href="#DejaVuSans-35" x="179.199219"/>
      </g>
     </g>
    </g>
    <g id="xtick_3">
     <g id="line2d_3">
      <g>
       <use xlink:href="#m1e3a275754" x="155.342135" y="307.584" style="stroke: #000000; stroke-width: 0.8"/>
      </g>
     </g>
     <g id="text_3">
      <!-- −1.0 -->
      <g transform="translate(143.200729 322.182437) scale(0.1 -0.1)">
       <use xlink:href="#DejaVuSans-2212"/>
       <use xlink:href="#DejaVuSans-31" x="83.789062"/>
       <use xlink:href="#DejaVuSans-2e" x="147.412109"/>
       <use xlink:href="#DejaVuSans-30" x="179.199219"/>
      </g>
     </g>
    </g>
    <g id="xtick_4">
     <g id="line2d_4">
      <g>
       <use xlink:href="#m1e3a275754" x="195.751055" y="307.584" style="stroke: #000000; stroke-width: 0.8"/>
      </g>
     </g>
     <g id="text_4">
      <!-- −0.5 -->
      <g transform="translate(183.609649 322.182437) scale(0.1 -0.1)">
       <use xlink:href="#DejaVuSans-2212"/>
       <use xlink:href="#DejaVuSans-30" x="83.789062"/>
       <use xlink:href="#DejaVuSans-2e" x="147.412109"/>
       <use xlink:href="#DejaVuSans-35" x="179.199219"/>
      </g>
     </g>
    </g>
    <g id="xtick_5">
     <g id="line2d_5">
      <g>
       <use xlink:href="#m1e3a275754" x="236.159975" y="307.584" style="stroke: #000000; stroke-width: 0.8"/>
      </g>
     </g>
     <g id="text_5">
      <!-- 0.0 -->
      <g transform="translate(228.208412 322.182437) scale(0.1 -0.1)">
       <use xlink:href="#DejaVuSans-30"/>
       <use xlink:href="#DejaVuSans-2e" x="63.623047"/>
       <use xlink:href="#DejaVuSans-30" x="95.410156"/>
      </g>
     </g>
    </g>
    <g id="xtick_6">
     <g id="line2d_6">
      <g>
       <use xlink:href="#m1e3a275754" x="276.568895" y="307.584" style="stroke: #000000; stroke-width: 0.8"/>
      </g>
     </g>
     <g id="text_6">
      <!-- 0.5 -->
      <g transform="translate(268.617332 322.182437) scale(0.1 -0.1)">
       <use xlink:href="#DejaVuSans-30"/>
       <use xlink:href="#DejaVuSans-2e" x="63.623047"/>
       <use xlink:href="#DejaVuSans-35" x="95.410156"/>
      </g>
     </g>
    </g>
    <g id="xtick_7">
     <g id="line2d_7">
      <g>
       <use xlink:href="#m1e3a275754" x="316.977814" y="307.584" style="stroke: #000000; stroke-width: 0.8"/>
      </g>
     </g>
     <g id="text_7">
      <!-- 1.0 -->
      <g transform="translate(309.026252 322.182437) scale(0.1 -0.1)">
       <use xlink:href="#DejaVuSans-31"/>
       <use xlink:href="#DejaVuSans-2e" x="63.623047"/>
       <use xlink:href="#DejaVuSans-30" x="95.410156"/>
      </g>
     </g>
    </g>
    <g id="xtick_8">
     <g id="line2d_8">
      <g>
       <use xlink:href="#m1e3a275754" x="357.386734" y="307.584" style="stroke: #000000; stroke-width: 0.8"/>
      </g>
     </g>
     <g id="text_8">
      <!-- 1.5 -->
      <g transform="translate(349.435172 322.182437) scale(0.1 -0.1)">
       <use xlink:href="#DejaVuSans-31"/>
       <use xlink:href="#DejaVuSans-2e" x="63.623047"/>
       <use xlink:href="#DejaVuSans-35" x="95.410156"/>
      </g>
     </g>
    </g>
    <g id="xtick_9">
     <g id="line2d_9">
      <g>
       <use xlink:href="#m1e3a275754" x="397.795654" y="307.584" style="stroke: #000000; stroke-width: 0.8"/>
      </g>
     </g>
     <g id="text_9">
      <!-- 2.0 -->
      <g transform="translate(389.844091 322.182437) scale(0.1 -0.1)">
       <use xlink:href="#DejaVuSans-32"/>
       <use xlink:href="#DejaVuSans-2e" x="63.623047"/>
       <use xlink:href="#DejaVuSans-30" x="95.410156"/>
      </g>
     </g>
    </g>
   </g>
   <g id="matplotlib.axis_2">
    <g id="ytick_1">
     <g id="line2d_10">
      <defs>
       <path id="m0c8ccf6a56" d="M 0 0 
L -3.5 0 
" style="stroke: #000000; stroke-width: 0.8"/>
      </defs>
      <g>
       <use xlink:href="#m0c8ccf6a56" x="57.6" y="264.848808" style="stroke: #000000; stroke-width: 0.8"/>
      </g>
     </g>
     <g id="text_10">
      <!-- −2 -->
      <g transform="translate(35.857813 268.648027) scale(0.1 -0.1)">
       <use xlink:href="#DejaVuSans-2212"/>
       <use xlink:href="#DejaVuSans-32" x="83.789062"/>
      </g>
     </g>
    </g>
    <g id="ytick_2">
     <g id="line2d_11">
      <g>
       <use xlink:href="#m0c8ccf6a56" x="57.6" y="219.688499" style="stroke: #000000; stroke-width: 0.8"/>
      </g>
     </g>
     <g id="text_11">
      <!-- −1 -->
      <g transform="translate(35.857813 223.487718) scale(0.1 -0.1)">
       <use xlink:href="#DejaVuSans-2212"/>
       <use xlink:href="#DejaVuSans-31" x="83.789062"/>
      </g>
     </g>
    </g>
    <g id="ytick_3">
     <g id="line2d_12">
      <g>
       <use xlink:href="#m0c8ccf6a56" x="57.6" y="174.52819" style="stroke: #000000; stroke-width: 0.8"/>
      </g>
     </g>
     <g id="text_12">
      <!-- 0 -->
      <g transform="translate(44.2375 178.327409) scale(0.1 -0.1)">
       <use xlink:href="#DejaVuSans-30"/>
      </g>
     </g>
    </g>
    <g id="ytick_4">
     <g id="line2d_13">
      <g>
       <use xlink:href="#m0c8ccf6a56" x="57.6" y="129.367881" style="stroke: #000000; stroke-width: 0.8"/>
      </g>
     </g>
     <g id="text_13">
      <!-- 1 -->
      <g transform="translate(44.2375 133.1671) scale(0.1 -0.1)">
       <use xlink:href="#DejaVuSans-31"/>
      </g>
     </g>
    </g>
    <g id="ytick_5">
     <g id="line2d_14">
      <g>
       <use xlink:href="#m0c8ccf6a56" x="57.6" y="84.207572" style="stroke: #000000; stroke-width: 0.8"/>
      </g>
     </g>
     <g id="text_14">
      <!-- 2 -->
      <g transform="translate(44.2375 88.006791) scale(0.1 -0.1)">
       <use xlink:href="#DejaVuSans-32"/>
      </g>
     </g>
    </g>
   </g>
   <g id="line2d_15">
    <path d="M 397.795654 174.52819 
L 397.671084 177.931513 
L 397.317064 180.947507 
L 396.759701 183.621072 
L 396.021969 185.994637 
L 395.123915 188.107406 
L 394.08291 189.995 
L 392.913904 191.689372 
L 391.629688 193.218919 
L 389.878817 194.936944 
L 387.98242 196.478677 
L 385.534321 198.146087 
L 382.915734 199.662458 
L 379.663509 201.296557 
L 375.192081 203.266061 
L 369.305376 205.594103 
L 356.775437 210.2302 
L 345.270844 214.583974 
L 336.289818 218.206951 
L 327.32051 222.076887 
L 319.374512 225.732974 
L 310.797971 229.922226 
L 301.497503 234.738953 
L 292.535021 239.62526 
L 281.558068 245.881159 
L 268.093527 253.832598 
L 243.330924 268.531126 
L 232.922499 274.403574 
L 225.633499 278.291096 
L 218.069746 282.062896 
L 212.223428 284.75553 
L 206.236865 287.276667 
L 200.120723 289.570914 
L 193.888777 291.578023 
L 189.67812 292.725141 
L 185.429456 293.696842 
L 181.149416 294.473596 
L 176.845323 295.036139 
L 172.52518 295.365861 
L 168.197641 295.445228 
L 163.871959 295.258221 
L 159.557931 294.790798 
L 155.265811 294.031336 
L 151.006224 292.971062 
L 146.790049 291.604433 
L 142.628305 289.929457 
L 138.532011 287.947931 
L 134.512057 285.665576 
L 130.579052 283.092071 
L 126.743193 280.240966 
L 123.014123 277.129473 
L 119.400807 273.778154 
L 115.911423 270.210494 
L 112.553258 266.452404 
L 109.33264 262.531647 
L 106.254874 258.477237 
L 103.324217 254.318813 
L 100.54386 250.086031 
L 96.659529 243.660803 
L 93.120881 237.226643 
L 89.926073 230.868023 
L 87.069015 224.658371 
L 84.540001 218.658682 
L 82.326398 212.917031 
L 80.413332 207.468857 
L 78.301494 200.700525 
L 76.653112 194.52263 
L 75.425724 188.936307 
L 74.577546 183.922625 
L 74.068689 179.448717 
L 73.861958 175.473024 
L 73.923319 171.949494 
L 74.2221 168.830733 
L 74.731002 166.070239 
L 75.425979 163.62388 
L 76.286031 161.450761 
L 77.292956 159.513667 
L 78.431081 157.779183 
L 79.686989 156.217606 
L 81.405285 154.469177 
L 83.271413 152.905992 
L 85.685214 151.222493 
L 88.270756 149.698593 
L 91.484912 148.064429 
L 95.399804 146.318377 
L 101.180707 144.013601 
L 111.009399 140.38906 
L 125.471463 135.015823 
L 134.325071 131.496753 
L 143.155688 127.745398 
L 151.8735 123.782819 
L 160.370193 119.668119 
L 169.577905 114.937231 
L 178.445624 110.136543 
L 189.300627 103.98528 
L 202.609511 96.152631 
L 230.444091 79.651127 
L 239.152613 74.751828 
L 246.43464 70.860525 
L 253.991798 67.081906 
L 259.833558 64.381832 
L 265.816019 61.851017 
L 271.928644 59.544663 
L 278.157792 57.522875 
L 282.367052 56.364506 
L 286.614742 55.380377 
L 290.894274 54.590043 
L 295.198366 54.01281 
L 299.519051 53.667359 
L 303.847714 53.571322 
L 308.175131 53.740843 
L 312.491533 54.190118 
L 316.786685 54.930947 
L 321.049978 55.972306 
L 325.270537 57.319959 
L 329.437343 58.976134 
L 333.539365 60.93928 
L 337.565695 63.203921 
L 341.505694 65.760619 
L 345.349129 68.596052 
L 349.086314 71.693215 
L 352.708229 75.03173 
L 356.206643 78.588258 
L 359.574204 82.337004 
L 362.804521 86.250278 
L 365.892218 90.299102 
L 368.832972 94.453834 
L 371.623526 98.684777 
L 375.523195 105.110549 
L 379.077052 111.548882 
L 382.286757 117.914829 
L 385.158246 124.134423 
L 387.701099 130.146103 
L 389.927855 135.90124 
L 391.85332 141.363876 
L 393.980455 148.152217 
L 395.642694 154.350132 
L 396.882528 159.955795 
L 397.741805 164.987659 
L 398.260511 169.478295 
L 398.47595 173.469109 
L 398.422275 177.006114 
L 398.130272 180.136739 
L 397.627354 182.907573 
L 396.937673 185.362867 
L 396.082323 187.543646 
L 395.079593 189.487261 
L 393.945234 191.227259 
L 392.69273 192.793464 
L 390.978268 194.546602 
L 389.115601 196.113481 
L 386.705573 197.800299 
L 384.123505 199.326522 
L 380.913149 200.962376 
L 377.002418 202.709279 
L 371.227174 205.013734 
L 361.40773 208.635062 
L 346.959889 213.999706 
L 337.343729 217.829309 
L 328.455863 221.624695 
L 319.67761 225.637018 
L 311.118175 229.805418 
L 301.838346 234.599088 
L 292.897467 239.46308 
L 281.94876 245.692414 
L 268.520645 253.614602 
L 242.139349 269.254745 
L 233.444351 274.153459 
L 226.173065 278.047404 
L 218.62634 281.832192 
L 212.792034 284.539651 
L 206.816559 287.080554 
L 200.710301 289.399976 
L 194.486734 291.438035 
L 190.28067 292.609112 
L 186.035695 293.607462 
L 181.758341 294.413526 
L 177.455838 295.007963 
L 173.1361 295.372031 
L 168.807694 295.488 
L 164.4798 295.339594 
L 160.162144 294.91245 
L 155.864932 294.194564 
L 151.598746 293.176728 
L 147.374445 291.852917 
L 143.203041 290.220619 
L 139.095571 288.281085 
L 135.062956 286.039484 
L 131.115863 283.504949 
L 127.264559 280.690507 
L 123.518779 277.612888 
L 119.887598 274.292223 
L 116.379313 270.751639 
L 113.001346 267.01676 
L 109.760167 263.115153 
L 106.661231 259.075716 
L 103.708942 254.928066 
L 100.906641 250.701917 
L 96.98913 244.279187 
L 93.417395 237.839256 
L 90.190011 231.46758 
L 87.301249 225.238741 
L 84.7417 219.214959 
L 82.49896 213.445532 
L 80.558323 207.967056 
L 78.412334 201.156177 
L 76.732881 194.935169 
L 75.477479 189.306774 
L 74.604227 184.2532 
L 74.073051 179.742319 
L 73.846531 175.73298 
L 73.890386 172.179282 
L 74.173697 169.033799 
L 74.668923 166.24988 
L 75.351789 163.783159 
L 76.201086 161.592478 
L 77.198422 159.640337 
L 78.327951 157.893043 
L 79.576109 156.320631 
L 81.285705 154.561064 
L 83.144024 152.989025 
L 85.549369 151.29741 
L 88.127201 149.767647 
L 91.333014 148.12895 
L 95.238893 146.38016 
L 101.007734 144.074969 
L 110.81711 140.455788 
L 125.250026 135.098962 
L 134.855529 131.276787 
L 143.732831 127.489617 
L 152.499916 123.486553 
L 161.047748 119.328132 
L 170.314233 114.546112 
L 179.241572 109.693849 
L 190.172935 103.47895 
L 203.578991 95.573251 
L 229.916715 79.95354 
L 238.598058 75.05558 
L 245.858484 71.159146 
L 253.394648 67.368357 
L 259.221394 64.653644 
L 265.18977 62.102786 
L 271.289543 59.770427 
L 277.507404 57.716215 
L 281.710184 56.532504 
L 285.952355 55.519997 
L 290.227439 54.698255 
L 294.528259 54.08665 
L 298.846956 53.703986 
L 303.175009 53.568086 
L 307.503288 53.695356 
L 311.822102 54.100325 
L 316.121284 54.795196 
L 320.390275 55.789409 
L 324.618234 57.08925 
L 328.794156 58.697516 
L 332.907002 60.613255 
L 336.945835 62.831606 
L 340.899966 65.343743 
L 344.759089 68.136939 
L 348.513424 71.194742 
L 352.153841 74.497272 
L 355.671978 78.021619 
L 359.060341 81.742335 
L 362.312384 85.631982 
L 365.422572 89.661742 
L 368.386418 93.802035 
L 371.200498 98.023131 
L 375.135915 104.442465 
L 378.725611 110.883694 
L 381.970769 117.260853 
L 384.876913 123.498754 
L 387.453275 129.534512 
L 389.712121 135.318156 
L 391.668054 140.812448 
L 393.833063 147.645893 
L 395.529892 153.890081 
L 396.801016 159.541336 
L 397.688385 164.61677 
L 398.232163 169.14806 
L 398.469886 173.176092 
L 398.435959 176.746649 
L 398.161437 179.907146 
L 397.673989 182.704298 
L 396.998014 185.182578 
L 396.154837 187.383283 
L 395.162955 189.344058 
L 394.038305 191.098745 
L 392.794539 192.677452 
L 391.089857 194.443539 
L 389.235927 196.020818 
L 386.835303 197.717308 
L 384.261741 199.250674 
L 381.0605 200.892275 
L 377.159498 202.643009 
L 371.939627 204.740936 
L 362.808169 208.126218 
L 347.179804 213.915161 
L 337.584947 217.729942 
L 328.718192 221.508928 
L 319.962256 225.502764 
L 311.426004 229.651234 
L 302.172836 234.421632 
L 293.259009 239.262189 
L 282.344953 245.462669 
L 268.960918 253.351869 
L 242.66672 268.950972 
L 233.999035 273.84806 
L 226.749479 277.746859 
L 219.223895 281.5435 
L 213.404731 284.265335 
L 207.443483 286.826001 
L 201.350235 289.171137 
L 195.138127 291.24133 
L 190.938667 292.43756 
L 186.699341 293.464107 
L 182.426573 294.30141 
L 178.127483 294.93007 
L 173.809882 295.331225 
L 169.482237 295.486959 
L 165.153634 295.380739 
L 160.833723 294.997875 
L 156.532637 294.325965 
L 152.260907 293.355341 
L 148.029358 292.079456 
L 143.848985 290.495233 
L 139.730831 288.603323 
L 135.685844 286.408281 
L 131.724739 283.918623 
L 127.857855 281.146778 
L 124.095019 278.108916 
L 120.445417 274.824665 
L 116.917473 271.316713 
L 113.518753 267.610331 
L 110.255878 263.732823 
L 107.134464 259.712922 
L 104.159081 255.58017 
L 101.333236 251.364307 
L 97.37992 244.948627 
L 93.772258 238.506335 
L 90.509307 232.123896 
L 87.585755 225.877104 
L 84.992544 219.829506 
L 82.71755 214.031745 
L 80.746274 208.521703 
L 78.562179 201.665735 
L 76.847907 195.39837 
L 75.560995 189.724225 
L 74.659444 184.626879 
L 74.103004 180.075115 
L 73.854026 176.028317 
L 73.877974 172.440826 
L 74.143665 169.265242 
L 74.623297 166.454788 
L 75.292347 163.964882 
L 76.129375 161.754094 
L 77.115779 159.784632 
L 78.235526 158.022505 
L 79.474883 156.437463 
L 81.174632 154.66481 
L 83.024158 153.082254 
L 85.008207 151.651659 
L 87.549774 150.090605 
L 90.716836 148.426565 
L 94.581474 146.660605 
L 99.757888 144.55595 
L 108.224636 141.398534 
L 125.73691 134.911348 
L 134.614616 131.375987 
L 143.470845 127.605159 
L 152.215659 123.620523 
L 160.740359 119.481974 
L 169.980242 114.723168 
L 178.880589 109.894295 
L 189.777376 103.708216 
L 203.139437 95.835522 
L 229.390167 80.257195 
L 238.044197 75.361092 
L 245.282876 71.460049 
L 252.797864 67.657707 
L 258.609427 64.928882 
L 264.563518 62.358554 
L 270.650206 60.000801 
L 276.856517 57.914798 
L 281.052622 56.706168 
L 285.289064 55.6657 
L 289.559474 54.812953 
L 293.856784 54.167352 
L 298.173239 53.747815 
L 302.500421 53.572348 
L 306.829288 53.657606 
L 311.150235 54.018442 
L 315.453162 54.667448 
L 319.727564 55.614524 
L 323.962637 56.866471 
L 328.147393 58.426648 
L 332.27079 60.2947 
L 336.321866 62.466383 
L 340.289883 64.933486 
L 344.164467 67.683882 
L 347.935747 70.701682 
L 351.594484 73.967517 
L 355.132188 77.45892 
L 358.541226 81.150801 
L 361.814899 85.015995 
L 364.947511 89.025859 
L 367.93441 93.150888 
L 370.772006 97.361339 
L 373.45777 101.627816 
L 377.198747 108.070605 
L 380.594101 114.485707 
L 383.647531 120.792978 
L 386.366728 126.924026 
L 388.762719 132.823214 
L 390.849168 138.447805 
L 393.176797 145.469223 
L 395.022482 151.908237 
L 396.428518 157.752912 
L 397.437187 163.01426 
L 398.089353 167.719822 
L 398.423481 171.907991 
L 398.475041 175.623355 
L 398.276198 178.913092 
L 397.855724 181.824352 
L 397.239073 184.402472 
L 396.448551 186.689863 
L 395.503554 188.725397 
L 394.420829 190.544164 
L 393.214747 192.177479 
L 391.55217 194.000219 
L 389.735787 195.623092 
L 387.781651 197.085754 
L 385.27267 198.676205 
L 382.140269 200.364291 
L 378.312324 202.146938 
L 373.179521 204.259751 
L 365.364493 207.194721 
L 345.982786 214.377157 
L 337.051389 217.950095 
L 328.137859 221.765447 
L 319.332472 225.80027 
L 310.744845 229.992917 
L 302.506333 234.245006 
L 293.619433 239.06222 
L 282.739874 245.233916 
L 269.399741 253.090098 
L 241.499375 269.622553 
L 232.771332 274.522611 
L 225.473803 278.41003 
L 217.901598 282.179674 
L 212.049089 284.869041 
L 206.056555 287.385254 
L 199.934755 289.672717 
L 195.788459 291.040932 
L 191.595743 292.261845 
L 187.362224 293.316115 
L 183.094215 294.184187 
L 178.798731 294.846614 
L 174.483473 295.284423 
L 170.15681 295.479522 
L 165.827736 295.415135 
L 161.505815 295.076252 
L 157.201112 294.450088 
L 152.924103 293.526519 
L 148.685573 292.298489 
L 144.4965 290.762361 
L 140.367928 288.918191 
L 136.310829 286.769919 
L 132.335963 284.325444 
L 128.453738 281.596594 
L 124.674069 278.598973 
L 121.00625 275.35169 
L 117.458831 271.876989 
L 114.039517 268.199774 
L 110.755081 264.347068 
L 107.611299 260.347422 
L 104.612906 256.230295 
L 101.763574 252.025436 
L 99.065915 247.762285 
L 95.30697 241.320442 
L 91.89372 234.901834 
L 88.82269 228.587172 
L 86.086379 222.44549 
L 83.673919 216.533097 
L 81.571764 210.893395 
L 79.224526 203.849917 
L 77.360855 197.387824 
L 75.938491 191.520077 
L 74.915121 186.236435 
L 74.249807 181.509889 
L 73.903975 177.302373 
L 73.842032 173.569469 
L 74.031682 170.264042 
L 74.444021 167.338905 
L 75.053468 164.748624 
L 75.837598 162.45066 
L 76.776908 160.405998 
L 77.854552 158.579397 
L 79.056071 156.9394 
L 80.713557 155.109719 
L 82.525409 153.481252 
L 84.47546 152.014132 
L 86.980002 150.419584 
L 90.107692 148.72813 
L 93.930663 146.943119 
L 99.057574 144.829095 
L 106.86442 141.894948 
L 126.940942 134.444795 
L 135.926602 130.833527 
L 144.050464 127.349216 
L 152.844614 123.323718 
L 161.420566 119.141118 
L 169.647237 114.899365 
L 178.520722 110.093786 
L 189.383093 103.936455 
L 202.701343 96.096791 
L 230.555639 79.585957 
L 239.270018 74.686371 
L 246.556702 70.796164 
L 254.118384 67.020149 
L 259.963381 64.323205 
L 265.948882 61.796677 
L 272.064282 59.495883 
L 278.295871 57.481029 
L 282.506535 56.328078 
L 286.755422 55.350014 
L 291.035924 54.566391 
L 295.340734 53.996502 
L 299.661863 53.658999 
L 303.990675 53.571474 
L 308.317927 53.750013 
L 312.633834 54.208741 
L 316.928146 54.959373 
L 321.190242 56.010784 
L 325.409242 57.368625 
L 329.574124 59.035005 
L 333.673857 61.008244 
L 337.697541 63.282735 
L 341.634547 65.84891 
L 345.47466 68.693321 
L 349.20821 71.798845 
L 352.826205 75.144998 
L 356.320439 78.708353 
L 359.683591 82.463041 
L 362.909303 86.381318 
L 365.992233 90.434176 
L 368.928094 94.591958 
L 371.713662 98.824976 
L 375.605757 105.252094 
L 379.152022 111.689795 
L 382.354217 118.05335 
L 385.218366 124.269052 
L 387.754123 130.275623 
L 389.974083 136.024716 
L 391.893095 141.480646 
L 394.01221 148.259437 
L 395.667125 154.447559 
L 396.900331 160.043574 
L 397.753659 165.066222 
L 398.267053 169.548258 
L 398.477771 173.5312 
L 398.41991 177.061105 
L 398.124203 180.18541 
L 397.618005 182.950673 
L 396.925417 185.4011 
L 396.067486 187.577658 
L 395.062455 189.517636 
L 393.926037 191.254519 
L 392.671679 192.818071 
L 390.955143 194.56846 
L 389.090623 196.133128 
L 386.678602 197.817888 
L 384.094731 199.342587 
L 380.882446 200.977211 
L 376.969657 202.723288 
L 371.191703 205.027397 
L 361.368009 208.649587 
L 346.913889 214.017481 
L 337.29325 217.850189 
L 328.40095 221.649013 
L 319.61801 225.665213 
L 311.053706 229.837795 
L 302.838847 234.069238 
L 293.978745 238.863206 
L 283.133522 245.006191 
L 269.837108 252.829332 
L 242.028821 269.318365 
L 233.328105 274.217362 
L 226.052275 278.110231 
L 218.501132 281.892464 
L 212.663668 284.59685 
L 206.685229 287.133545 
L 200.576265 289.447506 
L 194.350321 291.478758 
L 190.142892 292.644513 
L 185.896754 293.636904 
L 181.618461 294.436373 
L 177.315267 295.023594 
L 172.995107 295.379848 
L 168.666569 295.487447 
L 164.33885 295.330171 
L 160.021697 294.893725 
L 155.725326 294.166191 
L 151.460331 293.138459 
L 147.237579 291.804612 
L 143.068085 290.162258 
L 138.962882 288.212774 
L 134.932888 285.961459 
L 130.988756 283.417574 
L 127.14074 280.594269 
L 123.398556 277.508392 
L 119.771253 274.180178 
L 116.267103 270.632842 
L 112.893498 266.892084 
L 109.656874 262.985521 
L 106.562653 258.942087 
L 103.615205 254.791409 
L 100.817837 250.563195 
L 96.907821 244.139116 
L 93.343599 237.699793 
L 90.123649 231.330469 
L 87.242153 225.105468 
L 84.689628 219.086734 
L 82.453616 213.323284 
L 80.519368 207.851444 
L 78.38132 201.050021 
L 76.709118 194.838712 
L 75.460277 189.219874 
L 74.592916 184.175433 
L 74.066997 179.673074 
L 73.845149 175.671536 
L 73.893146 172.124871 
L 74.180122 168.985651 
L 74.678592 166.207249 
L 75.364333 163.745348 
L 76.216183 161.558845 
L 77.215794 159.610303 
L 78.34736 157.86609 
L 79.59735 156.296299 
L 81.308997 154.539449 
L 83.169148 152.969592 
L 85.576466 151.280007 
L 88.156081 149.751745 
L 91.363805 148.114256 
L 95.271723 146.366272 
L 101.043252 144.061406 
L 110.85685 140.441345 
L 125.296015 135.081265 
L 134.905977 131.255989 
L 143.787698 127.465388 
L 152.559453 123.458456 
L 161.112137 119.295865 
L 170.384201 114.508977 
L 179.317201 109.65181 
L 190.255816 103.430875 
L 203.671095 95.518277 
L 230.027041 79.889998 
L 238.714097 74.991707 
L 245.979067 71.096299 
L 253.519652 67.308001 
L 259.349563 64.596306 
L 265.320913 62.049594 
L 271.423403 59.722626 
L 277.643657 57.67515 
L 281.847816 56.496709 
L 286.091165 55.490109 
L 290.367204 54.674911 
L 294.668735 54.070473 
L 298.987874 53.695574 
L 303.316082 53.568 
L 307.644208 53.704101 
L 311.962545 54.118337 
L 316.260912 54.822828 
L 320.528738 55.826918 
L 324.755176 57.136784 
L 328.929216 58.755104 
L 333.039821 60.680801 
L 337.076062 62.908885 
L 341.027257 65.430401 
L 344.883117 68.232497 
L 348.633881 71.298604 
L 352.270441 74.608738 
L 355.784462 78.139897 
L 359.168481 81.866558 
L 362.415984 85.761231 
L 365.521469 89.795061 
L 368.480484 93.938454 
L 371.289638 98.161687 
L 375.217567 104.582473 
L 378.799749 111.023189 
L 382.03747 117.39808 
L 384.93634 123.632212 
L 387.505666 129.662977 
L 389.75777 135.440686 
L 391.707299 140.928371 
L 393.864344 147.752383 
L 395.553896 153.986875 
L 396.818436 159.628565 
L 397.699892 164.694849 
L 398.238391 169.217594 
L 398.471422 173.237798 
L 398.433336 176.801294 
L 398.155132 179.955502 
L 397.664426 182.74711 
L 396.985564 185.220547 
L 396.139824 187.417052 
L 395.145657 189.374209 
L 394.018964 191.125798 
L 392.773358 192.701866 
L 391.066618 194.465221 
L 389.210851 196.040303 
L 386.80825 197.734749 
L 384.232901 199.266604 
L 381.029746 200.906986 
L 377.126704 202.656904 
L 371.904386 204.754494 
L 362.76898 208.140465 
L 347.133863 213.932826 
L 337.534556 217.750696 
L 328.663393 221.533101 
L 319.902796 225.530793 
L 311.361704 229.683422 
L 302.102971 234.458677 
L 293.183496 239.304127 
L 282.262207 245.510635 
L 268.868967 253.406737 
L 242.556572 269.014479 
L 233.883175 273.911946 
L 226.629072 277.809771 
L 219.099061 281.603982 
L 213.276723 284.322855 
L 207.312491 286.879437 
L 201.21651 289.219249 
L 195.00199 291.282778 
L 190.801137 292.473787 
L 186.560616 293.494476 
L 182.286874 294.325285 
L 177.987055 294.946826 
L 173.66899 295.340261 
L 169.341167 295.487712 
L 165.012693 295.372699 
L 160.693233 294.980598 
L 156.392935 294.299093 
L 152.122343 293.318607 
L 147.892287 292.032705 
L 143.713768 290.438426 
L 139.597826 288.536546 
L 135.555404 286.331749 
L 131.597208 283.83268 
L 127.733563 281.051893 
L 123.974276 278.005677 
L 120.328509 274.713764 
L 116.804662 271.198936 
L 113.410268 267.486539 
L 110.151919 263.603933 
L 107.035197 259.579886 
L 104.064637 255.443958 
L 101.243711 251.225885 
L 97.297879 244.808645 
L 93.697732 238.36677 
L 90.442224 231.986514 
L 87.525956 225.74342 
L 84.939796 219.700758 
L 82.67156 213.908888 
L 80.706706 208.405425 
L 78.530602 201.558872 
L 76.823633 195.301199 
L 75.543332 189.636631 
L 74.64772 184.548455 
L 74.096583 180.005262 
L 73.852318 175.966321 
L 73.880446 172.385921 
L 74.149835 169.216656 
L 74.632741 166.411773 
L 75.304691 163.926738 
L 76.144294 161.720174 
L 77.132992 159.754351 
L 78.254792 157.995341 
L 79.495995 156.412954 
L 81.19781 154.643052 
L 83.049179 153.062708 
L 85.034896 151.633869 
L 87.578282 150.074421 
L 90.747283 148.411689 
L 94.61398 146.646625 
L 99.792848 144.542387 
L 108.263279 141.384457 
L 125.783119 134.893511 
L 134.664949 131.355277 
L 143.525578 127.581039 
L 152.275041 123.592559 
L 160.804568 119.449864 
L 170.050004 114.686214 
L 178.955985 109.852457 
L 189.859989 103.660357 
L 203.231235 95.780759 
L 229.500138 80.193723 
L 238.159879 75.297194 
L 245.403108 71.397074 
L 252.922529 67.597099 
L 258.737273 64.871181 
L 264.694361 62.304877 
L 270.783797 59.952381 
L 276.992537 57.872969 
L 281.19005 56.669511 
L 285.427703 55.634851 
L 289.699105 54.788549 
L 293.997165 54.150019 
L 298.314105 53.738157 
L 302.641488 53.570931 
L 306.970251 53.664945 
L 311.290773 54.034985 
L 315.592937 54.693563 
L 319.866229 55.650483 
L 324.099837 56.912439 
L 328.282768 58.482673 
L 332.40398 60.360707 
L 336.452517 62.542165 
L 340.417651 65.018711 
L 344.289022 67.778089 
L 348.056777 70.804294 
L 351.7117 74.077848 
L 355.245328 77.576192 
L 358.650055 81.274157 
L 361.919216 85.144523 
L 365.047148 89.158606 
L 368.029233 93.286887 
L 370.861917 97.499623 
L 373.542704 101.76744 
L 377.276165 108.210552 
L 380.664037 114.624124 
L 383.710112 120.928249 
L 386.422161 127.054805 
L 388.811275 132.948437 
L 390.891168 138.566682 
L 393.210613 145.578856 
L 395.048795 152.008212 
L 396.44802 157.843242 
L 397.45056 163.095279 
L 398.097244 167.792082 
L 398.426493 171.97218 
L 398.473726 175.68023 
L 398.27105 178.963426 
L 397.847185 181.868902 
L 397.227531 184.441955 
L 396.434345 186.724941 
L 395.486977 188.756673 
L 394.402133 190.572178 
L 393.194149 192.202711 
L 391.529448 194.022562 
L 389.711174 195.643106 
L 387.755334 197.103913 
L 385.244499 198.69266 
L 382.110131 200.379347 
L 378.280108 202.161013 
L 373.144841 204.273327 
L 365.326391 207.20865 
L 345.936306 214.39517 
L 337.000741 217.97104 
L 328.08276 221.789861 
L 319.272666 225.828594 
L 310.680147 230.025452 
L 302.436674 234.281871 
L 293.544154 239.103958 
L 282.657394 245.281667 
L 269.308096 253.144756 
L 241.388444 269.6862 
L 232.654685 274.586419 
L 225.352623 278.472635 
L 217.776022 282.23957 
L 211.920378 284.925727 
L 205.924911 287.437582 
L 199.800445 289.719421 
L 195.652556 291.083137 
L 191.458418 292.298927 
L 187.223672 293.347439 
L 182.954653 294.209116 
L 178.658399 294.86452 
L 174.342635 295.2947 
L 170.015748 295.481601 
L 165.686753 295.408495 
L 161.365233 295.06044 
L 157.061265 294.42473 
L 152.785338 293.491335 
L 148.548246 292.253305 
L 144.36097 290.707118 
L 140.234555 288.852957 
L 136.179966 286.694888 
L 132.207957 284.24094 
L 128.328921 281.503067 
L 124.552754 278.496992 
L 120.888727 275.241934 
L 117.345365 271.760229 
L 113.930344 268.07686 
L 110.650405 264.21891 
L 107.511291 260.214969 
L 104.517703 256.094515 
L 101.673278 251.887295 
L 98.980592 247.622732 
L 95.229162 241.180464 
L 91.823398 234.763295 
L 88.759731 228.451702 
L 86.030582 222.314449 
L 83.625014 216.407565 
L 81.529433 210.774173 
L 79.190404 203.739913 
L 77.334263 197.287471 
L 75.918736 191.429375 
L 74.901521 186.155062 
L 74.241714 181.4373 
L 73.900783 177.237884 
L 73.843189 173.512324 
L 74.036689 170.213468 
L 74.452435 167.294144 
L 75.064899 164.708957 
L 75.851706 162.415422 
L 76.793398 160.374584 
L 77.873169 158.551265 
L 79.076599 156.914068 
L 80.736216 155.087295 
L 82.549966 153.461173 
L 84.501727 151.995921 
L 87.008127 150.403091 
L 90.137788 148.713049 
L 93.96284 146.92903 
L 99.092216 144.815516 
L 106.902484 141.881028 
L 126.987695 134.426602 
L 135.977569 130.812344 
L 144.105495 127.324856 
L 152.904342 123.295461 
L 161.485173 119.108663 
L 169.716794 114.86259 
L 178.595884 110.052148 
L 189.465439 103.888811 
L 202.792836 96.042238 
L 230.666393 79.52234 
L 239.386487 74.622542 
L 246.677707 70.733486 
L 254.243793 66.960116 
L 260.091934 64.266325 
L 266.08038 61.744093 
L 272.198461 59.448855 
L 276.342532 58.074415 
L 280.53326 56.846411 
L 284.765061 55.784165 
L 289.031653 54.907232 
L 293.326054 54.235069 
L 297.640592 53.78668 
L 301.966928 53.580207 
L 306.296096 53.632494 
L 310.618555 53.958642 
L 314.924262 54.571546 
L 319.202758 55.481459 
L 323.443268 56.695584 
L 327.634821 58.217722 
L 331.766374 60.047986 
L 335.826948 62.182617 
L 339.805769 64.613894 
L 343.692411 67.330166 
L 347.476933 70.315994 
L 351.150013 73.552421 
L 354.703062 77.017336 
L 358.128336 80.685944 
L 361.419018 84.531305 
L 364.569285 88.524924 
L 367.574354 92.63737 
L 370.430506 96.838895 
L 373.135081 101.100031 
L 376.904477 107.541211 
L 380.328143 113.961758 
L 383.409422 120.280634 
L 386.155702 126.428433 
L 388.57776 132.348453 
L 390.689071 137.99691 
L 393.047746 145.053191 
L 394.921911 151.528702 
L 396.353804 157.409879 
L 397.385755 162.706511 
L 398.058745 167.445291 
L 398.41141 171.664093 
L 398.479416 175.407235 
L 398.295134 178.721822 
L 397.887546 181.655064 
L 397.282305 184.25245 
L 396.501907 186.556592 
L 395.565918 188.60659 
L 394.49124 190.437769 
L 393.292384 192.081674 
L 391.637869 193.915414 
L 389.828661 195.547153 
L 387.880991 197.016881 
L 385.379037 198.613827 
L 382.254092 200.307255 
L 378.434017 202.093654 
L 373.310535 204.208395 
L 365.508448 207.142077 
L 345.444006 214.586302 
L 336.4642 218.193418 
L 328.345987 221.673318 
L 319.558361 225.693404 
L 310.989189 229.870172 
L 302.769393 234.105923 
L 293.903698 238.904744 
L 283.051308 245.053727 
L 269.745767 252.883779 
L 241.918245 269.381952 
L 233.211814 274.28121 
L 225.931444 278.172981 
L 218.375891 281.952632 
L 212.535274 284.653921 
L 206.553878 287.186382 
L 200.442218 289.494856 
L 194.213908 291.519271 
L 190.005121 292.679685 
L 185.757828 293.666098 
L 181.478606 294.458955 
L 177.174731 295.03894 
L 172.854159 295.387365 
L 168.525499 295.486581 
L 164.197968 295.320422 
L 159.881329 294.874666 
L 155.585811 294.137478 
L 151.322021 293.099847 
L 147.10083 291.755966 
L 142.933257 290.103563 
L 138.830334 288.14414 
L 134.80297 285.883124 
L 130.861811 283.329907 
L 127.017094 280.497762 
L 123.278514 277.403653 
L 119.655098 274.067919 
L 116.155089 270.513864 
L 112.785851 266.76726 
L 109.553788 262.855776 
L 106.464286 258.808379 
L 103.521682 254.654707 
L 100.729247 250.424463 
L 96.826725 243.999082 
L 93.270014 237.560409 
L 90.057492 231.193474 
L 87.183254 224.972342 
L 84.637746 218.958679 
L 82.408453 213.201222 
L 80.480582 207.736028 
L 78.35046 200.944065 
L 76.685496 194.742454 
L 75.443202 189.133164 
L 74.581717 184.097844 
L 74.061044 179.603992 
L 73.843857 175.610241 
L 73.895985 172.070594 
L 73.895985 172.070594 
" clip-path="url(#p3b5bfbb425)" style="fill: none; stroke: #1f77b4; stroke-width: 1.5; stroke-linecap: square"/>
   </g>
   <g id="patch_3">
    <path d="M 57.6 307.584 
L 57.6 41.472 
" style="fill: none; stroke: #000000; stroke-width: 0.8; stroke-linejoin: miter; stroke-linecap: square"/>
   </g>
   <g id="patch_4">
    <path d="M 414.72 307.584 
L 414.72 41.472 
" style="fill: none; stroke: #000000; stroke-width: 0.8; stroke-linejoin: miter; stroke-linecap: square"/>
   </g>
   <g id="patch_5">
    <path d="M 57.6 307.584 
L 414.72 307.584 
" style="fill: none; stroke: #000000; stroke-width: 0.8; stroke-linejoin: miter; stroke-linecap: square"/>
   </g>
   <g id="patch_6">
    <path d="M 57.6 41.472 
L 414.72 41.472 
" style="fill: none; stroke: #000000; stroke-width: 0.8; stroke-linejoin: miter; stroke-linecap: square"/>
   </g>
  </g>
 </g>
 <defs>
  <clipPath id="p3b5bfbb425">
   <rect x="57.6" y="41.472" width="357.12" height="266.112"/>
  </clipPath>
 </defs>
</svg>
