<?xml version="1.0" encoding="utf-8" standalone="no"?>
<!DOCTYPE svg PUBLIC "-//W3C//DTD SVG 1.1//EN"
  "http://www.w3.org/Graphics/SVG/1.1/DTD/svg11.dtd">
<svg xmlns:xlink="http://www.w3.org/1999/xlink" width="460.8pt" height="345.6pt" viewBox="0 0 460.8 345.6" xmlns="http://www.w3.org/2000/svg" version="1.1">
 <metadata>
  <rdf:RDF xmlns:dc="http://purl.org/dc/elements/1.1/" xmlns:cc="http://creativecommons.org/ns#" xmlns:rdf="http://www.w3.org/1999/02/22-rdf-syntax-ns#">
   <cc:Work>
    <dc:type rdf:resource="http://purl.org/dc/dcmitype/StillImage"/>
    <dc:date>2022-11-27T10:55:31.904926</dc:date>
    <dc:format>image/svg+xml</dc:format>
    <dc:creator>
     <cc:Agent>
      <dc:title>Matplotlib v3.6.1, https://matplotlib.org/</dc:title>
     </cc:Agent>
    </dc:creator>
   </cc:Work>
  </rdf:RDF>
 </metadata>
 <defs>
  <style type="text/css">*{stroke-linejoin: round; stroke-linecap: butt}</style>
 </defs>
 <g id="figure_1">
  <g id="patch_1">
   <path d="M 0 345.6 
L 460.8 345.6 
L 460.8 0 
L 0 0 
z
" style="fill: #ffffff"/>
  </g>
  <g id="axes_1">
   <g id="patch_2">
    <path d="M 57.6 307.584 
L 414.72 307.584 
L 414.72 41.472 
L 57.6 41.472 
z
" style="fill: #ffffff"/>
   </g>
   <g id="matplotlib.axis_1">
    <g id="xtick_1">
     <g id="line2d_1">
      <defs>
       <path id="m13e508702c" d="M 0 0 
L 0 3.5 
" style="stroke: #000000; stroke-width: 0.8"/>
      </defs>
      <g>
       <use xlink:href="#m13e508702c" x="73.832727" y="307.584" style="stroke: #000000; stroke-width: 0.8"/>
      </g>
     </g>
     <g id="text_1">
      <!-- 0 -->
      <g transform="translate(70.651477 322.182437) scale(0.1 -0.1)">
       <defs>
        <path id="DejaVuSans-30" d="M 2034 4250 
Q 1547 4250 1301 3770 
Q 1056 3291 1056 2328 
Q 1056 1369 1301 889 
Q 1547 409 2034 409 
Q 2525 409 2770 889 
Q 3016 1369 3016 2328 
Q 3016 3291 2770 3770 
Q 2525 4250 2034 4250 
z
M 2034 4750 
Q 2819 4750 3233 4129 
Q 3647 3509 3647 2328 
Q 3647 1150 3233 529 
Q 2819 -91 2034 -91 
Q 1250 -91 836 529 
Q 422 1150 422 2328 
Q 422 3509 836 4129 
Q 1250 4750 2034 4750 
z
" transform="scale(0.015625)"/>
       </defs>
       <use xlink:href="#DejaVuSans-30"/>
      </g>
     </g>
    </g>
    <g id="xtick_2">
     <g id="line2d_2">
      <g>
       <use xlink:href="#m13e508702c" x="138.776625" y="307.584" style="stroke: #000000; stroke-width: 0.8"/>
      </g>
     </g>
     <g id="text_2">
      <!-- 1000 -->
      <g transform="translate(126.051625 322.182437) scale(0.1 -0.1)">
       <defs>
        <path id="DejaVuSans-31" d="M 794 531 
L 1825 531 
L 1825 4091 
L 703 3866 
L 703 4441 
L 1819 4666 
L 2450 4666 
L 2450 531 
L 3481 531 
L 3481 0 
L 794 0 
L 794 531 
z
" transform="scale(0.015625)"/>
       </defs>
       <use xlink:href="#DejaVuSans-31"/>
       <use xlink:href="#DejaVuSans-30" x="63.623047"/>
       <use xlink:href="#DejaVuSans-30" x="127.246094"/>
       <use xlink:href="#DejaVuSans-30" x="190.869141"/>
      </g>
     </g>
    </g>
    <g id="xtick_3">
     <g id="line2d_3">
      <g>
       <use xlink:href="#m13e508702c" x="203.720523" y="307.584" style="stroke: #000000; stroke-width: 0.8"/>
      </g>
     </g>
     <g id="text_3">
      <!-- 2000 -->
      <g transform="translate(190.995523 322.182437) scale(0.1 -0.1)">
       <defs>
        <path id="DejaVuSans-32" d="M 1228 531 
L 3431 531 
L 3431 0 
L 469 0 
L 469 531 
Q 828 903 1448 1529 
Q 2069 2156 2228 2338 
Q 2531 2678 2651 2914 
Q 2772 3150 2772 3378 
Q 2772 3750 2511 3984 
Q 2250 4219 1831 4219 
Q 1534 4219 1204 4116 
Q 875 4013 500 3803 
L 500 4441 
Q 881 4594 1212 4672 
Q 1544 4750 1819 4750 
Q 2544 4750 2975 4387 
Q 3406 4025 3406 3419 
Q 3406 3131 3298 2873 
Q 3191 2616 2906 2266 
Q 2828 2175 2409 1742 
Q 1991 1309 1228 531 
z
" transform="scale(0.015625)"/>
       </defs>
       <use xlink:href="#DejaVuSans-32"/>
       <use xlink:href="#DejaVuSans-30" x="63.623047"/>
       <use xlink:href="#DejaVuSans-30" x="127.246094"/>
       <use xlink:href="#DejaVuSans-30" x="190.869141"/>
      </g>
     </g>
    </g>
    <g id="xtick_4">
     <g id="line2d_4">
      <g>
       <use xlink:href="#m13e508702c" x="268.664421" y="307.584" style="stroke: #000000; stroke-width: 0.8"/>
      </g>
     </g>
     <g id="text_4">
      <!-- 3000 -->
      <g transform="translate(255.939421 322.182437) scale(0.1 -0.1)">
       <defs>
        <path id="DejaVuSans-33" d="M 2597 2516 
Q 3050 2419 3304 2112 
Q 3559 1806 3559 1356 
Q 3559 666 3084 287 
Q 2609 -91 1734 -91 
Q 1441 -91 1130 -33 
Q 819 25 488 141 
L 488 750 
Q 750 597 1062 519 
Q 1375 441 1716 441 
Q 2309 441 2620 675 
Q 2931 909 2931 1356 
Q 2931 1769 2642 2001 
Q 2353 2234 1838 2234 
L 1294 2234 
L 1294 2753 
L 1863 2753 
Q 2328 2753 2575 2939 
Q 2822 3125 2822 3475 
Q 2822 3834 2567 4026 
Q 2313 4219 1838 4219 
Q 1578 4219 1281 4162 
Q 984 4106 628 3988 
L 628 4550 
Q 988 4650 1302 4700 
Q 1616 4750 1894 4750 
Q 2613 4750 3031 4423 
Q 3450 4097 3450 3541 
Q 3450 3153 3228 2886 
Q 3006 2619 2597 2516 
z
" transform="scale(0.015625)"/>
       </defs>
       <use xlink:href="#DejaVuSans-33"/>
       <use xlink:href="#DejaVuSans-30" x="63.623047"/>
       <use xlink:href="#DejaVuSans-30" x="127.246094"/>
       <use xlink:href="#DejaVuSans-30" x="190.869141"/>
      </g>
     </g>
    </g>
    <g id="xtick_5">
     <g id="line2d_5">
      <g>
       <use xlink:href="#m13e508702c" x="333.608319" y="307.584" style="stroke: #000000; stroke-width: 0.8"/>
      </g>
     </g>
     <g id="text_5">
      <!-- 4000 -->
      <g transform="translate(320.883319 322.182437) scale(0.1 -0.1)">
       <defs>
        <path id="DejaVuSans-34" d="M 2419 4116 
L 825 1625 
L 2419 1625 
L 2419 4116 
z
M 2253 4666 
L 3047 4666 
L 3047 1625 
L 3713 1625 
L 3713 1100 
L 3047 1100 
L 3047 0 
L 2419 0 
L 2419 1100 
L 313 1100 
L 313 1709 
L 2253 4666 
z
" transform="scale(0.015625)"/>
       </defs>
       <use xlink:href="#DejaVuSans-34"/>
       <use xlink:href="#DejaVuSans-30" x="63.623047"/>
       <use xlink:href="#DejaVuSans-30" x="127.246094"/>
       <use xlink:href="#DejaVuSans-30" x="190.869141"/>
      </g>
     </g>
    </g>
    <g id="xtick_6">
     <g id="line2d_6">
      <g>
       <use xlink:href="#m13e508702c" x="398.552217" y="307.584" style="stroke: #000000; stroke-width: 0.8"/>
      </g>
     </g>
     <g id="text_6">
      <!-- 5000 -->
      <g transform="translate(385.827217 322.182437) scale(0.1 -0.1)">
       <defs>
        <path id="DejaVuSans-35" d="M 691 4666 
L 3169 4666 
L 3169 4134 
L 1269 4134 
L 1269 2991 
Q 1406 3038 1543 3061 
Q 1681 3084 1819 3084 
Q 2600 3084 3056 2656 
Q 3513 2228 3513 1497 
Q 3513 744 3044 326 
Q 2575 -91 1722 -91 
Q 1428 -91 1123 -41 
Q 819 9 494 109 
L 494 744 
Q 775 591 1075 516 
Q 1375 441 1709 441 
Q 2250 441 2565 725 
Q 2881 1009 2881 1497 
Q 2881 1984 2565 2268 
Q 2250 2553 1709 2553 
Q 1456 2553 1204 2497 
Q 953 2441 691 2322 
L 691 4666 
z
" transform="scale(0.015625)"/>
       </defs>
       <use xlink:href="#DejaVuSans-35"/>
       <use xlink:href="#DejaVuSans-30" x="63.623047"/>
       <use xlink:href="#DejaVuSans-30" x="127.246094"/>
       <use xlink:href="#DejaVuSans-30" x="190.869141"/>
      </g>
     </g>
    </g>
   </g>
   <g id="matplotlib.axis_2">
    <g id="ytick_1">
     <g id="line2d_7">
      <defs>
       <path id="m0c6f2002ef" d="M 0 0 
L -3.5 0 
" style="stroke: #000000; stroke-width: 0.8"/>
      </defs>
      <g>
       <use xlink:href="#m0c6f2002ef" x="57.6" y="275.266392" style="stroke: #000000; stroke-width: 0.8"/>
      </g>
     </g>
     <g id="text_7">
      <!-- −15 -->
      <g transform="translate(29.495313 279.06561) scale(0.1 -0.1)">
       <defs>
        <path id="DejaVuSans-2212" d="M 678 2272 
L 4684 2272 
L 4684 1741 
L 678 1741 
L 678 2272 
z
" transform="scale(0.015625)"/>
       </defs>
       <use xlink:href="#DejaVuSans-2212"/>
       <use xlink:href="#DejaVuSans-31" x="83.789062"/>
       <use xlink:href="#DejaVuSans-35" x="147.412109"/>
      </g>
     </g>
    </g>
    <g id="ytick_2">
     <g id="line2d_8">
      <g>
       <use xlink:href="#m0c6f2002ef" x="57.6" y="242.175745" style="stroke: #000000; stroke-width: 0.8"/>
      </g>
     </g>
     <g id="text_8">
      <!-- −10 -->
      <g transform="translate(29.495313 245.974964) scale(0.1 -0.1)">
       <use xlink:href="#DejaVuSans-2212"/>
       <use xlink:href="#DejaVuSans-31" x="83.789062"/>
       <use xlink:href="#DejaVuSans-30" x="147.412109"/>
      </g>
     </g>
    </g>
    <g id="ytick_3">
     <g id="line2d_9">
      <g>
       <use xlink:href="#m0c6f2002ef" x="57.6" y="209.085099" style="stroke: #000000; stroke-width: 0.8"/>
      </g>
     </g>
     <g id="text_9">
      <!-- −5 -->
      <g transform="translate(35.857813 212.884318) scale(0.1 -0.1)">
       <use xlink:href="#DejaVuSans-2212"/>
       <use xlink:href="#DejaVuSans-35" x="83.789062"/>
      </g>
     </g>
    </g>
    <g id="ytick_4">
     <g id="line2d_10">
      <g>
       <use xlink:href="#m0c6f2002ef" x="57.6" y="175.994453" style="stroke: #000000; stroke-width: 0.8"/>
      </g>
     </g>
     <g id="text_10">
      <!-- 0 -->
      <g transform="translate(44.2375 179.793672) scale(0.1 -0.1)">
       <use xlink:href="#DejaVuSans-30"/>
      </g>
     </g>
    </g>
    <g id="ytick_5">
     <g id="line2d_11">
      <g>
       <use xlink:href="#m0c6f2002ef" x="57.6" y="142.903807" style="stroke: #000000; stroke-width: 0.8"/>
      </g>
     </g>
     <g id="text_11">
      <!-- 5 -->
      <g transform="translate(44.2375 146.703026) scale(0.1 -0.1)">
       <use xlink:href="#DejaVuSans-35"/>
      </g>
     </g>
    </g>
    <g id="ytick_6">
     <g id="line2d_12">
      <g>
       <use xlink:href="#m0c6f2002ef" x="57.6" y="109.813161" style="stroke: #000000; stroke-width: 0.8"/>
      </g>
     </g>
     <g id="text_12">
      <!-- 10 -->
      <g transform="translate(37.875 113.61238) scale(0.1 -0.1)">
       <use xlink:href="#DejaVuSans-31"/>
       <use xlink:href="#DejaVuSans-30" x="63.623047"/>
      </g>
     </g>
    </g>
    <g id="ytick_7">
     <g id="line2d_13">
      <g>
       <use xlink:href="#m0c6f2002ef" x="57.6" y="76.722515" style="stroke: #000000; stroke-width: 0.8"/>
      </g>
     </g>
     <g id="text_13">
      <!-- 15 -->
      <g transform="translate(37.875 80.521734) scale(0.1 -0.1)">
       <use xlink:href="#DejaVuSans-31"/>
       <use xlink:href="#DejaVuSans-35" x="63.623047"/>
      </g>
     </g>
    </g>
    <g id="ytick_8">
     <g id="line2d_14">
      <g>
       <use xlink:href="#m0c6f2002ef" x="57.6" y="43.631869" style="stroke: #000000; stroke-width: 0.8"/>
      </g>
     </g>
     <g id="text_14">
      <!-- 20 -->
      <g transform="translate(37.875 47.431088) scale(0.1 -0.1)">
       <use xlink:href="#DejaVuSans-32"/>
       <use xlink:href="#DejaVuSans-30" x="63.623047"/>
      </g>
     </g>
    </g>
   </g>
   <g id="line2d_15">
    <path d="M 73.832727 162.758195 
L 73.962615 162.333342 
L 74.157447 160.261139 
L 74.417222 154.97457 
L 74.741942 143.73252 
L 75.131605 121.316764 
L 75.975876 63.993595 
L 76.04082 64.444017 
L 76.170708 69.343706 
L 76.430483 92.140554 
L 77.144866 162.820606 
L 77.534529 181.693855 
L 77.989137 193.335348 
L 78.768464 210.501988 
L 79.223071 226.369708 
L 80.132285 261.860096 
L 80.262173 262.64852 
L 80.392061 261.339597 
L 80.586893 255.615945 
L 81.0415 232.049885 
L 81.561051 208.100267 
L 81.950715 198.870749 
L 82.21049 196.38666 
L 82.340378 196.035013 
L 82.405322 196.057546 
L 82.53521 196.47535 
L 82.730041 197.992446 
L 83.054761 202.888288 
L 83.444424 213.127274 
L 83.899031 232.044244 
L 84.678358 266.288554 
L 84.808246 267.051087 
L 84.938134 265.259537 
L 85.132966 258.065906 
L 85.717461 221.988269 
L 86.172068 201.00066 
L 86.561731 192.228884 
L 86.821507 189.883161 
L 87.016339 189.460189 
L 87.146226 189.706331 
L 87.341058 190.792534 
L 87.600834 193.557102 
L 87.925553 199.386039 
L 88.315216 210.932226 
L 88.769824 232.725917 
L 89.549151 273.398155 
L 89.614094 273.945251 
L 89.679038 273.663588 
L 89.808926 270.573251 
L 90.068702 255.767652 
L 90.977916 194.679458 
L 91.36758 183.752363 
L 91.757243 178.88504 
L 92.081963 177.139678 
L 92.406682 176.351076 
L 92.796345 175.927665 
L 93.965336 174.974127 
L 94.354999 174.199925 
L 94.679718 173.075864 
L 95.004438 171.183086 
L 95.329157 167.970793 
L 95.653877 162.49249 
L 95.978596 153.157855 
L 96.303316 137.499185 
L 96.692979 106.544332 
L 97.277474 54.860412 
L 97.342418 53.568 
L 97.407362 54.006501 
L 97.53725 60.219135 
L 97.797026 89.518835 
L 98.446465 169.082497 
L 98.836128 192.600141 
L 99.290735 206.803191 
L 101.174108 249.040134 
L 101.239052 249.212148 
L 101.303996 249.14171 
L 101.433884 248.270135 
L 101.693659 243.862371 
L 102.343098 225.761173 
L 102.797706 216.364863 
L 103.122425 213.506572 
L 103.252313 213.279018 
L 103.382201 213.552709 
L 103.577032 214.865451 
L 103.901752 219.314294 
L 104.356359 229.614569 
L 105.20063 249.661249 
L 105.395462 250.639383 
L 105.525349 249.975267 
L 105.720181 247.056878 
L 106.109845 236.321247 
L 106.824227 216.680062 
L 107.148947 212.521347 
L 107.343779 211.695282 
L 107.408722 211.686221 
L 107.53861 212.052897 
L 107.733442 213.53089 
L 108.058161 218.333656 
L 108.512769 229.368038 
L 109.357039 251.111932 
L 109.551871 252.151818 
L 109.681759 251.38619 
L 109.876591 248.114344 
L 110.266254 236.265921 
L 110.915693 216.456036 
L 111.305356 210.740155 
L 111.500188 209.859817 
L 111.565132 209.84233 
L 111.69502 210.204224 
L 111.889851 211.703183 
L 112.214571 216.629252 
L 112.669178 228.163047 
L 113.578393 253.177082 
L 113.708281 253.89736 
L 113.773224 253.770755 
L 113.903112 252.525991 
L 114.162888 246.465673 
L 115.396822 209.62295 
L 115.656598 207.786629 
L 115.786485 207.73265 
L 115.916373 208.218976 
L 116.111205 209.918291 
L 116.435924 215.240283 
L 116.890532 227.610281 
L 117.799746 255.103645 
L 117.929634 255.916988 
L 117.994578 255.775971 
L 118.124466 254.3761 
L 118.384241 247.570332 
L 119.553231 208.196684 
L 119.813007 205.551963 
L 120.007839 205.157034 
L 120.137726 205.587212 
L 120.332558 207.215638 
L 120.657278 212.473209 
L 121.046941 222.938354 
L 122.215931 258.327597 
L 122.280875 258.087519 
L 122.410763 256.333856 
L 122.670538 248.34872 
L 123.774585 206.367915 
L 124.099304 202.474488 
L 124.294136 202.011116 
L 124.424024 202.395468 
L 124.618855 203.948041 
L 124.943575 209.079432 
L 125.333238 219.578207 
L 125.917733 243.181494 
L 126.372341 259.302678 
L 126.567172 261.300614 
L 126.69706 260.223291 
L 126.891892 255.056986 
L 127.281555 236.427203 
L 127.86605 209.80235 
L 128.255714 200.711108 
L 128.515489 198.284661 
L 128.645377 197.974251 
L 128.775265 198.200061 
L 128.970097 199.478823 
L 129.229872 202.888563 
L 129.554592 210.032643 
L 130.009199 226.088619 
L 130.983357 265.033128 
L 131.048301 265.160102 
L 131.178189 263.636766 
L 131.373021 257.164656 
L 131.892572 227.247571 
L 132.412123 203.301364 
L 132.801787 194.798425 
L 133.061562 192.650999 
L 133.19145 192.39336 
L 133.321338 192.606193 
L 133.516169 193.740094 
L 133.775945 196.734886 
L 134.100664 203.084362 
L 134.490328 215.459776 
L 134.944935 237.680864 
L 135.594374 269.497854 
L 135.724262 270.796328 
L 135.85415 269.149679 
L 136.048981 261.375278 
L 136.568533 225.305568 
L 137.088084 197.565457 
L 137.477747 187.652222 
L 137.802467 184.14343 
L 138.062242 183.261945 
L 138.19213 183.281339 
L 138.386962 183.787483 
L 138.646737 185.297267 
L 138.971457 188.660029 
L 139.36112 195.669515 
L 139.750784 207.772668 
L 140.140447 227.59448 
L 141.049662 281.6511 
L 141.114605 281.250684 
L 141.244493 277.159539 
L 141.504269 258.069967 
L 142.283596 192.090501 
L 142.673259 176.516646 
L 143.127866 167.306905 
L 144.037081 152.159632 
L 144.426744 140.457912 
L 144.881352 119.144851 
L 145.660678 80.391544 
L 145.725622 79.86753 
L 145.790566 80.118007 
L 145.920454 82.980981 
L 146.18023 96.826594 
L 147.089444 155.24086 
L 147.479107 165.803711 
L 147.803827 169.764782 
L 148.063603 171.065129 
L 148.258434 171.33556 
L 148.388322 171.260597 
L 148.583154 170.82001 
L 148.842929 169.646346 
L 149.167649 167.103743 
L 149.492368 162.900034 
L 149.882032 154.347598 
L 150.271695 139.497417 
L 150.661358 115.347368 
L 151.375741 66.805867 
L 151.440685 66.242795 
L 151.505629 66.914366 
L 151.635517 71.981611 
L 151.895293 94.026959 
L 152.609675 161.204418 
L 152.999339 179.185968 
L 153.453946 190.144335 
L 154.298217 207.634545 
L 154.752824 223.673917 
L 155.791926 265.767353 
L 155.85687 265.732901 
L 155.986758 263.83173 
L 156.246534 253.475111 
L 157.285636 200.116235 
L 157.610356 193.716264 
L 157.870131 191.642099 
L 158.000019 191.397452 
L 158.129907 191.60717 
L 158.324738 192.7067 
L 158.584514 195.602321 
L 158.909233 201.749954 
L 159.298897 213.81671 
L 159.753504 235.898354 
L 160.467887 271.135912 
L 160.532831 271.795937 
L 160.597775 271.696517 
L 160.727663 269.159147 
L 160.987438 255.894298 
L 161.961597 195.163807 
L 162.35126 185.704137 
L 162.67598 182.310999 
L 162.935755 181.333676 
L 163.130587 181.276095 
L 163.325419 181.672671 
L 163.585194 182.84713 
L 163.909914 185.462113 
L 164.234633 189.807215 
L 164.624296 198.623177 
L 165.01396 213.820534 
L 165.468567 243.16106 
L 166.053062 283.139955 
L 166.18295 284.663459 
L 166.312838 281.406932 
L 166.572613 262.244394 
L 167.416884 186.979734 
L 167.806547 171.572339 
L 168.261155 161.905753 
L 168.975538 148.002173 
L 169.430145 133.287205 
L 170.01464 104.723469 
L 170.469247 86.066497 
L 170.599135 84.686108 
L 170.664079 84.942878 
L 170.793967 87.403851 
L 171.053742 99.073139 
L 172.027901 152.279977 
L 172.417564 160.481054 
L 172.67734 162.573589 
L 172.872172 162.859998 
L 173.002059 162.541133 
L 173.196891 161.364118 
L 173.521611 157.530422 
L 173.84633 150.96027 
L 174.235993 138.189432 
L 174.690601 114.676421 
L 175.34004 79.243139 
L 175.469927 77.644448 
L 175.534871 78.092615 
L 175.664759 81.544816 
L 175.924535 97.000739 
L 176.768805 155.567417 
L 177.158469 167.710171 
L 177.548132 173.273397 
L 177.937796 175.664372 
L 178.392403 176.978478 
L 179.041842 178.672745 
L 179.431505 180.461513 
L 179.756225 182.955518 
L 180.080944 187.037388 
L 180.405664 193.769956 
L 180.730383 204.8423 
L 181.120047 227.133552 
L 182.029261 292.53561 
L 182.159149 288.600102 
L 182.418925 265.054699 
L 183.198251 182.107614 
L 183.587915 163.238399 
L 184.107466 149.732974 
L 184.821849 131.944748 
L 186.055783 95.411688 
L 186.120727 95.473368 
L 186.250614 96.76502 
L 186.51039 103.581426 
L 187.744324 145.368037 
L 188.0041 147.581565 
L 188.133988 147.786418 
L 188.263875 147.436978 
L 188.458707 145.925234 
L 188.783427 140.852787 
L 189.17309 130.540341 
L 189.887473 103.145458 
L 190.212192 94.084461 
L 190.34208 92.824393 
L 190.407024 92.838116 
L 190.536912 94.204589 
L 190.796687 101.810309 
L 191.965677 147.180177 
L 192.290397 150.805962 
L 192.420285 151.163702 
L 192.485229 151.13184 
L 192.615116 150.66777 
L 192.809948 149.010206 
L 193.134668 143.719222 
L 193.524331 132.973788 
L 194.108826 108.610674 
L 194.563433 91.70176 
L 194.758265 89.560312 
L 194.823209 89.85347 
L 194.953097 92.00282 
L 195.212872 101.729127 
L 196.251975 148.855811 
L 196.576694 154.233955 
L 196.83647 155.581599 
L 196.901414 155.573134 
L 197.031302 155.179216 
L 197.226133 153.688944 
L 197.550853 148.822472 
L 197.940516 138.618557 
L 198.395123 119.806388 
L 199.17445 86.024 
L 199.304338 85.308082 
L 199.434226 87.108557 
L 199.629057 94.240823 
L 200.213553 129.891273 
L 200.66816 150.650759 
L 201.057823 159.311861 
L 201.317599 161.590122 
L 201.51243 161.953127 
L 201.642318 161.659117 
L 201.83715 160.485129 
L 202.161869 156.579144 
L 202.486589 149.859876 
L 202.876252 136.863611 
L 203.33086 113.306896 
L 203.980299 79.723511 
L 204.110186 78.713704 
L 204.240074 80.96594 
L 204.434906 90.064006 
L 205.66884 163.916957 
L 206.058503 170.674223 
L 206.383223 173.053413 
L 206.707942 173.923989 
L 206.902774 174.027777 
L 207.097606 173.914544 
L 207.357381 173.476228 
L 207.682101 172.442945 
L 208.00682 170.684801 
L 208.33154 167.792934 
L 208.656259 163.045271 
L 208.980979 155.240811 
L 209.305698 142.5214 
L 209.695362 117.575969 
L 210.474688 60.384571 
L 210.539632 60.720271 
L 210.66952 65.838119 
L 210.929296 90.538244 
L 211.643679 166.353232 
L 212.033342 186.219211 
L 212.487949 198.646911 
L 213.33222 219.342331 
L 214.046603 245.789014 
L 214.436266 256.61726 
L 214.566154 257.770829 
L 214.631098 257.74501 
L 214.760986 256.445273 
L 215.020761 249.30589 
L 216.254695 205.302953 
L 216.514471 202.908515 
L 216.644359 202.625749 
L 216.774246 202.899869 
L 216.969078 204.298134 
L 217.228854 207.947578 
L 217.618517 217.313811 
L 218.138068 236.767833 
L 218.722563 258.437857 
L 218.917395 260.69871 
L 218.982339 260.53336 
L 219.112227 258.760759 
L 219.372002 250.101411 
L 220.476049 203.955335 
L 220.800768 199.536892 
L 220.9956 198.801706 
L 221.060544 198.835823 
L 221.190432 199.294819 
L 221.385263 200.920462 
L 221.709983 206.109699 
L 222.099646 216.765315 
L 222.619197 238.729744 
L 223.203692 262.605398 
L 223.398524 264.322902 
L 223.528412 262.662306 
L 223.723244 256.16759 
L 224.242795 226.984927 
L 224.762346 203.826722 
L 225.152009 195.691264 
L 225.411785 193.74609 
L 225.541673 193.592631 
L 225.67156 193.917809 
L 225.866392 195.244228 
L 226.191112 199.675346 
L 226.580775 209.16206 
L 227.035382 227.432376 
L 227.944597 269.2792 
L 228.009541 269.564415 
L 228.139429 268.004189 
L 228.33426 260.60261 
L 228.853811 225.951139 
L 229.373363 198.943504 
L 229.763026 189.282627 
L 230.087746 186.013386 
L 230.282577 185.435051 
L 230.412465 185.490969 
L 230.607297 186.150238 
L 230.867072 188.049473 
L 231.191792 192.232517 
L 231.581455 200.83986 
L 231.971119 215.31265 
L 232.425726 242.062643 
L 233.010221 277.089019 
L 233.140109 278.720563 
L 233.269997 276.429785 
L 233.464828 266.016195 
L 234.633818 183.631801 
L 235.023482 174.503364 
L 235.543033 168.081997 
L 236.127528 160.804364 
L 236.517191 152.704633 
L 236.906855 139.461969 
L 237.361462 114.71904 
L 238.010901 76.159398 
L 238.140789 74.419641 
L 238.205733 74.948067 
L 238.335621 78.867883 
L 238.595396 96.147121 
L 239.439667 159.214024 
L 239.82933 172.014282 
L 240.218994 178.363761 
L 241.517872 193.676224 
L 241.907535 204.096293 
L 242.297198 221.219775 
L 242.81675 256.06145 
L 243.206413 278.334013 
L 243.336301 280.151191 
L 243.466189 277.863879 
L 243.66102 267.101504 
L 244.83001 181.974555 
L 245.219674 172.492518 
L 245.804169 164.539957 
L 246.258776 157.663416 
L 246.64844 148.354178 
L 247.038103 133.543612 
L 247.557654 103.450176 
L 248.012261 79.324763 
L 248.142149 77.238873 
L 248.207093 77.443984 
L 248.336981 80.460953 
L 248.596756 95.453765 
L 249.505971 157.988884 
L 249.895634 169.222807 
L 250.285298 174.375578 
L 250.674961 176.750466 
L 251.779007 181.671533 
L 252.168671 185.41214 
L 252.49339 190.657724 
L 252.81811 199.170015 
L 253.207773 216.378951 
L 253.66238 249.859343 
L 254.181932 288.13325 
L 254.246876 289.425381 
L 254.311819 289.374263 
L 254.441707 285.07619 
L 254.701483 262.391807 
L 255.48081 184.522366 
L 255.870473 166.710521 
L 256.390024 154.010792 
L 257.039463 138.870122 
L 257.559014 120.317403 
L 258.273397 93.414291 
L 258.468229 91.442566 
L 258.533173 91.709145 
L 258.663061 93.672575 
L 258.922836 102.592505 
L 259.961939 146.796445 
L 260.286658 151.883015 
L 260.48149 152.951656 
L 260.546434 153.019566 
L 260.611378 152.952473 
L 260.741265 152.429269 
L 261.001041 149.888548 
L 261.32576 143.889583 
L 261.715424 132.150859 
L 262.299919 106.04268 
L 262.754526 89.153517 
L 262.884414 87.792921 
L 262.949358 87.936053 
L 263.079246 89.925294 
L 263.339021 99.92838 
L 264.378124 150.365279 
L 264.702843 156.314269 
L 264.962619 158.061229 
L 265.092507 158.126659 
L 265.222394 157.716596 
L 265.417226 156.261989 
L 265.741945 151.592164 
L 266.131609 141.742933 
L 266.586216 123.001682 
L 267.430487 83.386744 
L 267.495431 82.74112 
L 267.560375 82.781834 
L 267.690262 84.980871 
L 267.950038 96.891744 
L 268.98914 155.848925 
L 269.378804 163.680542 
L 269.638579 165.739029 
L 269.833411 166.142948 
L 269.963299 165.975736 
L 270.158131 165.143872 
L 270.417906 162.977785 
L 270.742626 158.346355 
L 271.132289 148.930048 
L 271.521952 133.293523 
L 272.041504 100.797904 
L 272.496111 75.381487 
L 272.625999 73.810595 
L 272.755886 76.09344 
L 272.950718 86.36542 
L 274.119708 167.723423 
L 274.509372 176.720842 
L 274.963979 182.22981 
L 275.613418 189.483579 
L 276.003081 196.774562 
L 276.392745 208.808946 
L 276.782408 228.027897 
L 277.691623 278.715143 
L 277.756567 278.392286 
L 277.886454 274.757157 
L 278.14623 257.43195 
L 278.990501 192.161695 
L 279.380164 178.773164 
L 279.769827 171.975128 
L 280.938818 156.310756 
L 281.328481 145.347 
L 281.718144 127.772847 
L 282.692303 74.455197 
L 282.757247 74.677531 
L 282.887135 77.998127 
L 283.14691 94.443026 
L 283.991181 158.256288 
L 284.380844 171.535094 
L 284.770508 178.113475 
L 285.419947 184.34699 
L 285.874554 189.828188 
L 286.264217 197.662496 
L 286.653881 210.739494 
L 287.043544 231.568552 
L 287.887815 280.132866 
L 287.952759 279.85669 
L 288.082646 276.166836 
L 288.342422 258.21633 
L 289.186693 190.744852 
L 289.576356 176.961246 
L 290.030963 168.880399 
L 290.875234 156.80144 
L 291.264897 146.979246 
L 291.654561 131.409751 
L 292.239056 96.417602 
L 292.628719 78.267126 
L 292.758607 77.297136 
L 292.888495 79.769424 
L 293.14827 93.950682 
L 294.122429 159.700861 
L 294.512092 170.026309 
L 294.901756 174.721565 
L 295.291419 176.9145 
L 296.330521 181.45281 
L 296.720185 185.037681 
L 297.044904 190.060119 
L 297.369624 198.213505 
L 297.759287 214.745837 
L 298.148951 241.818874 
L 298.798389 289.076266 
L 298.863333 289.634011 
L 298.993221 286.566453 
L 299.188053 272.287464 
L 300.227155 175.421561 
L 300.616819 161.802587 
L 302.045584 124.013453 
L 302.889855 92.789364 
L 303.019743 91.557218 
L 303.084687 91.632132 
L 303.214575 93.211543 
L 303.47435 101.507864 
L 304.64334 148.817266 
L 304.96806 152.506285 
L 305.097948 152.890388 
L 305.162891 152.874189 
L 305.292779 152.447966 
L 305.487611 150.86554 
L 305.81233 145.741696 
L 306.201994 135.177462 
L 306.721545 113.4009 
L 307.30604 89.698225 
L 307.500872 87.938652 
L 307.63076 89.53331 
L 307.825591 95.889733 
L 308.345142 124.728505 
L 308.864694 147.779683 
L 309.254357 155.904005 
L 309.514133 157.836917 
L 309.64402 157.978862 
L 309.773908 157.637595 
L 309.96874 156.27742 
L 310.293459 151.762281 
L 310.683123 142.133811 
L 311.13773 123.716127 
L 312.046945 83.00274 
L 312.111889 82.882428 
L 312.241776 84.742645 
L 312.436608 92.441429 
L 313.021103 131.004828 
L 313.47571 153.102666 
L 313.865374 162.379021 
L 314.190093 165.409443 
L 314.384925 165.850331 
L 314.514813 165.696387 
L 314.709644 164.870264 
L 314.96942 162.689762 
L 315.29414 158.010324 
L 315.683803 148.498681 
L 316.073466 132.749357 
L 316.593018 100.291589 
L 317.047625 75.514799 
L 317.177513 74.20186 
L 317.3074 76.709269 
L 317.502232 87.172756 
L 318.671222 167.543833 
L 319.060886 176.32904 
L 319.515493 181.635045 
L 320.164932 188.438646 
L 320.554595 195.236526 
L 320.944259 206.520181 
L 321.333922 224.819589 
L 322.308081 279.551742 
L 322.373024 279.005429 
L 322.502912 274.850727 
L 322.762688 256.500847 
L 323.542015 193.806256 
L 323.931678 178.980359 
L 324.321341 171.397139 
L 325.490332 154.291043 
L 325.879995 142.583573 
L 326.334602 120.451563 
L 327.113929 76.929278 
L 327.178873 76.141298 
L 327.243817 76.232514 
L 327.373705 79.131741 
L 327.63348 94.361962 
L 328.542695 158.911657 
L 328.932358 170.572978 
L 329.322021 176.11809 
L 329.776629 179.462034 
L 330.426068 184.059666 
L 330.815731 188.865014 
L 331.205395 197.109936 
L 331.595058 211.301637 
L 331.984721 234.402782 
L 332.764048 284.650361 
L 332.828992 284.593232 
L 332.95888 280.84137 
L 333.218655 260.958331 
L 333.997982 189.844107 
L 334.387646 173.032811 
L 334.842253 162.748686 
L 335.62158 147.566348 
L 336.076187 132.626193 
L 336.660682 103.906629 
L 337.115289 85.826631 
L 337.245177 84.747725 
L 337.375065 86.227693 
L 337.569897 93.052741 
L 338.024504 120.98475 
L 338.544055 148.324309 
L 338.933718 158.725316 
L 339.258438 162.25616 
L 339.45327 162.785458 
L 339.583157 162.607311 
L 339.777989 161.625972 
L 340.037765 159.020703 
L 340.362484 153.449657 
L 340.752148 142.33241 
L 341.206755 121.104241 
L 342.051025 77.923615 
L 342.115969 77.801333 
L 342.245857 80.111924 
L 342.440689 89.488732 
L 343.609679 163.242901 
L 343.999342 171.207271 
L 344.389006 174.653523 
L 344.778669 176.137375 
L 345.493052 177.612787 
L 345.882715 178.71459 
L 346.272379 180.593155 
L 346.597098 183.253999 
L 346.921818 187.645325 
L 347.246537 194.932072 
L 347.571257 206.956288 
L 347.96092 231.066907 
L 348.805191 293.583649 
L 348.935079 290.0294 
L 349.12991 273.993772 
L 350.104069 173.739608 
L 350.493732 158.080435 
L 351.143171 142.687715 
L 351.727666 126.581693 
L 352.701825 97.347674 
L 352.831713 96.663976 
L 352.896656 96.857412 
L 353.026544 98.32755 
L 353.28632 105.111318 
L 354.45531 143.346314 
L 354.715086 145.826905 
L 354.844973 146.162555 
L 354.909917 146.11888 
L 355.039805 145.625626 
L 355.234637 143.907447 
L 355.559356 138.512668 
L 355.94902 127.948683 
L 357.053066 94.371498 
L 357.11801 94.357597 
L 357.247898 95.564298 
L 357.442729 100.278079 
L 357.897337 119.391862 
L 358.481832 141.189425 
L 358.806551 147.231864 
L 359.066327 149.048513 
L 359.131271 149.129678 
L 359.196215 149.071322 
L 359.326102 148.550638 
L 359.585878 145.956959 
L 359.910597 139.838889 
L 360.365205 125.783481 
L 361.339363 91.826779 
L 361.404307 91.512223 
L 361.469251 91.667605 
L 361.599139 93.40477 
L 361.858914 101.947557 
L 362.962961 147.75959 
L 363.28768 152.160697 
L 363.482512 152.885642 
L 363.547456 152.847487 
L 363.677343 152.379095 
L 363.872175 150.735591 
L 364.196895 145.507127 
L 364.586558 134.802847 
L 365.106109 112.878341 
L 365.690604 89.48721 
L 365.820492 87.951601 
L 365.885436 87.995653 
L 366.015324 89.778101 
L 366.275099 99.420989 
L 367.379146 151.538549 
L 367.703865 156.703233 
L 367.963641 157.96584 
L 368.028585 157.952992 
L 368.158472 157.571807 
L 368.353304 156.154016 
L 368.678024 151.537685 
L 369.067687 141.760148 
L 369.522294 123.140672 
L 370.366565 83.623225 
L 370.496453 82.94911 
L 370.626341 85.05591 
L 370.886116 96.763664 
L 371.925218 155.52635 
L 372.314882 163.38242 
L 372.574657 165.437051 
L 372.769489 165.824336 
L 372.899377 165.638799 
L 373.094209 164.767473 
L 373.353984 162.523131 
L 373.678704 157.742957 
L 374.068367 148.053892 
L 374.458031 132.051663 
L 374.977582 99.35433 
L 375.432189 75.239327 
L 375.562077 74.313842 
L 375.691965 77.220878 
L 375.95174 93.151494 
L 376.860955 160.766329 
L 377.250618 172.959138 
L 377.640282 179.060916 
L 378.809272 192.707407 
L 379.198935 202.328439 
L 379.588598 218.183713 
L 380.043206 246.778055 
L 380.562757 277.955243 
L 380.692645 279.613816 
L 380.822533 277.22977 
L 381.017364 266.478342 
L 382.186354 182.491322 
L 382.576018 173.187856 
L 383.095569 166.329232 
L 383.61512 159.140662 
L 384.004784 150.457126 
L 384.394447 136.487331 
L 384.849054 111.263181 
L 385.433549 78.171799 
L 385.563437 76.22104 
L 385.628381 76.54747 
L 385.758269 79.89828 
L 386.018044 95.727484 
L 386.862315 156.677153 
L 387.251978 169.369339 
L 387.641642 175.409283 
L 388.096249 178.86899 
L 388.810632 183.631828 
L 389.200295 188.213784 
L 389.589959 196.093007 
L 389.979622 209.719789 
L 390.369285 232.156754 
L 391.148612 284.749001 
L 391.213556 285.259371 
L 391.2785 284.551263 
L 391.408388 279.468612 
L 391.668163 257.607456 
L 392.382546 191.156303 
L 392.77221 173.354233 
L 393.226817 162.543456 
L 394.071088 145.45812 
L 394.525695 129.670648 
L 395.629741 85.467049 
L 395.759629 86.90806 
L 395.954461 93.5394 
L 396.409068 120.762499 
L 396.928619 147.592595 
L 397.318283 157.824627 
L 397.643002 161.230433 
L 397.837834 161.661411 
L 397.967722 161.401298 
L 398.162553 160.265337 
L 398.422329 157.380549 
L 398.487273 156.401528 
L 398.487273 156.401528 
" clip-path="url(#p1413f958dd)" style="fill: none; stroke: #1f77b4; stroke-width: 1.5; stroke-linecap: square"/>
   </g>
   <g id="line2d_16">
    <path d="M 73.832727 162.758195 
L 73.962615 162.333587 
L 74.157447 160.262558 
L 74.417222 154.979038 
L 74.741942 143.743864 
L 75.131605 121.342274 
L 75.975876 64.012819 
L 76.04082 64.454803 
L 76.170708 69.335906 
L 76.430483 92.100879 
L 77.144866 162.774955 
L 77.534529 181.656822 
L 77.989137 193.300208 
L 78.768464 210.452933 
L 79.223071 226.310811 
L 80.132285 261.865892 
L 80.262173 262.675292 
L 80.392061 261.385784 
L 80.586893 255.6831 
L 81.0415 232.114505 
L 81.561051 208.118878 
L 81.950715 198.859563 
L 82.21049 196.360069 
L 82.340378 196.001494 
L 82.405322 196.020653 
L 82.53521 196.431741 
L 82.730041 197.938437 
L 83.054761 202.814632 
L 83.444424 213.025069 
L 83.899031 231.912832 
L 84.678358 266.282168 
L 84.808246 267.094891 
L 84.938134 265.351606 
L 85.132966 258.212637 
L 85.652517 226.067227 
L 86.172068 201.046809 
L 86.561731 192.219184 
L 86.821507 189.845957 
L 87.016339 189.404851 
L 87.146226 189.639124 
L 87.341058 190.706626 
L 87.600834 193.442162 
L 87.925553 199.223535 
L 88.315216 210.690866 
L 88.769824 232.384123 
L 89.549151 273.370036 
L 89.614094 273.989922 
L 89.679038 273.782435 
L 89.808926 270.832788 
L 90.068702 256.209541 
L 90.977916 194.839276 
L 91.36758 183.779617 
L 91.757243 178.833862 
L 92.081963 177.041852 
L 92.471626 176.098427 
L 92.991177 175.516942 
L 93.575672 174.826637 
L 93.965336 173.985717 
L 94.290055 172.790216 
L 94.614775 170.802929 
L 94.939494 167.466557 
L 95.264214 161.832243 
L 95.588933 152.322464 
L 95.913653 136.53191 
L 96.303316 105.773382 
L 96.887811 56.215088 
L 96.952755 55.16967 
L 97.017699 55.795608 
L 97.147587 62.149438 
L 97.407362 90.81508 
L 98.056801 167.906689 
L 98.446465 190.797494 
L 98.901072 204.746951 
L 100.070062 234.68048 
L 100.654557 249.387385 
L 100.849389 251.181474 
L 100.914333 251.246227 
L 101.04422 250.531399 
L 101.239052 247.444302 
L 101.628716 236.203046 
L 102.343098 215.93522 
L 102.667818 211.701841 
L 102.86265 210.867955 
L 102.927594 210.860603 
L 103.057481 211.23614 
L 103.252313 212.740289 
L 103.577032 217.627324 
L 104.03164 228.924095 
L 104.87591 251.722742 
L 105.070742 252.93881 
L 105.20063 252.220724 
L 105.395462 248.898962 
L 105.785125 236.605443 
L 106.499508 214.533115 
L 106.824227 209.905279 
L 107.019059 208.924342 
L 107.148947 208.968204 
L 107.343779 210.022456 
L 107.603554 213.18566 
L 107.993218 221.503499 
L 108.642657 242.285611 
L 109.097264 253.73235 
L 109.292096 254.75929 
L 109.421983 253.720234 
L 109.616815 249.688046 
L 110.071422 233.130794 
L 110.655917 213.635206 
L 110.980637 208.141915 
L 111.240412 206.589678 
L 111.305356 206.564084 
L 111.435244 206.92235 
L 111.630076 208.443782 
L 111.954795 213.506194 
L 112.344459 223.624402 
L 113.448505 256.839273 
L 113.513449 256.981721 
L 113.643337 256.080179 
L 113.838168 251.883865 
L 114.227832 236.596491 
L 114.877271 212.042244 
L 115.266934 205.111757 
L 115.52671 203.766228 
L 115.591654 203.793142 
L 115.721541 204.254379 
L 115.916373 205.92622 
L 116.241093 211.263773 
L 116.630756 221.923767 
L 117.799746 259.622586 
L 117.86469 259.4695 
L 117.994578 257.797178 
L 118.254353 249.590309 
L 119.3584 205.185881 
L 119.683119 200.916613 
L 119.877951 200.261772 
L 120.007839 200.5203 
L 120.20267 201.876959 
L 120.462446 205.442395 
L 120.852109 214.709313 
L 121.306717 231.76994 
L 122.086043 262.049209 
L 122.215931 262.962125 
L 122.345819 261.757346 
L 122.540651 256.120398 
L 122.995258 232.406619 
L 123.579753 205.980025 
L 123.969416 197.750294 
L 124.229192 195.78228 
L 124.35908 195.647496 
L 124.488968 196.014872 
L 124.683799 197.451069 
L 125.008519 202.18786 
L 125.398182 212.19192 
L 125.852789 230.880137 
L 126.632116 266.286951 
L 126.762004 267.493948 
L 126.826948 267.138036 
L 126.956836 264.469072 
L 127.216611 252.437329 
L 128.19077 199.223552 
L 128.580433 191.160075 
L 128.840209 189.121203 
L 129.03504 188.855831 
L 129.164928 189.180709 
L 129.35976 190.35621 
L 129.684479 194.163133 
L 130.009199 200.681221 
L 130.398862 213.370718 
L 130.85347 236.847702 
L 131.502909 272.853483 
L 131.632796 274.652275 
L 131.69774 274.297295 
L 131.827628 270.99763 
L 132.087404 255.645346 
L 132.931674 196.403007 
L 133.321338 184.02706 
L 133.711001 178.299785 
L 134.100664 175.736541 
L 134.68516 173.690232 
L 135.139767 171.82099 
L 135.52943 169.110781 
L 135.85415 165.3387 
L 136.178869 159.205272 
L 136.503589 149.223727 
L 136.893252 129.201843 
L 137.412803 86.442122 
L 137.802467 62.105324 
L 137.867411 61.688615 
L 137.997298 65.130899 
L 138.19213 80.059251 
L 139.166289 174.533268 
L 139.555952 189.574558 
L 140.205391 204.171133 
L 140.724942 217.893275 
L 141.309437 240.295312 
L 141.828988 257.865595 
L 142.02382 259.53662 
L 142.153708 258.423915 
L 142.34854 253.510362 
L 142.803147 232.880368 
L 143.387642 209.269514 
L 143.777305 201.882397 
L 144.037081 200.350482 
L 144.102025 200.331752 
L 144.231913 200.696826 
L 144.426744 202.206595 
L 144.751464 207.238656 
L 145.141127 217.661191 
L 145.660678 238.907107 
L 146.245173 261.358223 
L 146.375061 262.850833 
L 146.440005 262.828573 
L 146.569893 261.179188 
L 146.829668 252.091573 
L 147.933715 201.864209 
L 148.258434 196.848645 
L 148.453266 195.793017 
L 148.583154 195.770906 
L 148.713042 196.244425 
L 148.972817 198.597548 
L 149.297537 204.223399 
L 149.6872 215.504115 
L 150.141807 235.706422 
L 150.791246 265.487948 
L 150.921134 267.333206 
L 150.986078 267.324472 
L 151.115966 265.348899 
L 151.375741 254.392014 
L 152.414844 198.419461 
L 152.804507 190.918422 
L 153.064283 189.14208 
L 153.19417 188.96958 
L 153.324058 189.203187 
L 153.51889 190.253977 
L 153.778666 192.93921 
L 154.103385 198.614254 
L 154.493048 209.900526 
L 154.947656 231.416099 
L 155.726982 273.575712 
L 155.791926 274.400927 
L 155.85687 274.394192 
L 155.986758 271.798883 
L 156.246534 257.527226 
L 157.220692 192.39245 
L 157.610356 182.231369 
L 158.000019 177.665201 
L 158.389682 175.6289 
L 159.623616 171.108809 
L 160.01328 167.763165 
L 160.337999 163.02195 
L 160.662719 155.252552 
L 160.987438 142.613741 
L 161.377102 117.857815 
L 162.156428 60.734406 
L 162.221372 60.97435 
L 162.35126 65.863379 
L 162.611036 90.120804 
L 163.325419 165.711437 
L 163.715082 185.648005 
L 164.169689 198.081294 
L 165.01396 218.643976 
L 165.663399 242.83925 
L 166.118006 256.748982 
L 166.312838 258.208822 
L 166.442726 257.095467 
L 166.637557 252.403928 
L 167.092165 232.896491 
L 167.67666 210.445678 
L 168.066323 203.434486 
L 168.326099 202.083527 
L 168.391043 202.108682 
L 168.52093 202.563686 
L 168.715762 204.218475 
L 169.040482 209.521209 
L 169.430145 220.231923 
L 170.01464 243.971487 
L 170.469247 259.596497 
L 170.664079 261.193784 
L 170.793967 259.838442 
L 170.988798 254.319392 
L 171.443406 231.999454 
L 172.027901 207.315912 
L 172.417564 199.741781 
L 172.67734 198.123155 
L 172.807228 198.166461 
L 173.002059 199.189022 
L 173.261835 202.26321 
L 173.586554 208.951366 
L 173.976218 221.653448 
L 175.080264 265.040412 
L 175.145208 264.969016 
L 175.275096 263.054821 
L 175.534871 252.908669 
L 176.573974 200.868752 
L 176.898693 194.653005 
L 177.158469 192.716605 
L 177.288357 192.549848 
L 177.418244 192.848269 
L 177.613076 194.107885 
L 177.872852 197.281432 
L 178.197571 203.90087 
L 178.587235 216.689025 
L 179.106786 243.0918 
L 179.626337 268.514268 
L 179.756225 270.565993 
L 179.821169 270.532072 
L 179.951056 268.23222 
L 180.210832 255.731818 
L 181.18499 196.720093 
L 181.574654 187.407436 
L 181.899373 184.217998 
L 182.159149 183.526105 
L 182.289037 183.632044 
L 182.483868 184.270306 
L 182.743644 185.982388 
L 183.068363 189.687302 
L 183.458027 197.335348 
L 183.84769 210.44415 
L 184.237354 231.556333 
L 185.081624 281.232475 
L 185.146568 280.908421 
L 185.276456 277.010141 
L 185.536232 258.344706 
L 186.380502 189.402815 
L 186.770166 175.445386 
L 187.224773 167.066727 
L 188.0041 154.886362 
L 188.393763 144.514298 
L 188.84837 125.087403 
L 189.757585 79.433458 
L 189.822529 79.174757 
L 189.952417 81.078048 
L 190.147248 89.62507 
L 191.446126 164.554483 
L 191.83579 170.460066 
L 192.160509 172.370501 
L 192.420285 172.814529 
L 192.615116 172.732202 
L 192.874892 172.180689 
L 193.199612 170.783555 
L 193.524331 168.378357 
L 193.849051 164.440416 
L 194.17377 158.045373 
L 194.563433 145.007889 
L 194.953097 122.826659 
L 195.797367 63.461881 
L 195.862311 63.533031 
L 195.992199 67.761804 
L 196.251975 89.952447 
L 197.031302 166.499026 
L 197.420965 184.10215 
L 197.875572 195.273531 
L 198.589955 211.332098 
L 199.109506 229.814827 
L 199.888833 260.169649 
L 200.083665 261.722224 
L 200.213553 260.263888 
L 200.408384 254.508028 
L 200.862992 231.590183 
L 201.382543 208.562004 
L 201.772206 199.78029 
L 202.031982 197.525144 
L 202.161869 197.283588 
L 202.291757 197.56776 
L 202.486589 198.917723 
L 202.746365 202.402592 
L 203.136028 211.503695 
L 203.590635 228.816157 
L 204.434906 264.983284 
L 204.564794 265.835555 
L 204.694681 264.269941 
L 204.889513 257.611841 
L 205.409064 226.949969 
L 205.928616 202.57945 
L 206.318279 193.931918 
L 206.578055 191.693411 
L 206.772886 191.399125 
L 206.902774 191.761976 
L 207.097606 193.078573 
L 207.422325 197.341563 
L 207.811989 206.455896 
L 208.201652 221.291286 
L 208.851091 257.756696 
L 209.17581 270.824353 
L 209.305698 271.832142 
L 209.435586 269.75311 
L 209.630418 261.194495 
L 210.864352 189.938651 
L 211.254015 183.463531 
L 211.578735 181.479796 
L 211.773566 181.191326 
L 211.903454 181.27613 
L 212.098286 181.761233 
L 212.358061 183.049108 
L 212.682781 185.834945 
L 213.0075 190.43056 
L 213.397164 199.737191 
L 213.786827 215.728207 
L 214.241434 246.144799 
L 214.760986 282.344608 
L 214.890873 284.81389 
L 214.955817 284.297539 
L 215.085705 279.635621 
L 215.345481 258.503117 
L 216.124808 188.378946 
L 216.514471 172.238254 
L 216.969078 162.245317 
L 217.748405 146.814861 
L 218.203012 131.474345 
L 218.852451 99.184463 
L 219.242115 85.458073 
L 219.307059 84.86766 
L 219.372002 84.907534 
L 219.50189 86.928545 
L 219.761666 97.889626 
L 220.800768 153.421017 
L 221.125488 160.039905 
L 221.385263 162.300311 
L 221.580095 162.67857 
L 221.709983 162.409548 
L 221.904814 161.296449 
L 222.16459 158.504316 
L 222.489309 152.643893 
L 222.878973 141.046991 
L 223.33358 119.152373 
L 224.112907 78.390999 
L 224.177851 77.868898 
L 224.242795 78.181906 
L 224.372683 81.349725 
L 224.632458 96.326628 
L 225.541673 157.590477 
L 225.931336 168.506618 
L 226.320999 173.394361 
L 226.710663 175.421041 
L 227.100326 176.318691 
L 228.074485 178.069738 
L 228.464148 179.533314 
L 228.788868 181.615816 
L 229.113587 185.068661 
L 229.438307 190.835532 
L 229.763026 200.466028 
L 230.087746 216.278071 
L 230.477409 246.61068 
L 231.061904 294.057913 
L 231.126848 294.950385 
L 231.191792 294.246738 
L 231.32168 287.992118 
L 231.581455 260.348203 
L 232.230894 185.800704 
L 232.620558 163.453447 
L 233.075165 149.765634 
L 234.049323 125.146761 
L 234.958538 99.368932 
L 235.15337 98.421178 
L 235.283257 99.405741 
L 235.478089 103.19529 
L 235.932696 118.779162 
L 236.517191 137.313871 
L 236.841911 142.55957 
L 237.101687 143.997345 
L 237.16663 144.000991 
L 237.296518 143.604203 
L 237.49135 142.036113 
L 237.816069 136.93342 
L 238.270677 124.878499 
L 239.179891 97.358391 
L 239.309779 96.366984 
L 239.374723 96.405283 
L 239.504611 97.584276 
L 239.764386 103.964545 
L 240.99832 144.153076 
L 241.258096 146.315527 
L 241.387984 146.502998 
L 241.517872 146.137836 
L 241.712703 144.603354 
L 242.037423 139.503029 
L 242.427086 129.248703 
L 243.596076 93.987378 
L 243.66102 94.157034 
L 243.790908 95.750479 
L 244.050684 103.399074 
L 245.219674 146.200348 
L 245.544393 149.359326 
L 245.674281 149.553976 
L 245.804169 149.197083 
L 245.999001 147.681202 
L 246.32372 142.606663 
L 246.713383 132.197212 
L 247.297878 108.870757 
L 247.752486 93.039366 
L 247.947317 91.097763 
L 248.077205 92.166688 
L 248.272037 97.249271 
L 248.6617 115.564423 
L 249.246195 141.815964 
L 249.635859 150.793994 
L 249.895634 153.167274 
L 250.025522 153.450869 
L 250.15541 153.195947 
L 250.350242 151.866902 
L 250.610017 148.375147 
L 250.999681 139.238864 
L 251.454288 122.054045 
L 252.298559 87.926707 
L 252.363503 87.407033 
L 252.428446 87.452378 
L 252.558334 89.279529 
L 252.81811 99.154676 
L 253.922156 152.171505 
L 254.246876 157.420964 
L 254.506651 158.757138 
L 254.571595 158.766215 
L 254.701483 158.43483 
L 254.896315 157.10951 
L 255.221034 152.703954 
L 255.610697 143.272817 
L 256.000361 128.162843 
L 257.039463 82.039336 
L 257.104407 82.378937 
L 257.234295 85.223416 
L 257.49407 98.305717 
L 258.403285 153.181212 
L 258.792948 163.081439 
L 259.117668 166.508036 
L 259.377443 167.233038 
L 259.507331 167.096869 
L 259.702163 166.357529 
L 259.961939 164.404087 
L 260.286658 160.202131 
L 260.676321 151.594337 
L 261.065985 137.074967 
L 261.520592 110.035263 
L 262.105087 74.14528 
L 262.234975 72.409956 
L 262.364863 74.706189 
L 262.559694 85.337387 
L 263.728685 169.356767 
L 264.118348 178.694427 
L 264.637899 185.546801 
L 265.15745 192.677714 
L 265.547114 201.278458 
L 265.936777 215.127944 
L 266.391384 240.225925 
L 266.97588 273.674034 
L 267.105767 275.827694 
L 267.170711 275.608008 
L 267.300599 272.459649 
L 267.560375 256.889904 
L 268.469589 192.763536 
L 268.859253 181.312884 
L 269.248916 175.88066 
L 269.703523 172.606237 
L 270.352962 168.094784 
L 270.742626 163.372525 
L 271.132289 155.261115 
L 271.521952 141.271713 
L 271.911616 118.398085 
L 272.690943 67.238196 
L 272.755886 67.092317 
L 272.885774 70.459351 
L 273.14555 89.884021 
L 273.989821 165.416319 
L 274.379484 180.814746 
L 274.834091 190.521786 
L 275.548474 204.645365 
L 276.003081 219.571941 
L 276.587576 248.111411 
L 277.042184 265.908669 
L 277.172072 266.928274 
L 277.301959 265.419483 
L 277.496791 258.61865 
L 277.951398 230.951925 
L 278.470949 203.89384 
L 278.860613 193.612383 
L 279.185332 190.162616 
L 279.380164 189.688241 
L 279.510052 189.909206 
L 279.704884 190.967975 
L 279.964659 193.70903 
L 280.289379 199.517978 
L 280.679042 211.033346 
L 281.133649 232.739441 
L 281.912976 273.143483 
L 281.97792 273.689451 
L 282.042864 273.41451 
L 282.172752 270.361086 
L 282.432527 255.69841 
L 283.341742 194.978861 
L 283.731405 184.099061 
L 284.121069 179.295094 
L 284.445788 177.642945 
L 284.770508 177.008389 
L 285.030283 176.881089 
L 285.355003 177.004217 
L 285.679722 177.384195 
L 286.069386 178.256233 
L 286.394105 179.526566 
L 286.718824 181.633934 
L 287.043544 185.149414 
L 287.368263 191.043867 
L 287.692983 200.916025 
L 288.017702 217.150145 
L 288.407366 248.209346 
L 288.991861 294.991822 
L 289.056805 295.488 
L 289.186693 291.547946 
L 289.446468 266.635626 
L 290.225795 179.182138 
L 290.615458 159.597996 
L 291.13501 145.610654 
L 291.914336 125.926727 
L 292.823551 100.425335 
L 293.018383 99.087985 
L 293.083326 99.251817 
L 293.213214 100.515564 
L 293.47299 106.386902 
L 294.706924 141.421642 
L 294.9667 143.082431 
L 295.031643 143.142477 
L 295.096587 143.066826 
L 295.226475 142.519575 
L 295.486251 139.902363 
L 295.81097 133.900265 
L 296.265577 120.949295 
L 297.044904 98.325808 
L 297.239736 97.185442 
L 297.369624 98.148155 
L 297.564455 102.083614 
L 297.954119 115.955293 
L 298.603558 138.210042 
L 298.993221 144.432401 
L 299.188053 145.421983 
L 299.252997 145.463598 
L 299.382885 145.136201 
L 299.577716 143.658963 
L 299.902436 138.66731 
L 300.292099 128.626307 
L 301.396145 95.161461 
L 301.461089 94.970903 
L 301.526033 95.174723 
L 301.655921 96.769592 
L 301.915697 104.164049 
L 303.084687 145.178378 
L 303.344462 147.848833 
L 303.539294 148.249324 
L 303.669182 147.822225 
L 303.864014 146.199724 
L 304.188733 140.943712 
L 304.578396 130.37952 
L 305.747387 92.340719 
L 305.81233 92.430982 
L 305.942218 93.981698 
L 306.201994 102.006762 
L 307.370984 147.898089 
L 307.695704 151.447063 
L 307.825591 151.779252 
L 307.890535 151.736244 
L 308.020423 151.253206 
L 308.215255 149.574669 
L 308.539974 144.259737 
L 308.929638 133.464651 
L 309.449189 111.809455 
L 309.96874 91.319998 
L 310.163572 88.971082 
L 310.228516 89.21771 
L 310.358403 91.320025 
L 310.618179 101.145527 
L 311.657281 149.358256 
L 311.982001 154.922604 
L 312.241776 156.400074 
L 312.30672 156.424949 
L 312.436608 156.101213 
L 312.63144 154.729142 
L 312.956159 150.106584 
L 313.345823 140.267459 
L 313.80043 121.778429 
L 314.644701 84.854191 
L 314.709644 84.428404 
L 314.774588 84.649653 
L 314.904476 87.06078 
L 315.164252 98.734138 
L 316.13841 152.436188 
L 316.528074 160.76031 
L 316.787849 162.922662 
L 316.982681 163.265368 
L 317.112569 162.988994 
L 317.3074 161.887027 
L 317.63212 158.22118 
L 317.956839 151.891325 
L 318.346503 139.513582 
L 318.80111 116.420387 
L 319.515493 78.035773 
L 319.580437 77.270786 
L 319.645381 77.350084 
L 319.775269 80.117497 
L 320.035044 94.746949 
L 320.944259 157.610525 
L 321.333922 169.046378 
L 321.723585 174.303042 
L 322.113249 176.721242 
L 323.282239 182.127539 
L 323.671902 186.207888 
L 323.996622 191.943266 
L 324.321341 201.244393 
L 324.711005 219.924658 
L 325.165612 255.148181 
L 325.620219 287.942972 
L 325.750107 289.396087 
L 325.879995 285.3237 
L 326.13977 262.962214 
L 326.919097 184.884933 
L 327.308761 166.925412 
L 327.763368 155.501488 
L 328.477751 139.086732 
L 328.997302 120.600514 
L 329.776629 92.369567 
L 329.906517 91.39745 
L 329.97146 91.615144 
L 330.101348 93.48604 
L 330.361124 102.276167 
L 331.46517 148.097707 
L 331.78989 152.402222 
L 331.984721 153.080033 
L 332.114609 152.844698 
L 332.309441 151.53821 
L 332.569216 148.067533 
L 332.95888 138.961618 
L 333.413487 121.867595 
L 334.257758 88.245599 
L 334.322702 87.756937 
L 334.387646 87.825323 
L 334.517533 89.670603 
L 334.777309 99.467154 
L 335.881355 151.81713 
L 336.206075 156.972448 
L 336.46585 158.236547 
L 336.530794 158.225945 
L 336.660682 157.851756 
L 336.855514 156.450998 
L 337.180233 151.880676 
L 337.569897 142.181759 
L 338.024504 123.635351 
L 338.933718 82.723284 
L 338.998662 82.631169 
L 339.12855 84.570732 
L 339.323382 92.424879 
L 340.62226 160.488658 
L 340.946979 164.986402 
L 341.206755 166.227636 
L 341.336643 166.270598 
L 341.46653 165.98829 
L 341.726306 164.52381 
L 342.051025 160.947324 
L 342.375745 154.94332 
L 342.765408 143.090833 
L 343.155072 124.040149 
L 344.064286 73.631677 
L 344.12923 73.908155 
L 344.259118 77.416521 
L 344.518894 94.431252 
L 345.363164 159.30239 
L 345.752828 172.682092 
L 346.142491 179.424436 
L 347.376425 195.578391 
L 347.766088 206.707465 
L 348.155752 224.617328 
L 349.12991 278.309693 
L 349.194854 277.921264 
L 349.324742 274.199504 
L 349.584518 256.911405 
L 350.428788 192.408291 
L 350.818452 179.216419 
L 351.208115 172.571292 
L 352.442049 156.522555 
L 352.831713 145.423665 
L 353.221376 127.537328 
L 354.195534 73.54491 
L 354.260478 73.899722 
L 354.390366 77.569613 
L 354.650142 94.838268 
L 355.494412 159.626526 
L 355.884076 172.902222 
L 356.273739 179.606975 
L 357.442729 194.614201 
L 357.832393 205.069592 
L 358.222056 221.992836 
L 358.806551 260.093996 
L 359.131271 276.54618 
L 359.261158 278.143098 
L 359.391046 275.892562 
L 359.585878 265.669712 
L 360.754868 184.340667 
L 361.144531 175.335118 
L 361.599139 169.834804 
L 362.248578 162.632875 
L 362.638241 155.405714 
L 363.027904 143.470226 
L 363.417568 124.373075 
L 364.326782 73.217853 
L 364.391726 73.439624 
L 364.521614 76.883494 
L 364.78139 93.970127 
L 365.62566 159.599968 
L 366.015324 173.1619 
L 366.404987 180.051735 
L 367.573977 195.848249 
L 367.963641 206.870088 
L 368.353304 224.503384 
L 369.327463 277.385123 
L 369.392406 277.098854 
L 369.522294 273.668347 
L 369.78207 257.128589 
L 370.626341 193.705934 
L 371.016004 180.566646 
L 371.405667 174.078924 
L 371.990162 168.595548 
L 372.44477 163.645185 
L 372.834433 156.705754 
L 373.224096 145.083568 
L 373.61376 126.163449 
L 374.587918 71.49692 
L 374.717806 74.384973 
L 374.977582 91.339213 
L 375.886796 163.520232 
L 376.27646 176.48956 
L 376.731067 184.281597 
L 377.510394 195.854079 
L 377.900057 205.862804 
L 378.28972 221.608358 
L 378.939159 260.165419 
L 379.263879 273.320951 
L 379.328823 273.999192 
L 379.393767 273.851792 
L 379.523655 271.01817 
L 379.78343 256.553698 
L 380.692645 194.987997 
L 381.082308 183.82522 
L 381.471971 178.82077 
L 381.796691 176.997679 
L 382.186354 176.020832 
L 382.770849 175.301599 
L 383.290401 174.531841 
L 383.680064 173.485073 
L 384.004784 171.994354 
L 384.329503 169.516712 
L 384.654222 165.361472 
L 384.978942 158.363586 
L 385.303661 146.638251 
L 385.693325 122.631588 
L 386.537596 55.790074 
L 386.602539 56.447296 
L 386.732427 62.777938 
L 386.992203 91.113281 
L 387.641642 167.347171 
L 388.031305 190.052021 
L 388.485912 203.91797 
L 389.589959 232.224154 
L 390.239398 249.82194 
L 390.499173 252.036316 
L 390.564117 251.879532 
L 390.694005 250.680395 
L 390.953781 245.113251 
L 392.187715 211.539301 
L 392.44749 209.952487 
L 392.577378 209.98979 
L 392.77221 211.022402 
L 393.031985 214.133784 
L 393.421649 222.289968 
L 394.071088 242.324919 
L 394.525695 252.961716 
L 394.655583 253.814241 
L 394.720527 253.759253 
L 394.850414 252.660403 
L 395.11019 246.854573 
L 396.409068 209.151552 
L 396.668844 207.782973 
L 396.733787 207.796432 
L 396.863675 208.227077 
L 397.058507 209.845563 
L 397.383226 215.035232 
L 397.837834 227.228846 
L 398.487273 249.333167 
L 398.487273 249.333167 
" clip-path="url(#p1413f958dd)" style="fill: none; stroke: #ff7f0e; stroke-width: 1.5; stroke-linecap: square"/>
   </g>
   <g id="patch_3">
    <path d="M 57.6 307.584 
L 57.6 41.472 
" style="fill: none; stroke: #000000; stroke-width: 0.8; stroke-linejoin: miter; stroke-linecap: square"/>
   </g>
   <g id="patch_4">
    <path d="M 414.72 307.584 
L 414.72 41.472 
" style="fill: none; stroke: #000000; stroke-width: 0.8; stroke-linejoin: miter; stroke-linecap: square"/>
   </g>
   <g id="patch_5">
    <path d="M 57.6 307.584 
L 414.72 307.584 
" style="fill: none; stroke: #000000; stroke-width: 0.8; stroke-linejoin: miter; stroke-linecap: square"/>
   </g>
   <g id="patch_6">
    <path d="M 57.6 41.472 
L 414.72 41.472 
" style="fill: none; stroke: #000000; stroke-width: 0.8; stroke-linejoin: miter; stroke-linecap: square"/>
   </g>
   <g id="legend_1">
    <g id="patch_7">
     <path d="M 64.6 302.584 
L 119 302.584 
Q 121 302.584 121 300.584 
L 121 272.22775 
Q 121 270.22775 119 270.22775 
L 64.6 270.22775 
Q 62.6 270.22775 62.6 272.22775 
L 62.6 300.584 
Q 62.6 302.584 64.6 302.584 
z
" style="fill: #ffffff; opacity: 0.8; stroke: #cccccc; stroke-linejoin: miter"/>
    </g>
    <g id="line2d_17">
     <path d="M 66.6 278.326187 
L 76.6 278.326187 
L 86.6 278.326187 
" style="fill: none; stroke: #1f77b4; stroke-width: 1.5; stroke-linecap: square"/>
    </g>
    <g id="text_15">
     <!-- $x_1(t)$ -->
     <g transform="translate(94.6 281.826187) scale(0.1 -0.1)">
      <defs>
       <path id="DejaVuSans-Oblique-78" d="M 3841 3500 
L 2234 1784 
L 3219 0 
L 2559 0 
L 1819 1388 
L 531 0 
L -166 0 
L 1556 1844 
L 641 3500 
L 1300 3500 
L 1972 2234 
L 3144 3500 
L 3841 3500 
z
" transform="scale(0.015625)"/>
       <path id="DejaVuSans-28" d="M 1984 4856 
Q 1566 4138 1362 3434 
Q 1159 2731 1159 2009 
Q 1159 1288 1364 580 
Q 1569 -128 1984 -844 
L 1484 -844 
Q 1016 -109 783 600 
Q 550 1309 550 2009 
Q 550 2706 781 3412 
Q 1013 4119 1484 4856 
L 1984 4856 
z
" transform="scale(0.015625)"/>
       <path id="DejaVuSans-Oblique-74" d="M 2706 3500 
L 2619 3053 
L 1472 3053 
L 1100 1153 
Q 1081 1047 1072 975 
Q 1063 903 1063 863 
Q 1063 663 1183 572 
Q 1303 481 1569 481 
L 2150 481 
L 2053 0 
L 1503 0 
Q 991 0 739 200 
Q 488 400 488 806 
Q 488 878 497 964 
Q 506 1050 525 1153 
L 897 3053 
L 409 3053 
L 500 3500 
L 978 3500 
L 1172 4494 
L 1747 4494 
L 1556 3500 
L 2706 3500 
z
" transform="scale(0.015625)"/>
       <path id="DejaVuSans-29" d="M 513 4856 
L 1013 4856 
Q 1481 4119 1714 3412 
Q 1947 2706 1947 2009 
Q 1947 1309 1714 600 
Q 1481 -109 1013 -844 
L 513 -844 
Q 928 -128 1133 580 
Q 1338 1288 1338 2009 
Q 1338 2731 1133 3434 
Q 928 4138 513 4856 
z
" transform="scale(0.015625)"/>
      </defs>
      <use xlink:href="#DejaVuSans-Oblique-78" transform="translate(0 0.125)"/>
      <use xlink:href="#DejaVuSans-31" transform="translate(59.179688 -16.28125) scale(0.7)"/>
      <use xlink:href="#DejaVuSans-28" transform="translate(106.450195 0.125)"/>
      <use xlink:href="#DejaVuSans-Oblique-74" transform="translate(145.463867 0.125)"/>
      <use xlink:href="#DejaVuSans-29" transform="translate(184.672852 0.125)"/>
     </g>
    </g>
    <g id="line2d_18">
     <path d="M 66.6 293.004312 
L 76.6 293.004312 
L 86.6 293.004312 
" style="fill: none; stroke: #ff7f0e; stroke-width: 1.5; stroke-linecap: square"/>
    </g>
    <g id="text_16">
     <!-- $x_2(t)$ -->
     <g transform="translate(94.6 296.504312) scale(0.1 -0.1)">
      <use xlink:href="#DejaVuSans-Oblique-78" transform="translate(0 0.125)"/>
      <use xlink:href="#DejaVuSans-32" transform="translate(59.179688 -16.28125) scale(0.7)"/>
      <use xlink:href="#DejaVuSans-28" transform="translate(106.450195 0.125)"/>
      <use xlink:href="#DejaVuSans-Oblique-74" transform="translate(145.463867 0.125)"/>
      <use xlink:href="#DejaVuSans-29" transform="translate(184.672852 0.125)"/>
     </g>
    </g>
   </g>
  </g>
 </g>
 <defs>
  <clipPath id="p1413f958dd">
   <rect x="57.6" y="41.472" width="357.12" height="266.112"/>
  </clipPath>
 </defs>
</svg>
