<?xml version="1.0" encoding="utf-8" standalone="no"?>
<!DOCTYPE svg PUBLIC "-//W3C//DTD SVG 1.1//EN"
  "http://www.w3.org/Graphics/SVG/1.1/DTD/svg11.dtd">
<svg xmlns:xlink="http://www.w3.org/1999/xlink" width="460.8pt" height="345.6pt" viewBox="0 0 460.8 345.6" xmlns="http://www.w3.org/2000/svg" version="1.1">
 <metadata>
  <rdf:RDF xmlns:dc="http://purl.org/dc/elements/1.1/" xmlns:cc="http://creativecommons.org/ns#" xmlns:rdf="http://www.w3.org/1999/02/22-rdf-syntax-ns#">
   <cc:Work>
    <dc:type rdf:resource="http://purl.org/dc/dcmitype/StillImage"/>
    <dc:date>2022-11-27T09:44:32.138747</dc:date>
    <dc:format>image/svg+xml</dc:format>
    <dc:creator>
     <cc:Agent>
      <dc:title>Matplotlib v3.6.1, https://matplotlib.org/</dc:title>
     </cc:Agent>
    </dc:creator>
   </cc:Work>
  </rdf:RDF>
 </metadata>
 <defs>
  <style type="text/css">*{stroke-linejoin: round; stroke-linecap: butt}</style>
 </defs>
 <g id="figure_1">
  <g id="patch_1">
   <path d="M 0 345.6 
L 460.8 345.6 
L 460.8 0 
L 0 0 
z
" style="fill: #ffffff"/>
  </g>
  <g id="axes_1">
   <g id="patch_2">
    <path d="M 57.6 307.584 
L 414.72 307.584 
L 414.72 41.472 
L 57.6 41.472 
z
" style="fill: #ffffff"/>
   </g>
   <g id="matplotlib.axis_1">
    <g id="xtick_1">
     <g id="line2d_1">
      <defs>
       <path id="m62920ad20c" d="M 0 0 
L 0 3.5 
" style="stroke: #000000; stroke-width: 0.8"/>
      </defs>
      <g>
       <use xlink:href="#m62920ad20c" x="73.832727" y="307.584" style="stroke: #000000; stroke-width: 0.8"/>
      </g>
     </g>
     <g id="text_1">
      <!-- 0 -->
      <g transform="translate(70.651477 322.182437) scale(0.1 -0.1)">
       <defs>
        <path id="DejaVuSans-30" d="M 2034 4250 
Q 1547 4250 1301 3770 
Q 1056 3291 1056 2328 
Q 1056 1369 1301 889 
Q 1547 409 2034 409 
Q 2525 409 2770 889 
Q 3016 1369 3016 2328 
Q 3016 3291 2770 3770 
Q 2525 4250 2034 4250 
z
M 2034 4750 
Q 2819 4750 3233 4129 
Q 3647 3509 3647 2328 
Q 3647 1150 3233 529 
Q 2819 -91 2034 -91 
Q 1250 -91 836 529 
Q 422 1150 422 2328 
Q 422 3509 836 4129 
Q 1250 4750 2034 4750 
z
" transform="scale(0.015625)"/>
       </defs>
       <use xlink:href="#DejaVuSans-30"/>
      </g>
     </g>
    </g>
    <g id="xtick_2">
     <g id="line2d_2">
      <g>
       <use xlink:href="#m62920ad20c" x="138.776625" y="307.584" style="stroke: #000000; stroke-width: 0.8"/>
      </g>
     </g>
     <g id="text_2">
      <!-- 1000 -->
      <g transform="translate(126.051625 322.182437) scale(0.1 -0.1)">
       <defs>
        <path id="DejaVuSans-31" d="M 794 531 
L 1825 531 
L 1825 4091 
L 703 3866 
L 703 4441 
L 1819 4666 
L 2450 4666 
L 2450 531 
L 3481 531 
L 3481 0 
L 794 0 
L 794 531 
z
" transform="scale(0.015625)"/>
       </defs>
       <use xlink:href="#DejaVuSans-31"/>
       <use xlink:href="#DejaVuSans-30" x="63.623047"/>
       <use xlink:href="#DejaVuSans-30" x="127.246094"/>
       <use xlink:href="#DejaVuSans-30" x="190.869141"/>
      </g>
     </g>
    </g>
    <g id="xtick_3">
     <g id="line2d_3">
      <g>
       <use xlink:href="#m62920ad20c" x="203.720523" y="307.584" style="stroke: #000000; stroke-width: 0.8"/>
      </g>
     </g>
     <g id="text_3">
      <!-- 2000 -->
      <g transform="translate(190.995523 322.182437) scale(0.1 -0.1)">
       <defs>
        <path id="DejaVuSans-32" d="M 1228 531 
L 3431 531 
L 3431 0 
L 469 0 
L 469 531 
Q 828 903 1448 1529 
Q 2069 2156 2228 2338 
Q 2531 2678 2651 2914 
Q 2772 3150 2772 3378 
Q 2772 3750 2511 3984 
Q 2250 4219 1831 4219 
Q 1534 4219 1204 4116 
Q 875 4013 500 3803 
L 500 4441 
Q 881 4594 1212 4672 
Q 1544 4750 1819 4750 
Q 2544 4750 2975 4387 
Q 3406 4025 3406 3419 
Q 3406 3131 3298 2873 
Q 3191 2616 2906 2266 
Q 2828 2175 2409 1742 
Q 1991 1309 1228 531 
z
" transform="scale(0.015625)"/>
       </defs>
       <use xlink:href="#DejaVuSans-32"/>
       <use xlink:href="#DejaVuSans-30" x="63.623047"/>
       <use xlink:href="#DejaVuSans-30" x="127.246094"/>
       <use xlink:href="#DejaVuSans-30" x="190.869141"/>
      </g>
     </g>
    </g>
    <g id="xtick_4">
     <g id="line2d_4">
      <g>
       <use xlink:href="#m62920ad20c" x="268.664421" y="307.584" style="stroke: #000000; stroke-width: 0.8"/>
      </g>
     </g>
     <g id="text_4">
      <!-- 3000 -->
      <g transform="translate(255.939421 322.182437) scale(0.1 -0.1)">
       <defs>
        <path id="DejaVuSans-33" d="M 2597 2516 
Q 3050 2419 3304 2112 
Q 3559 1806 3559 1356 
Q 3559 666 3084 287 
Q 2609 -91 1734 -91 
Q 1441 -91 1130 -33 
Q 819 25 488 141 
L 488 750 
Q 750 597 1062 519 
Q 1375 441 1716 441 
Q 2309 441 2620 675 
Q 2931 909 2931 1356 
Q 2931 1769 2642 2001 
Q 2353 2234 1838 2234 
L 1294 2234 
L 1294 2753 
L 1863 2753 
Q 2328 2753 2575 2939 
Q 2822 3125 2822 3475 
Q 2822 3834 2567 4026 
Q 2313 4219 1838 4219 
Q 1578 4219 1281 4162 
Q 984 4106 628 3988 
L 628 4550 
Q 988 4650 1302 4700 
Q 1616 4750 1894 4750 
Q 2613 4750 3031 4423 
Q 3450 4097 3450 3541 
Q 3450 3153 3228 2886 
Q 3006 2619 2597 2516 
z
" transform="scale(0.015625)"/>
       </defs>
       <use xlink:href="#DejaVuSans-33"/>
       <use xlink:href="#DejaVuSans-30" x="63.623047"/>
       <use xlink:href="#DejaVuSans-30" x="127.246094"/>
       <use xlink:href="#DejaVuSans-30" x="190.869141"/>
      </g>
     </g>
    </g>
    <g id="xtick_5">
     <g id="line2d_5">
      <g>
       <use xlink:href="#m62920ad20c" x="333.608319" y="307.584" style="stroke: #000000; stroke-width: 0.8"/>
      </g>
     </g>
     <g id="text_5">
      <!-- 4000 -->
      <g transform="translate(320.883319 322.182437) scale(0.1 -0.1)">
       <defs>
        <path id="DejaVuSans-34" d="M 2419 4116 
L 825 1625 
L 2419 1625 
L 2419 4116 
z
M 2253 4666 
L 3047 4666 
L 3047 1625 
L 3713 1625 
L 3713 1100 
L 3047 1100 
L 3047 0 
L 2419 0 
L 2419 1100 
L 313 1100 
L 313 1709 
L 2253 4666 
z
" transform="scale(0.015625)"/>
       </defs>
       <use xlink:href="#DejaVuSans-34"/>
       <use xlink:href="#DejaVuSans-30" x="63.623047"/>
       <use xlink:href="#DejaVuSans-30" x="127.246094"/>
       <use xlink:href="#DejaVuSans-30" x="190.869141"/>
      </g>
     </g>
    </g>
    <g id="xtick_6">
     <g id="line2d_6">
      <g>
       <use xlink:href="#m62920ad20c" x="398.552217" y="307.584" style="stroke: #000000; stroke-width: 0.8"/>
      </g>
     </g>
     <g id="text_6">
      <!-- 5000 -->
      <g transform="translate(385.827217 322.182437) scale(0.1 -0.1)">
       <defs>
        <path id="DejaVuSans-35" d="M 691 4666 
L 3169 4666 
L 3169 4134 
L 1269 4134 
L 1269 2991 
Q 1406 3038 1543 3061 
Q 1681 3084 1819 3084 
Q 2600 3084 3056 2656 
Q 3513 2228 3513 1497 
Q 3513 744 3044 326 
Q 2575 -91 1722 -91 
Q 1428 -91 1123 -41 
Q 819 9 494 109 
L 494 744 
Q 775 591 1075 516 
Q 1375 441 1709 441 
Q 2250 441 2565 725 
Q 2881 1009 2881 1497 
Q 2881 1984 2565 2268 
Q 2250 2553 1709 2553 
Q 1456 2553 1204 2497 
Q 953 2441 691 2322 
L 691 4666 
z
" transform="scale(0.015625)"/>
       </defs>
       <use xlink:href="#DejaVuSans-35"/>
       <use xlink:href="#DejaVuSans-30" x="63.623047"/>
       <use xlink:href="#DejaVuSans-30" x="127.246094"/>
       <use xlink:href="#DejaVuSans-30" x="190.869141"/>
      </g>
     </g>
    </g>
   </g>
   <g id="matplotlib.axis_2">
    <g id="ytick_1">
     <g id="line2d_7">
      <defs>
       <path id="mdc0dc621c6" d="M 0 0 
L -3.5 0 
" style="stroke: #000000; stroke-width: 0.8"/>
      </defs>
      <g>
       <use xlink:href="#mdc0dc621c6" x="57.6" y="264.848509" style="stroke: #000000; stroke-width: 0.8"/>
      </g>
     </g>
     <g id="text_7">
      <!-- −2 -->
      <g transform="translate(35.857813 268.647728) scale(0.1 -0.1)">
       <defs>
        <path id="DejaVuSans-2212" d="M 678 2272 
L 4684 2272 
L 4684 1741 
L 678 1741 
L 678 2272 
z
" transform="scale(0.015625)"/>
       </defs>
       <use xlink:href="#DejaVuSans-2212"/>
       <use xlink:href="#DejaVuSans-32" x="83.789062"/>
      </g>
     </g>
    </g>
    <g id="ytick_2">
     <g id="line2d_8">
      <g>
       <use xlink:href="#mdc0dc621c6" x="57.6" y="219.688191" style="stroke: #000000; stroke-width: 0.8"/>
      </g>
     </g>
     <g id="text_8">
      <!-- −1 -->
      <g transform="translate(35.857813 223.487409) scale(0.1 -0.1)">
       <use xlink:href="#DejaVuSans-2212"/>
       <use xlink:href="#DejaVuSans-31" x="83.789062"/>
      </g>
     </g>
    </g>
    <g id="ytick_3">
     <g id="line2d_9">
      <g>
       <use xlink:href="#mdc0dc621c6" x="57.6" y="174.527872" style="stroke: #000000; stroke-width: 0.8"/>
      </g>
     </g>
     <g id="text_9">
      <!-- 0 -->
      <g transform="translate(44.2375 178.327091) scale(0.1 -0.1)">
       <use xlink:href="#DejaVuSans-30"/>
      </g>
     </g>
    </g>
    <g id="ytick_4">
     <g id="line2d_10">
      <g>
       <use xlink:href="#mdc0dc621c6" x="57.6" y="129.367554" style="stroke: #000000; stroke-width: 0.8"/>
      </g>
     </g>
     <g id="text_10">
      <!-- 1 -->
      <g transform="translate(44.2375 133.166773) scale(0.1 -0.1)">
       <use xlink:href="#DejaVuSans-31"/>
      </g>
     </g>
    </g>
    <g id="ytick_5">
     <g id="line2d_11">
      <g>
       <use xlink:href="#mdc0dc621c6" x="57.6" y="84.207235" style="stroke: #000000; stroke-width: 0.8"/>
      </g>
     </g>
     <g id="text_11">
      <!-- 2 -->
      <g transform="translate(44.2375 88.006454) scale(0.1 -0.1)">
       <use xlink:href="#DejaVuSans-32"/>
      </g>
     </g>
    </g>
   </g>
   <g id="line2d_12">
    <path d="M 73.832727 174.527872 
L 75.066661 155.791803 
L 78.443744 102.187754 
L 79.158127 95.14038 
L 79.807566 90.723591 
L 80.392061 88.203382 
L 80.846668 87.052768 
L 81.236332 86.540581 
L 81.561051 86.399255 
L 81.885771 86.481928 
L 82.275434 86.835638 
L 82.794985 87.669001 
L 83.444424 89.178855 
L 84.288695 91.743584 
L 85.392741 95.881824 
L 86.691619 101.669216 
L 88.120385 109.105316 
L 89.549151 117.785314 
L 90.848029 127.02528 
L 92.081963 137.372514 
L 93.250953 149.05326 
L 94.354999 162.275072 
L 95.523989 179.12191 
L 96.822867 201.339957 
L 99.225791 243.24963 
L 100.005118 252.874627 
L 100.654557 258.575188 
L 101.239052 262.007329 
L 101.758603 263.89539 
L 102.213211 264.802088 
L 102.602874 265.121446 
L 102.927594 265.116807 
L 103.317257 264.837399 
L 103.771864 264.196537 
L 104.356359 262.97155 
L 105.135686 260.79618 
L 106.174788 257.176349 
L 107.473666 251.76788 
L 108.902432 244.832523 
L 110.331198 236.813758 
L 111.69502 227.934762 
L 112.993898 218.026805 
L 114.227832 206.852457 
L 115.396822 194.146104 
L 116.500868 179.710231 
L 117.669858 161.431425 
L 119.3584 130.818557 
L 120.722222 107.565105 
L 121.566492 96.739509 
L 122.280875 90.360416 
L 122.86537 86.938069 
L 123.384921 85.059325 
L 123.839529 84.160414 
L 124.229192 83.847145 
L 124.553912 83.856351 
L 124.943575 84.140593 
L 125.398182 84.786217 
L 125.982677 86.01604 
L 126.762004 88.19592 
L 127.801106 91.819045 
L 129.099984 97.228407 
L 130.52875 104.161623 
L 131.957516 112.175333 
L 133.321338 121.046486 
L 134.620216 130.943447 
L 135.85415 142.103073 
L 137.02314 154.790619 
L 138.127186 169.204345 
L 139.296176 187.458452 
L 140.919774 216.855441 
L 142.34854 241.348735 
L 143.19281 252.214414 
L 143.907193 258.62819 
L 144.491688 262.075532 
L 145.011239 263.97283 
L 145.465847 264.885091 
L 145.85551 265.207846 
L 146.18023 265.205335 
L 146.569893 264.927882 
L 147.0245 264.288761 
L 147.608995 263.065558 
L 148.388322 260.892371 
L 149.427424 257.275905 
L 150.726302 251.873235 
L 152.155068 244.947111 
L 153.583834 236.941572 
L 155.0126 227.62309 
L 156.311478 217.656756 
L 157.545412 206.408272 
L 158.714402 193.609402 
L 159.818448 179.065533 
L 160.987438 160.666137 
L 162.740923 128.788849 
L 164.039801 106.899132 
L 164.884072 96.25785 
L 165.533511 90.500695 
L 166.118006 87.027262 
L 166.637557 85.110514 
L 167.092165 84.184221 
L 167.481828 83.851476 
L 167.806547 83.846927 
L 168.196211 84.117213 
L 168.650818 84.749469 
L 169.235313 85.965683 
L 170.01464 88.131821 
L 171.053742 91.741315 
L 172.35262 97.137061 
L 173.781386 104.05595 
L 175.210152 112.053236 
L 176.638918 121.361171 
L 177.937796 131.314647 
L 179.17173 142.546653 
L 180.34072 155.324886 
L 181.444766 169.844671 
L 182.613756 188.217319 
L 184.302298 218.884459 
L 185.666119 242.008547 
L 186.51039 252.691403 
L 187.159829 258.48126 
L 187.744324 261.980884 
L 188.263875 263.917177 
L 188.718483 264.857582 
L 189.108146 265.200378 
L 189.432865 265.212029 
L 189.822529 264.948953 
L 190.277136 264.323606 
L 190.861631 263.114421 
L 191.640958 260.95537 
L 192.68006 257.352876 
L 193.978938 251.96407 
L 195.407704 245.052417 
L 196.83647 237.063374 
L 198.265236 227.765967 
L 199.564114 217.825322 
L 200.798048 206.609755 
L 201.967038 193.852114 
L 203.071084 179.356381 
L 204.240074 161.010508 
L 205.928616 130.358078 
L 207.292437 107.195718 
L 208.136708 96.47136 
L 208.851091 90.180456 
L 209.435586 86.821902 
L 209.955137 84.990652 
L 210.409744 84.125991 
L 210.799408 83.837104 
L 211.124127 83.86354 
L 211.513791 84.165278 
L 211.968398 84.827672 
L 212.617837 86.236396 
L 213.462108 88.686661 
L 214.566154 92.668551 
L 215.865032 98.226291 
L 217.293798 105.317384 
L 218.722563 113.51334 
L 220.086385 122.60678 
L 221.385263 132.786419 
L 222.619197 144.308439 
L 223.788187 157.44919 
L 224.892234 172.389125 
L 226.126168 192.350702 
L 229.438307 248.749712 
L 230.152689 256.242672 
L 230.802128 260.868301 
L 231.386624 263.459602 
L 231.841231 264.616512 
L 232.230894 265.113916 
L 232.555614 265.234974 
L 232.880333 265.128658 
L 233.269997 264.745845 
L 233.789548 263.877567 
L 234.503931 262.159105 
L 235.413145 259.313885 
L 236.582135 254.853267 
L 237.945957 248.733202 
L 239.439667 240.952588 
L 240.868433 232.308658 
L 242.232254 222.658353 
L 243.466189 212.356316 
L 244.635179 200.747925 
L 245.739225 187.62101 
L 246.908215 170.891181 
L 248.207093 148.766384 
L 250.674961 105.610465 
L 251.454288 96.002464 
L 252.103727 90.324246 
L 252.688222 86.913862 
L 253.207773 85.044084 
L 253.66238 84.151669 
L 254.052044 83.843039 
L 254.376763 83.85553 
L 254.766427 84.143113 
L 255.221034 84.791941 
L 255.870473 86.185515 
L 256.714744 88.621184 
L 257.81879 92.588963 
L 259.117668 98.133171 
L 260.546434 105.209638 
L 261.975199 113.388538 
L 263.339021 122.461056 
L 264.637899 132.614009 
L 265.871833 144.101789 
L 267.040823 157.199823 
L 268.14487 172.090581 
L 269.378804 191.997209 
L 272.755886 249.294436 
L 273.470269 256.625872 
L 274.119708 261.115726 
L 274.639259 263.391856 
L 275.093867 264.578984 
L 275.48353 265.098033 
L 275.80825 265.23443 
L 276.132969 265.141298 
L 276.522633 264.771866 
L 277.042184 263.918054 
L 277.691623 262.390978 
L 278.600837 259.606339 
L 279.769827 255.20424 
L 281.133649 249.142487 
L 282.627359 241.428418 
L 284.056125 232.862052 
L 285.419947 223.309109 
L 286.653881 213.125479 
L 287.822871 201.666449 
L 288.991861 187.883661 
L 290.160851 171.207566 
L 291.459729 149.134275 
L 293.992541 104.979687 
L 294.771868 95.543752 
L 295.421307 90.009169 
L 296.005802 86.712898 
L 296.525353 84.927849 
L 296.97996 84.096429 
L 297.369624 83.831171 
L 297.694343 83.874293 
L 298.084007 84.192969 
L 298.538614 84.871597 
L 299.188053 86.298462 
L 300.032324 88.76623 
L 301.13637 92.765085 
L 302.435248 98.339154 
L 303.864014 105.447954 
L 305.292779 113.664604 
L 306.656601 122.783456 
L 307.955479 132.995529 
L 309.189413 144.55917 
L 310.358403 157.751818 
L 311.46245 172.751369 
L 312.696384 192.779129 
L 315.943579 248.247962 
L 316.657961 255.887165 
L 317.3074 260.636803 
L 317.891895 263.322634 
L 318.346503 264.540229 
L 318.736166 265.081116 
L 319.060886 265.232996 
L 319.385605 265.153174 
L 319.775269 264.797251 
L 320.29482 263.958038 
L 320.944259 262.44508 
L 321.788529 259.893855 
L 322.892576 255.81341 
L 324.256397 249.855081 
L 325.685163 242.611736 
L 327.113929 234.236315 
L 328.477751 224.921428 
L 329.776629 214.458444 
L 330.945619 203.255447 
L 332.114609 189.804921 
L 333.218655 174.511229 
L 334.452589 154.164119 
L 337.504953 101.759745 
L 338.284279 93.258735 
L 338.933718 88.477939 
L 339.518213 85.768278 
L 339.972821 84.535357 
L 340.362484 83.983477 
L 340.687204 83.823801 
L 341.011923 83.896921 
L 341.401586 84.246042 
L 341.921138 85.077904 
L 342.570577 86.583757 
L 343.414847 89.12807 
L 344.518894 93.201712 
L 345.882715 99.153033 
L 347.311481 106.388964 
L 348.740247 114.755567 
L 350.104069 124.059519 
L 351.402947 134.508474 
L 352.571937 145.69454 
L 353.740927 159.123032 
L 354.844973 174.391731 
L 356.078907 194.712184 
L 359.131271 247.165556 
L 359.910597 255.706341 
L 360.560036 260.518356 
L 361.144531 263.251925 
L 361.599139 264.500235 
L 361.988802 265.063156 
L 362.313522 265.230664 
L 362.638241 265.164279 
L 363.027904 264.821993 
L 363.547456 263.997516 
L 364.196895 262.498797 
L 365.041165 259.961422 
L 366.145212 255.8946 
L 367.509033 249.95029 
L 368.937799 242.721768 
L 370.366565 234.363969 
L 371.730387 225.07093 
L 373.029265 214.635969 
L 374.198255 203.466794 
L 375.367245 190.06029 
L 376.471291 174.816558 
L 377.705225 154.522826 
L 380.757589 102.021131 
L 381.536915 93.440586 
L 382.186354 88.597291 
L 382.770849 85.839735 
L 383.225457 84.575974 
L 383.61512 84.001963 
L 383.93984 83.826586 
L 384.264559 83.886205 
L 384.654222 84.221623 
L 385.173774 85.038681 
L 385.823213 86.530234 
L 386.667483 89.060646 
L 387.77153 93.120633 
L 389.135351 99.057926 
L 390.564117 106.279044 
L 391.992883 114.628053 
L 393.356705 123.910204 
L 394.655583 134.331203 
L 395.824573 145.483528 
L 396.993563 158.868088 
L 398.097609 174.086879 
L 398.487273 180.123771 
L 398.487273 180.123771 
" clip-path="url(#pb930c44e9b)" style="fill: none; stroke: #1f77b4; stroke-width: 1.5; stroke-linecap: square"/>
   </g>
   <g id="line2d_13">
    <path d="M 73.832727 84.207235 
L 75.131605 67.597961 
L 75.651156 63.319777 
L 75.975876 61.991591 
L 76.170708 61.815913 
L 76.300595 61.98649 
L 76.495427 62.702624 
L 76.755203 64.561002 
L 77.144866 69.344261 
L 77.664417 79.274423 
L 78.3788 97.981148 
L 80.392061 153.357698 
L 81.171388 168.199893 
L 81.950715 178.981148 
L 82.730041 186.675118 
L 83.509368 192.24709 
L 84.353639 196.762982 
L 85.392741 201.104093 
L 89.549151 217.223304 
L 90.588253 222.9326 
L 91.562411 229.614553 
L 92.471626 237.393691 
L 93.445784 247.783874 
L 94.484887 261.41883 
L 96.692979 291.761982 
L 97.082643 294.448872 
L 97.342418 295.172743 
L 97.472306 295.160441 
L 97.667138 294.63072 
L 97.926913 292.907708 
L 98.251633 289.044383 
L 98.70624 280.494056 
L 99.355679 263.00398 
L 101.758603 192.115875 
L 102.53793 177.742801 
L 103.252313 168.358891 
L 103.966696 161.631735 
L 104.746023 156.345601 
L 105.590293 152.131618 
L 106.629396 148.127432 
L 108.772544 141.090558 
L 110.136366 136.122507 
L 111.240412 131.224091 
L 112.214571 125.890373 
L 113.188729 119.23914 
L 114.097944 111.471798 
L 115.072102 101.077118 
L 116.111205 87.417809 
L 118.319297 57.000202 
L 118.708961 54.315926 
L 118.968736 53.600477 
L 119.098624 53.619271 
L 119.293456 54.161739 
L 119.553231 55.907418 
L 119.877951 59.807668 
L 120.332558 68.422159 
L 120.981997 86.012679 
L 123.384921 157.054919 
L 124.164248 171.410905 
L 124.878631 180.773497 
L 125.593014 187.48022 
L 126.372341 192.747567 
L 127.216611 196.945559 
L 128.255714 200.934927 
L 130.463806 208.16823 
L 131.827628 213.166535 
L 132.931674 218.113141 
L 133.905833 223.509706 
L 134.879991 230.246694 
L 135.789206 238.117154 
L 136.763364 248.642968 
L 137.802467 262.435872 
L 139.945615 291.975363 
L 140.335279 294.70307 
L 140.595054 295.454397 
L 140.724942 295.45538 
L 140.85483 295.185376 
L 141.049662 294.243699 
L 141.374381 291.168783 
L 141.764044 284.953841 
L 142.283596 272.752021 
L 143.127866 246.674368 
L 144.556632 202.997067 
L 145.335959 185.606364 
L 146.050342 174.004791 
L 146.764725 165.678462 
L 147.479107 159.693485 
L 148.258434 154.935677 
L 149.167649 150.801505 
L 150.336639 146.618269 
L 153.389002 136.190477 
L 154.493048 131.313307 
L 155.467207 126.004241 
L 156.441365 119.384952 
L 157.35058 111.655058 
L 158.324738 101.307415 
L 159.363841 87.695906 
L 161.636877 56.596096 
L 162.026541 54.1156 
L 162.286316 53.568588 
L 162.416204 53.680235 
L 162.611036 54.370889 
L 162.870811 56.325938 
L 163.260475 61.557015 
L 163.715082 71.01084 
L 164.429465 91.480438 
L 166.377782 150.661448 
L 167.157109 166.816624 
L 167.871491 177.478787 
L 168.585874 185.114741 
L 169.365201 191.050337 
L 170.144528 195.373598 
L 171.053742 199.222076 
L 172.35262 203.673914 
L 174.690601 211.563384 
L 175.794647 216.154281 
L 176.833749 221.465804 
L 177.807908 227.682523 
L 178.717122 234.927345 
L 179.626337 243.92948 
L 180.600495 255.821653 
L 181.964317 275.691747 
L 183.00342 289.812516 
L 183.522971 294.258229 
L 183.84769 295.431085 
L 183.977578 295.472919 
L 184.107466 295.246049 
L 184.302298 294.372551 
L 184.562073 292.161269 
L 184.951737 286.542945 
L 185.471288 275.020465 
L 186.250614 251.609357 
L 187.874212 201.855332 
L 188.653539 184.766005 
L 189.367922 173.397574 
L 190.082304 165.244131 
L 190.796687 159.377954 
L 191.576014 154.703155 
L 192.485229 150.624075 
L 193.654219 146.470962 
L 196.576694 136.528261 
L 197.680741 131.727471 
L 198.654899 126.515121 
L 199.629057 120.026338 
L 200.538272 112.452993 
L 201.51243 102.305687 
L 202.551533 88.904259 
L 204.954457 56.223815 
L 205.34412 53.952509 
L 205.538952 53.575199 
L 205.66884 53.644968 
L 205.863672 54.268906 
L 206.123447 56.129931 
L 206.448167 60.178091 
L 206.902774 68.986155 
L 207.552213 86.77278 
L 209.890193 156.182043 
L 210.66952 170.789155 
L 211.383903 180.328617 
L 212.098286 187.160018 
L 212.877613 192.516105 
L 213.721883 196.771179 
L 214.760986 200.795301 
L 216.709303 207.169716 
L 218.138068 212.233645 
L 219.242115 216.969158 
L 220.216273 222.098483 
L 221.190432 228.474916 
L 222.099646 235.912946 
L 223.008861 245.149036 
L 224.047963 258.197721 
L 226.710663 293.72382 
L 227.035382 295.265271 
L 227.230214 295.483695 
L 227.360102 295.299651 
L 227.554934 294.493989 
L 227.814709 292.377525 
L 228.204373 286.901918 
L 228.723924 275.545452 
L 229.50325 252.269973 
L 231.126848 202.369847 
L 231.906175 185.144268 
L 232.620558 173.670776 
L 233.33494 165.439557 
L 234.049323 159.519993 
L 234.82865 154.807922 
L 235.737865 150.704135 
L 236.906855 146.537563 
L 239.894274 136.351558 
L 240.99832 131.51099 
L 241.972479 126.248213 
L 242.946637 119.691337 
L 243.855852 112.036225 
L 244.83001 101.784037 
L 245.869113 88.271846 
L 248.207093 56.389784 
L 248.596756 54.022938 
L 248.791588 53.588128 
L 248.921476 53.616382 
L 249.116308 54.174045 
L 249.376083 55.941383 
L 249.700803 59.869657 
L 250.15541 68.521331 
L 250.804849 86.150623 
L 253.207773 157.156583 
L 253.9871 171.483765 
L 254.701483 180.825838 
L 255.415866 187.517947 
L 256.195192 192.774765 
L 257.039463 196.965863 
L 258.078566 200.950878 
L 260.351602 208.402654 
L 261.65048 213.18403 
L 262.754526 218.134527 
L 263.728685 223.536049 
L 264.702843 230.279735 
L 265.612058 238.158201 
L 266.586216 248.694131 
L 267.625319 262.497192 
L 269.768467 292.014109 
L 270.158131 294.723064 
L 270.417906 295.458805 
L 270.547794 295.451169 
L 270.742626 294.926474 
L 271.002401 293.205844 
L 271.327121 289.337527 
L 271.781728 280.764441 
L 272.431167 263.214966 
L 274.834091 192.118209 
L 275.613418 177.727946 
L 276.327801 168.341532 
L 277.042184 161.618187 
L 277.82151 156.339136 
L 278.665781 152.133728 
L 279.704884 148.139991 
L 281.848032 141.124884 
L 283.211854 136.17356 
L 284.3159 131.292533 
L 285.290059 125.978593 
L 286.264217 119.352737 
L 287.173432 111.614982 
L 288.14759 101.257331 
L 289.186693 87.635493 
L 291.459729 56.559971 
L 291.849392 54.098985 
L 292.109168 53.568 
L 292.239056 53.68845 
L 292.433888 54.393112 
L 292.693663 56.367865 
L 293.083326 61.6289 
L 293.537934 71.114244 
L 294.252317 91.615255 
L 296.200634 150.763385 
L 296.97996 166.8906 
L 297.694343 177.531981 
L 298.408726 185.152844 
L 299.188053 191.077475 
L 299.96738 195.393954 
L 300.876594 199.238031 
L 302.175472 203.68756 
L 304.513453 211.57942 
L 305.617499 216.173705 
L 306.656601 221.489937 
L 307.63076 227.712724 
L 308.539974 234.964905 
L 309.449189 243.975993 
L 310.423347 255.87842 
L 311.787169 275.755336 
L 312.826271 289.858807 
L 313.345823 294.282497 
L 313.670542 295.436525 
L 313.80043 295.469843 
L 313.930318 295.233975 
L 314.125149 294.346241 
L 314.449869 291.36547 
L 314.839532 285.261963 
L 315.359083 273.185196 
L 316.203354 247.202406 
L 317.63212 203.409592 
L 318.411447 185.91083 
L 319.12583 174.22501 
L 319.840212 165.835954 
L 320.554595 159.807771 
L 321.333922 155.019717 
L 322.243137 150.865423 
L 323.412127 146.671098 
L 326.46449 136.254296 
L 327.568536 131.391668 
L 328.542695 126.10098 
L 329.516853 119.50646 
L 330.426068 111.806222 
L 331.400226 101.496381 
L 332.439329 87.92403 
L 334.712365 56.734302 
L 335.102028 54.180581 
L 335.361804 53.573291 
L 335.491692 53.651788 
L 335.686523 54.289641 
L 335.946299 56.170302 
L 336.271019 60.243524 
L 336.725626 69.084157 
L 337.375065 86.903292 
L 339.713045 156.275041 
L 340.492372 170.85552 
L 341.206755 180.376134 
L 341.921138 187.194207 
L 342.700464 192.540781 
L 343.544735 196.789715 
L 344.583837 200.810071 
L 346.532154 207.183638 
L 347.96092 212.250118 
L 349.064966 216.989262 
L 350.039125 222.123213 
L 351.013283 228.505915 
L 351.922498 235.951507 
L 352.831713 245.196708 
L 353.870815 258.256163 
L 356.533515 293.752395 
L 356.858234 295.276004 
L 357.053066 295.481979 
L 357.182954 295.289007 
L 357.377785 294.469192 
L 357.637561 292.332921 
L 358.027224 286.827445 
L 358.546776 275.436124 
L 359.326102 252.131943 
L 360.9497 202.261957 
L 361.729027 185.064891 
L 362.443409 173.61343 
L 363.157792 165.398538 
L 363.872175 159.490189 
L 364.651502 154.785952 
L 365.560717 150.687361 
L 366.729707 146.523626 
L 369.717126 136.334765 
L 370.821172 131.490395 
L 371.795331 126.222807 
L 372.769489 119.65944 
L 373.678704 111.996541 
L 374.652862 101.734395 
L 375.691965 88.211774 
L 378.029945 56.354726 
L 378.419608 54.007743 
L 378.61444 53.584905 
L 378.744328 53.62181 
L 378.939159 54.193295 
L 379.198935 55.980196 
L 379.523655 59.933544 
L 379.978262 68.618009 
L 380.627701 86.280457 
L 383.030625 157.247932 
L 383.809952 171.548781 
L 384.524335 180.872367 
L 385.238718 187.551462 
L 386.018044 192.799021 
L 386.862315 196.984164 
L 387.901417 200.965553 
L 392.057827 215.694558 
L 393.096929 220.895451 
L 394.071088 226.969348 
L 394.980302 234.040581 
L 395.889517 242.830567 
L 396.863675 254.476951 
L 398.097609 272.205903 
L 398.487273 278.061378 
L 398.487273 278.061378 
" clip-path="url(#pb930c44e9b)" style="fill: none; stroke: #ff7f0e; stroke-width: 1.5; stroke-linecap: square"/>
   </g>
   <g id="patch_3">
    <path d="M 57.6 307.584 
L 57.6 41.472 
" style="fill: none; stroke: #000000; stroke-width: 0.8; stroke-linejoin: miter; stroke-linecap: square"/>
   </g>
   <g id="patch_4">
    <path d="M 414.72 307.584 
L 414.72 41.472 
" style="fill: none; stroke: #000000; stroke-width: 0.8; stroke-linejoin: miter; stroke-linecap: square"/>
   </g>
   <g id="patch_5">
    <path d="M 57.6 307.584 
L 414.72 307.584 
" style="fill: none; stroke: #000000; stroke-width: 0.8; stroke-linejoin: miter; stroke-linecap: square"/>
   </g>
   <g id="patch_6">
    <path d="M 57.6 41.472 
L 414.72 41.472 
" style="fill: none; stroke: #000000; stroke-width: 0.8; stroke-linejoin: miter; stroke-linecap: square"/>
   </g>
   <g id="legend_1">
    <g id="patch_7">
     <path d="M 64.6 302.584 
L 118.989062 302.584 
Q 120.989062 302.584 120.989062 300.584 
L 120.989062 272.22775 
Q 120.989062 270.22775 118.989062 270.22775 
L 64.6 270.22775 
Q 62.6 270.22775 62.6 272.22775 
L 62.6 300.584 
Q 62.6 302.584 64.6 302.584 
z
" style="fill: #ffffff; opacity: 0.8; stroke: #cccccc; stroke-linejoin: miter"/>
    </g>
    <g id="line2d_14">
     <path d="M 66.6 278.326187 
L 76.6 278.326187 
L 86.6 278.326187 
" style="fill: none; stroke: #1f77b4; stroke-width: 1.5; stroke-linecap: square"/>
    </g>
    <g id="text_12">
     <!-- y(x) -->
     <g transform="translate(94.6 281.826187) scale(0.1 -0.1)">
      <defs>
       <path id="DejaVuSans-79" d="M 2059 -325 
Q 1816 -950 1584 -1140 
Q 1353 -1331 966 -1331 
L 506 -1331 
L 506 -850 
L 844 -850 
Q 1081 -850 1212 -737 
Q 1344 -625 1503 -206 
L 1606 56 
L 191 3500 
L 800 3500 
L 1894 763 
L 2988 3500 
L 3597 3500 
L 2059 -325 
z
" transform="scale(0.015625)"/>
       <path id="DejaVuSans-28" d="M 1984 4856 
Q 1566 4138 1362 3434 
Q 1159 2731 1159 2009 
Q 1159 1288 1364 580 
Q 1569 -128 1984 -844 
L 1484 -844 
Q 1016 -109 783 600 
Q 550 1309 550 2009 
Q 550 2706 781 3412 
Q 1013 4119 1484 4856 
L 1984 4856 
z
" transform="scale(0.015625)"/>
       <path id="DejaVuSans-78" d="M 3513 3500 
L 2247 1797 
L 3578 0 
L 2900 0 
L 1881 1375 
L 863 0 
L 184 0 
L 1544 1831 
L 300 3500 
L 978 3500 
L 1906 2253 
L 2834 3500 
L 3513 3500 
z
" transform="scale(0.015625)"/>
       <path id="DejaVuSans-29" d="M 513 4856 
L 1013 4856 
Q 1481 4119 1714 3412 
Q 1947 2706 1947 2009 
Q 1947 1309 1714 600 
Q 1481 -109 1013 -844 
L 513 -844 
Q 928 -128 1133 580 
Q 1338 1288 1338 2009 
Q 1338 2731 1133 3434 
Q 928 4138 513 4856 
z
" transform="scale(0.015625)"/>
      </defs>
      <use xlink:href="#DejaVuSans-79"/>
      <use xlink:href="#DejaVuSans-28" x="59.179688"/>
      <use xlink:href="#DejaVuSans-78" x="98.193359"/>
      <use xlink:href="#DejaVuSans-29" x="157.373047"/>
     </g>
    </g>
    <g id="line2d_15">
     <path d="M 66.6 293.004312 
L 76.6 293.004312 
L 86.6 293.004312 
" style="fill: none; stroke: #ff7f0e; stroke-width: 1.5; stroke-linecap: square"/>
    </g>
    <g id="text_13">
     <!-- y'(x) -->
     <g transform="translate(94.6 296.504312) scale(0.1 -0.1)">
      <defs>
       <path id="DejaVuSans-27" d="M 1147 4666 
L 1147 2931 
L 616 2931 
L 616 4666 
L 1147 4666 
z
" transform="scale(0.015625)"/>
      </defs>
      <use xlink:href="#DejaVuSans-79"/>
      <use xlink:href="#DejaVuSans-27" x="59.179688"/>
      <use xlink:href="#DejaVuSans-28" x="86.669922"/>
      <use xlink:href="#DejaVuSans-78" x="125.683594"/>
      <use xlink:href="#DejaVuSans-29" x="184.863281"/>
     </g>
    </g>
   </g>
  </g>
 </g>
 <defs>
  <clipPath id="pb930c44e9b">
   <rect x="57.6" y="41.472" width="357.12" height="266.112"/>
  </clipPath>
 </defs>
</svg>
