<?xml version="1.0" encoding="utf-8" standalone="no"?>
<!DOCTYPE svg PUBLIC "-//W3C//DTD SVG 1.1//EN"
  "http://www.w3.org/Graphics/SVG/1.1/DTD/svg11.dtd">
<svg xmlns:xlink="http://www.w3.org/1999/xlink" width="460.8pt" height="345.6pt" viewBox="0 0 460.8 345.6" xmlns="http://www.w3.org/2000/svg" version="1.1">
 <metadata>
  <rdf:RDF xmlns:dc="http://purl.org/dc/elements/1.1/" xmlns:cc="http://creativecommons.org/ns#" xmlns:rdf="http://www.w3.org/1999/02/22-rdf-syntax-ns#">
   <cc:Work>
    <dc:type rdf:resource="http://purl.org/dc/dcmitype/StillImage"/>
    <dc:date>2022-11-27T09:44:47.964434</dc:date>
    <dc:format>image/svg+xml</dc:format>
    <dc:creator>
     <cc:Agent>
      <dc:title>Matplotlib v3.6.1, https://matplotlib.org/</dc:title>
     </cc:Agent>
    </dc:creator>
   </cc:Work>
  </rdf:RDF>
 </metadata>
 <defs>
  <style type="text/css">*{stroke-linejoin: round; stroke-linecap: butt}</style>
 </defs>
 <g id="figure_1">
  <g id="patch_1">
   <path d="M 0 345.6 
L 460.8 345.6 
L 460.8 0 
L 0 0 
z
" style="fill: #ffffff"/>
  </g>
  <g id="axes_1">
   <g id="patch_2">
    <path d="M 57.6 307.584 
L 414.72 307.584 
L 414.72 41.472 
L 57.6 41.472 
z
" style="fill: #ffffff"/>
   </g>
   <g id="matplotlib.axis_1">
    <g id="xtick_1">
     <g id="line2d_1">
      <defs>
       <path id="mde708b2a6b" d="M 0 0 
L 0 3.5 
" style="stroke: #000000; stroke-width: 0.8"/>
      </defs>
      <g>
       <use xlink:href="#mde708b2a6b" x="74.52434" y="307.584" style="stroke: #000000; stroke-width: 0.8"/>
      </g>
     </g>
     <g id="text_1">
      <!-- −2.0 -->
      <g transform="translate(62.382934 322.182437) scale(0.1 -0.1)">
       <defs>
        <path id="DejaVuSans-2212" d="M 678 2272 
L 4684 2272 
L 4684 1741 
L 678 1741 
L 678 2272 
z
" transform="scale(0.015625)"/>
        <path id="DejaVuSans-32" d="M 1228 531 
L 3431 531 
L 3431 0 
L 469 0 
L 469 531 
Q 828 903 1448 1529 
Q 2069 2156 2228 2338 
Q 2531 2678 2651 2914 
Q 2772 3150 2772 3378 
Q 2772 3750 2511 3984 
Q 2250 4219 1831 4219 
Q 1534 4219 1204 4116 
Q 875 4013 500 3803 
L 500 4441 
Q 881 4594 1212 4672 
Q 1544 4750 1819 4750 
Q 2544 4750 2975 4387 
Q 3406 4025 3406 3419 
Q 3406 3131 3298 2873 
Q 3191 2616 2906 2266 
Q 2828 2175 2409 1742 
Q 1991 1309 1228 531 
z
" transform="scale(0.015625)"/>
        <path id="DejaVuSans-2e" d="M 684 794 
L 1344 794 
L 1344 0 
L 684 0 
L 684 794 
z
" transform="scale(0.015625)"/>
        <path id="DejaVuSans-30" d="M 2034 4250 
Q 1547 4250 1301 3770 
Q 1056 3291 1056 2328 
Q 1056 1369 1301 889 
Q 1547 409 2034 409 
Q 2525 409 2770 889 
Q 3016 1369 3016 2328 
Q 3016 3291 2770 3770 
Q 2525 4250 2034 4250 
z
M 2034 4750 
Q 2819 4750 3233 4129 
Q 3647 3509 3647 2328 
Q 3647 1150 3233 529 
Q 2819 -91 2034 -91 
Q 1250 -91 836 529 
Q 422 1150 422 2328 
Q 422 3509 836 4129 
Q 1250 4750 2034 4750 
z
" transform="scale(0.015625)"/>
       </defs>
       <use xlink:href="#DejaVuSans-2212"/>
       <use xlink:href="#DejaVuSans-32" x="83.789062"/>
       <use xlink:href="#DejaVuSans-2e" x="147.412109"/>
       <use xlink:href="#DejaVuSans-30" x="179.199219"/>
      </g>
     </g>
    </g>
    <g id="xtick_2">
     <g id="line2d_2">
      <g>
       <use xlink:href="#mde708b2a6b" x="114.933269" y="307.584" style="stroke: #000000; stroke-width: 0.8"/>
      </g>
     </g>
     <g id="text_2">
      <!-- −1.5 -->
      <g transform="translate(102.791863 322.182437) scale(0.1 -0.1)">
       <defs>
        <path id="DejaVuSans-31" d="M 794 531 
L 1825 531 
L 1825 4091 
L 703 3866 
L 703 4441 
L 1819 4666 
L 2450 4666 
L 2450 531 
L 3481 531 
L 3481 0 
L 794 0 
L 794 531 
z
" transform="scale(0.015625)"/>
        <path id="DejaVuSans-35" d="M 691 4666 
L 3169 4666 
L 3169 4134 
L 1269 4134 
L 1269 2991 
Q 1406 3038 1543 3061 
Q 1681 3084 1819 3084 
Q 2600 3084 3056 2656 
Q 3513 2228 3513 1497 
Q 3513 744 3044 326 
Q 2575 -91 1722 -91 
Q 1428 -91 1123 -41 
Q 819 9 494 109 
L 494 744 
Q 775 591 1075 516 
Q 1375 441 1709 441 
Q 2250 441 2565 725 
Q 2881 1009 2881 1497 
Q 2881 1984 2565 2268 
Q 2250 2553 1709 2553 
Q 1456 2553 1204 2497 
Q 953 2441 691 2322 
L 691 4666 
z
" transform="scale(0.015625)"/>
       </defs>
       <use xlink:href="#DejaVuSans-2212"/>
       <use xlink:href="#DejaVuSans-31" x="83.789062"/>
       <use xlink:href="#DejaVuSans-2e" x="147.412109"/>
       <use xlink:href="#DejaVuSans-35" x="179.199219"/>
      </g>
     </g>
    </g>
    <g id="xtick_3">
     <g id="line2d_3">
      <g>
       <use xlink:href="#mde708b2a6b" x="155.342198" y="307.584" style="stroke: #000000; stroke-width: 0.8"/>
      </g>
     </g>
     <g id="text_3">
      <!-- −1.0 -->
      <g transform="translate(143.200791 322.182437) scale(0.1 -0.1)">
       <use xlink:href="#DejaVuSans-2212"/>
       <use xlink:href="#DejaVuSans-31" x="83.789062"/>
       <use xlink:href="#DejaVuSans-2e" x="147.412109"/>
       <use xlink:href="#DejaVuSans-30" x="179.199219"/>
      </g>
     </g>
    </g>
    <g id="xtick_4">
     <g id="line2d_4">
      <g>
       <use xlink:href="#mde708b2a6b" x="195.751126" y="307.584" style="stroke: #000000; stroke-width: 0.8"/>
      </g>
     </g>
     <g id="text_4">
      <!-- −0.5 -->
      <g transform="translate(183.60972 322.182437) scale(0.1 -0.1)">
       <use xlink:href="#DejaVuSans-2212"/>
       <use xlink:href="#DejaVuSans-30" x="83.789062"/>
       <use xlink:href="#DejaVuSans-2e" x="147.412109"/>
       <use xlink:href="#DejaVuSans-35" x="179.199219"/>
      </g>
     </g>
    </g>
    <g id="xtick_5">
     <g id="line2d_5">
      <g>
       <use xlink:href="#mde708b2a6b" x="236.160055" y="307.584" style="stroke: #000000; stroke-width: 0.8"/>
      </g>
     </g>
     <g id="text_5">
      <!-- 0.0 -->
      <g transform="translate(228.208492 322.182437) scale(0.1 -0.1)">
       <use xlink:href="#DejaVuSans-30"/>
       <use xlink:href="#DejaVuSans-2e" x="63.623047"/>
       <use xlink:href="#DejaVuSans-30" x="95.410156"/>
      </g>
     </g>
    </g>
    <g id="xtick_6">
     <g id="line2d_6">
      <g>
       <use xlink:href="#mde708b2a6b" x="276.568983" y="307.584" style="stroke: #000000; stroke-width: 0.8"/>
      </g>
     </g>
     <g id="text_6">
      <!-- 0.5 -->
      <g transform="translate(268.617421 322.182437) scale(0.1 -0.1)">
       <use xlink:href="#DejaVuSans-30"/>
       <use xlink:href="#DejaVuSans-2e" x="63.623047"/>
       <use xlink:href="#DejaVuSans-35" x="95.410156"/>
      </g>
     </g>
    </g>
    <g id="xtick_7">
     <g id="line2d_7">
      <g>
       <use xlink:href="#mde708b2a6b" x="316.977912" y="307.584" style="stroke: #000000; stroke-width: 0.8"/>
      </g>
     </g>
     <g id="text_7">
      <!-- 1.0 -->
      <g transform="translate(309.026349 322.182437) scale(0.1 -0.1)">
       <use xlink:href="#DejaVuSans-31"/>
       <use xlink:href="#DejaVuSans-2e" x="63.623047"/>
       <use xlink:href="#DejaVuSans-30" x="95.410156"/>
      </g>
     </g>
    </g>
    <g id="xtick_8">
     <g id="line2d_8">
      <g>
       <use xlink:href="#mde708b2a6b" x="357.386841" y="307.584" style="stroke: #000000; stroke-width: 0.8"/>
      </g>
     </g>
     <g id="text_8">
      <!-- 1.5 -->
      <g transform="translate(349.435278 322.182437) scale(0.1 -0.1)">
       <use xlink:href="#DejaVuSans-31"/>
       <use xlink:href="#DejaVuSans-2e" x="63.623047"/>
       <use xlink:href="#DejaVuSans-35" x="95.410156"/>
      </g>
     </g>
    </g>
    <g id="xtick_9">
     <g id="line2d_9">
      <g>
       <use xlink:href="#mde708b2a6b" x="397.795769" y="307.584" style="stroke: #000000; stroke-width: 0.8"/>
      </g>
     </g>
     <g id="text_9">
      <!-- 2.0 -->
      <g transform="translate(389.844207 322.182437) scale(0.1 -0.1)">
       <use xlink:href="#DejaVuSans-32"/>
       <use xlink:href="#DejaVuSans-2e" x="63.623047"/>
       <use xlink:href="#DejaVuSans-30" x="95.410156"/>
      </g>
     </g>
    </g>
   </g>
   <g id="matplotlib.axis_2">
    <g id="ytick_1">
     <g id="line2d_10">
      <defs>
       <path id="mda28329f7a" d="M 0 0 
L -3.5 0 
" style="stroke: #000000; stroke-width: 0.8"/>
      </defs>
      <g>
       <use xlink:href="#mda28329f7a" x="57.6" y="264.848509" style="stroke: #000000; stroke-width: 0.8"/>
      </g>
     </g>
     <g id="text_10">
      <!-- −2 -->
      <g transform="translate(35.857813 268.647728) scale(0.1 -0.1)">
       <use xlink:href="#DejaVuSans-2212"/>
       <use xlink:href="#DejaVuSans-32" x="83.789062"/>
      </g>
     </g>
    </g>
    <g id="ytick_2">
     <g id="line2d_11">
      <g>
       <use xlink:href="#mda28329f7a" x="57.6" y="219.688191" style="stroke: #000000; stroke-width: 0.8"/>
      </g>
     </g>
     <g id="text_11">
      <!-- −1 -->
      <g transform="translate(35.857813 223.487409) scale(0.1 -0.1)">
       <use xlink:href="#DejaVuSans-2212"/>
       <use xlink:href="#DejaVuSans-31" x="83.789062"/>
      </g>
     </g>
    </g>
    <g id="ytick_3">
     <g id="line2d_12">
      <g>
       <use xlink:href="#mda28329f7a" x="57.6" y="174.527872" style="stroke: #000000; stroke-width: 0.8"/>
      </g>
     </g>
     <g id="text_12">
      <!-- 0 -->
      <g transform="translate(44.2375 178.327091) scale(0.1 -0.1)">
       <use xlink:href="#DejaVuSans-30"/>
      </g>
     </g>
    </g>
    <g id="ytick_4">
     <g id="line2d_13">
      <g>
       <use xlink:href="#mda28329f7a" x="57.6" y="129.367554" style="stroke: #000000; stroke-width: 0.8"/>
      </g>
     </g>
     <g id="text_13">
      <!-- 1 -->
      <g transform="translate(44.2375 133.166773) scale(0.1 -0.1)">
       <use xlink:href="#DejaVuSans-31"/>
      </g>
     </g>
    </g>
    <g id="ytick_5">
     <g id="line2d_14">
      <g>
       <use xlink:href="#mda28329f7a" x="57.6" y="84.207235" style="stroke: #000000; stroke-width: 0.8"/>
      </g>
     </g>
     <g id="text_14">
      <!-- 2 -->
      <g transform="translate(44.2375 88.006454) scale(0.1 -0.1)">
       <use xlink:href="#DejaVuSans-32"/>
      </g>
     </g>
    </g>
   </g>
   <g id="line2d_15">
    <path d="M 236.160055 84.207235 
L 244.443515 79.709406 
L 251.357571 76.191635 
L 258.518491 72.82797 
L 264.042883 70.46128 
L 269.689688 68.277163 
L 275.447827 66.324041 
L 281.303524 64.653636 
L 285.253436 63.723638 
L 289.23374 62.959361 
L 293.238217 62.376817 
L 297.260083 61.991591 
L 301.292004 61.818528 
L 305.326135 61.871401 
L 309.354161 62.162568 
L 313.367356 62.702624 
L 317.356649 63.50007 
L 321.312707 64.561002 
L 325.226027 65.888837 
L 329.087032 67.484099 
L 332.886182 69.344261 
L 336.614084 71.463664 
L 340.261602 73.833523 
L 343.81997 76.442008 
L 347.280898 79.274423 
L 350.636669 82.313459 
L 353.880231 85.539516 
L 357.005265 88.931098 
L 360.006253 92.465239 
L 362.878517 96.117965 
L 365.618251 99.864771 
L 369.473194 105.607705 
L 373.017355 111.426157 
L 376.248754 117.243995 
L 379.169321 122.992292 
L 381.784451 128.611019 
L 384.102503 134.050049 
L 386.13425 139.269495 
L 388.419941 145.836943 
L 390.252752 151.916753 
L 391.668454 157.489097 
L 392.703471 162.554686 
L 393.393583 167.129764 
L 393.77299 171.241485 
L 393.873677 174.923942 
L 393.725033 178.214968 
L 393.35368 181.153687 
L 392.783445 183.77875 
L 392.035445 186.12714 
L 391.128228 188.233426 
L 390.077969 190.129369 
L 388.898674 191.843765 
L 387.261288 193.770578 
L 385.460732 195.498304 
L 383.513065 197.065112 
L 380.999639 198.77856 
L 377.845548 200.607027 
L 373.971525 202.546813 
L 369.290363 204.626346 
L 362.532795 207.370852 
L 336.938285 217.545667 
L 328.101562 221.385669 
L 319.363254 225.427356 
L 310.83593 229.614553 
L 301.585713 234.420532 
L 291.505121 239.941921 
L 280.471758 246.264129 
L 265.497407 255.142871 
L 243.712086 268.072656 
L 233.353776 273.929279 
L 226.098927 277.811617 
L 218.569485 281.584415 
L 212.748706 284.282944 
L 206.787229 286.815277 
L 200.695412 289.126815 
L 194.486683 291.158046 
L 190.290699 292.325356 
L 186.055926 293.320711 
L 181.788866 294.12468 
L 177.496714 294.718047 
L 173.187345 295.082189 
L 168.869284 295.199485 
L 164.551662 295.053757 
L 160.244159 294.63072 
L 155.956925 293.918429 
L 151.70049 292.907708 
L 147.485659 291.592533 
L 143.323389 289.970367 
L 139.224663 288.042399 
L 135.200355 285.813707 
L 131.261083 283.293301 
L 127.417075 280.494056 
L 123.678031 277.432526 
L 120.052997 274.128646 
L 116.550247 270.605333 
L 113.177193 266.887995 
L 109.940297 263.00398 
L 106.845015 258.981975 
L 103.895762 254.851394 
L 101.095896 250.641766 
L 97.180958 244.24244 
L 93.610593 237.823865 
L 90.383496 231.471181 
L 87.494068 225.25878 
L 84.93304 219.24882 
L 82.688149 213.490642 
L 80.744824 208.020967 
L 78.594632 201.218352 
L 76.910512 195.002149 
L 75.650206 189.375701 
L 74.771996 184.321807 
L 74.235949 179.808881 
L 74.004752 175.796245 
L 74.0442 172.238392 
L 74.323422 169.088214 
L 74.814908 166.299306 
L 75.494395 163.827488 
L 76.340678 161.631735 
L 77.335359 159.674641 
L 78.462583 157.922573 
L 79.708769 156.345601 
L 81.416345 154.580662 
L 83.273109 153.003617 
L 85.677156 151.306455 
L 88.254259 149.771595 
L 91.459886 148.127432 
L 95.366355 146.372886 
L 100.593924 144.269048 
L 109.740219 140.871747 
L 125.398596 135.057553 
L 135.014933 131.224091 
L 143.903632 127.425558 
L 152.683184 123.410311 
L 161.244247 119.23914 
L 170.526164 114.442522 
L 179.469309 109.575759 
L 190.421049 103.34321 
L 203.853135 95.417581 
L 230.242362 79.773858 
L 238.939814 74.875385 
L 246.21302 70.982347 
L 253.761574 67.19926 
L 259.597153 64.493686 
L 265.573785 61.955257 
L 271.68105 59.638951 
L 277.90544 57.604688 
L 282.11193 56.436534 
L 286.357222 55.44142 
L 290.634771 54.638902 
L 294.937336 54.04831 
L 299.256994 53.688368 
L 303.585167 53.576784 
L 307.912668 53.729799 
L 312.229761 54.161739 
L 316.526237 54.88456 
L 320.791509 55.907418 
L 325.014714 57.236281 
L 329.184842 58.873598 
L 333.290857 60.818053 
L 337.321844 63.064412 
L 341.267144 65.603476 
L 345.116497 68.422159 
L 348.860179 71.503674 
L 352.48913 74.82784 
L 355.995068 78.371489 
L 359.370585 82.108964 
L 362.609231 86.012679 
L 365.705568 90.05372 
L 368.655209 94.202474 
L 371.454831 98.429233 
L 375.368304 104.851995 
L 378.936027 111.290983 
L 382.159472 117.660862 
L 385.044412 123.887194 
L 387.60029 129.907905 
L 389.839535 135.673844 
L 391.776873 141.148556 
L 393.918785 147.954195 
L 395.59454 154.169935 
L 396.846616 159.793222 
L 397.716897 164.841976 
L 398.245435 169.348411 
L 398.469621 173.353721 
L 398.423704 176.903822 
L 398.138574 180.046131 
L 397.641741 182.827279 
L 396.957453 185.291599 
L 396.106894 187.48022 
L 395.108432 189.430602 
L 393.977893 191.176407 
L 392.728823 192.747567 
L 391.018201 194.505854 
L 389.158958 196.076886 
L 386.752606 197.76759 
L 384.173852 199.296708 
L 380.967033 200.934927 
L 377.060056 202.68346 
L 371.289731 204.988695 
L 361.477942 208.608666 
L 347.041336 213.967677 
L 337.433154 217.791824 
L 328.553178 221.581143 
L 319.783255 225.586611 
L 311.232466 229.747613 
L 301.962575 234.532638 
L 293.031775 239.387921 
L 282.095975 245.606534 
L 268.684273 253.51647 
L 242.33539 269.14143 
L 233.65055 274.039585 
L 226.387342 277.935382 
L 218.848472 281.724632 
L 213.01979 284.437485 
L 207.049596 286.98579 
L 200.948163 289.314831 
L 194.728841 291.3649 
L 190.52522 292.54537 
L 186.282331 293.554244 
L 182.006667 294.371963 
L 177.705417 294.979162 
L 173.386456 295.357054 
L 169.058314 295.487838 
L 164.730136 295.355142 
L 160.411621 294.944479 
L 156.112947 294.243699 
L 151.844678 293.243419 
L 147.617661 291.937421 
L 143.442902 290.322982 
L 139.331439 288.401129 
L 135.294205 286.176803 
L 131.341884 283.658908 
L 127.484771 280.86025 
L 123.732636 277.797352 
L 120.094594 274.490158 
L 116.578991 270.961632 
L 113.193302 267.237272 
L 109.944053 263.344546 
L 106.836758 259.312293 
L 103.875885 255.170104 
L 101.064835 250.947704 
L 97.134024 244.527491 
L 93.548948 238.08659 
L 90.308363 231.710836 
L 87.406691 225.475263 
L 84.834655 219.442583 
L 82.579952 213.662594 
L 80.627955 208.17237 
L 78.467841 201.34473 
L 76.775483 195.106507 
L 75.508404 189.461134 
L 74.624668 184.391327 
L 74.084132 179.86529 
L 73.849292 175.842069 
L 73.885773 172.27585 
L 74.162557 169.119218 
L 74.652006 166.325471 
L 75.329754 163.850165 
L 76.174505 161.652039 
L 77.16779 159.693485 
L 78.293695 157.9407 
L 79.538592 156.363612 
L 81.244538 154.599201 
L 83.099597 153.023269 
L 85.501436 151.328031 
L 88.076097 149.79559 
L 91.278516 148.154734 
L 95.180774 146.404497 
L 100.402152 144.306771 
L 109.536044 140.921057 
L 125.168576 135.129997 
L 134.76618 131.313307 
L 143.635657 127.532208 
L 152.394471 123.535991 
L 160.933712 119.384952 
L 170.190317 114.611554 
L 179.107631 109.767976 
L 190.026154 103.563773 
L 203.415873 95.670311 
L 229.72131 80.065867 
L 238.392523 75.168542 
L 245.644887 71.270342 
L 253.173206 67.475197 
L 258.994331 64.755189 
L 264.957423 62.197041 
L 271.05236 59.855188 
L 277.265959 57.789105 
L 281.466281 56.596096 
L 285.706346 55.573164 
L 289.979717 54.739868 
L 294.279258 54.1156 
L 298.597148 53.719209 
L 302.924905 53.568588 
L 307.25343 53.680235 
L 311.573065 54.0688 
L 315.873666 54.746633 
L 320.144695 55.723345 
L 324.375325 57.005415 
L 328.554555 58.595847 
L 332.671345 60.493913 
L 336.71475 62.694979 
L 340.674061 65.190449 
L 344.538948 67.967817 
L 348.299594 71.01084 
L 351.94683 74.299825 
L 355.472246 77.812026 
L 358.868296 81.522125 
L 362.128378 85.402785 
L 365.246897 89.42525 
L 368.219303 93.559966 
L 371.042112 97.777198 
L 374.990808 104.193847 
L 378.593831 110.635888 
L 381.852187 117.016984 
L 384.771242 123.261497 
L 387.360099 129.306051 
L 389.63092 135.100178 
L 391.598231 140.60616 
L 393.777391 147.456318 
L 395.487153 153.7177 
L 396.769983 159.385933 
L 397.667866 164.477617 
L 398.221031 169.024089 
L 398.467098 173.066035 
L 398.440568 176.649147 
L 398.172593 179.82083 
L 397.690939 182.627843 
L 397.020098 185.114741 
L 396.18148 187.32292 
L 395.193658 189.290135 
L 394.072643 191.050337 
L 392.832146 192.633739 
L 391.13112 194.404693 
L 389.280456 195.985884 
L 387.295376 197.415394 
L 384.752685 198.975456 
L 381.584426 200.638688 
L 377.718515 202.404095 
L 372.540585 204.508493 
L 364.071561 207.666226 
L 346.554612 214.155735 
L 337.674358 217.69287 
L 328.815411 221.465804 
L 320.067725 225.452814 
L 311.540043 229.593923 
L 302.296729 234.355721 
L 293.392902 239.18761 
L 282.491657 245.377408 
L 269.123922 253.254367 
L 242.861966 268.838078 
L 234.204409 273.734448 
L 226.962918 277.634924 
L 219.445191 281.435808 
L 213.631662 284.162841 
L 207.675719 286.730688 
L 201.587331 289.085199 
L 195.379518 291.167136 
L 191.182542 292.372575 
L 186.945351 293.409459 
L 182.674327 294.258229 
L 178.376551 294.899466 
L 174.059794 295.314267 
L 169.732487 295.484647 
L 165.403681 295.393984 
L 161.082995 295.027466 
L 156.780537 294.372551 
L 152.506818 293.419397 
L 148.272647 292.161269 
L 144.089016 290.594882 
L 139.966966 288.720665 
L 135.917455 286.542945 
L 131.951216 284.070009 
L 128.078614 281.314064 
L 124.309509 278.291071 
L 120.653126 275.020465 
L 117.117937 271.524773 
L 113.711559 267.829131 
L 110.440671 263.960739 
L 107.310947 259.948265 
L 104.32702 255.821223 
L 101.492456 251.609357 
L 98.809765 247.342048 
L 95.073428 240.899053 
L 91.682693 234.48489 
L 88.633805 228.179557 
L 85.919022 222.051278 
L 83.527277 216.155517 
L 81.444877 210.534842 
L 79.122302 203.519129 
L 77.281251 197.086078 
L 75.879422 191.247357 
L 74.874538 185.991758 
L 74.225759 181.291605 
L 73.894644 177.10842 
L 73.845757 173.397574 
L 74.046968 170.111877 
L 74.469537 167.204189 
L 75.088043 164.629199 
L 75.880211 162.344528 
L 76.826673 160.311343 
L 77.910707 158.49459 
L 79.117964 156.862994 
L 80.781853 155.042039 
L 82.599405 153.420604 
L 84.554594 151.959088 
L 87.06472 150.36969 
L 90.198337 148.682468 
L 94.027566 146.900427 
L 99.161891 144.787922 
L 106.979034 141.852734 
L 126.365918 134.667776 
L 135.29989 131.093027 
L 144.21617 127.275533 
L 153.024465 123.238295 
L 161.615114 119.043047 
L 169.856691 114.788285 
L 178.747062 109.968061 
L 189.631069 103.792651 
L 202.976864 95.932203 
L 230.889144 79.394189 
L 239.620718 74.494028 
L 246.921048 70.607349 
L 254.495969 66.839374 
L 260.350416 64.151985 
L 266.344763 61.63846 
L 272.468211 59.354466 
L 276.615493 57.989027 
L 280.809089 56.771274 
L 285.043367 55.720557 
L 289.312001 54.856431 
L 293.607963 54.198339 
L 297.923535 53.765238 
L 302.250338 53.575199 
L 306.579366 53.644968 
L 310.901042 53.989513 
L 315.205293 54.621571 
L 319.481636 55.551207 
L 323.719281 56.785411 
L 327.907246 58.327751 
L 332.034489 60.178091 
L 336.09004 62.332414 
L 340.063144 64.78274 
L 343.943402 67.517164 
L 347.72091 70.520009 
L 351.38639 73.772096 
L 354.931305 77.251126 
L 358.34797 80.932146 
L 361.62963 84.788094 
L 364.770531 88.790397 
L 367.765959 92.909583 
L 370.612261 97.115904 
L 373.30685 101.379932 
L 377.061155 107.822044 
L 380.469784 114.239768 
L 383.536267 120.552541 
L 386.268156 126.691492 
L 388.67636 132.600487 
L 390.774455 138.236296 
L 393.116623 145.274084 
L 394.975644 151.73022 
L 396.393785 157.592008 
L 397.413353 162.86989 
L 398.075266 167.591012 
L 398.41807 171.793525 
L 398.477327 175.521894 
L 398.285298 178.823262 
L 397.870854 181.744809 
L 397.259543 184.331944 
L 396.47376 186.627172 
L 395.532978 188.669472 
L 394.45402 190.494045 
L 393.25132 192.132314 
L 391.592518 193.960198 
L 389.779494 195.587217 
L 387.828386 197.053182 
L 385.322696 198.646669 
L 382.193788 200.337251 
L 378.36953 202.121649 
L 373.241096 204.235358 
L 365.432136 207.169716 
L 345.350244 214.622508 
L 336.361981 218.235622 
L 328.235608 221.721895 
L 319.438556 225.7498 
L 310.85959 229.934993 
L 302.629861 234.179413 
L 293.752914 238.987996 
L 282.886105 245.149036 
L 269.562205 252.992968 
L 241.69601 269.509407 
L 232.978101 274.409127 
L 225.688614 278.298627 
L 218.124211 282.073012 
L 212.27727 284.768012 
L 206.289949 287.291892 
L 200.172891 289.589259 
L 193.939851 291.59985 
L 189.728357 292.749476 
L 185.478765 293.72382 
L 181.197698 294.503332 
L 176.892479 295.068727 
L 172.571106 295.40137 
L 168.242232 295.483695 
L 163.915109 295.299651 
L 159.599533 294.835156 
L 155.305763 294.07855 
L 151.044425 293.021018 
L 146.826404 291.656977 
L 142.662723 289.984394 
L 138.564413 288.005025 
L 134.542368 285.724557 
L 130.607211 283.152639 
L 126.769149 280.302794 
L 123.037836 277.192215 
L 119.422252 273.841451 
L 115.930586 270.273984 
L 112.570139 266.515725 
L 109.34725 262.59445 
L 106.267239 258.539187 
L 103.334373 254.379598 
L 100.551853 250.145368 
L 96.664387 243.717505 
L 93.122759 237.28026 
L 89.925146 230.918225 
L 87.065472 224.704949 
L 84.53404 218.70154 
L 82.318218 212.956169 
L 80.403133 207.504358 
L 78.288897 200.731417 
L 76.638436 194.549283 
L 75.409256 188.959155 
L 74.559543 183.942127 
L 74.049374 179.465328 
L 73.841522 175.487177 
L 73.901923 171.961587 
L 74.199879 168.841123 
L 74.708066 166.079242 
L 75.402417 163.631767 
L 76.261915 161.457768 
L 77.268342 159.519993 
L 78.40601 157.784995 
L 79.661494 156.223047 
L 81.379289 154.474319 
L 83.244936 152.910985 
L 85.65817 151.227465 
L 88.243139 149.703681 
L 91.456601 148.069792 
L 95.370649 146.324204 
L 101.150263 144.020285 
L 110.976567 140.397539 
L 125.434556 135.02762 
L 134.28531 131.51099 
L 143.112801 127.762386 
L 151.827253 123.802828 
L 160.320422 119.691337 
L 169.52405 114.964164 
L 178.387607 110.167198 
L 189.237257 104.020509 
L 202.53931 96.193099 
L 230.359478 79.698415 
L 239.063725 74.799253 
L 246.34236 70.907059 
L 253.896228 67.126416 
L 259.735641 64.423939 
L 265.715908 61.889855 
L 271.826539 59.579278 
L 278.053946 57.552245 
L 282.262215 56.389784 
L 286.509069 55.401082 
L 290.787937 54.605694 
L 295.091554 54.022938 
L 299.41197 53.671516 
L 303.740585 53.569092 
L 308.06819 53.731851 
L 312.385028 54.174045 
L 316.680875 54.907539 
L 320.945128 55.941383 
L 325.166918 57.281426 
L 329.335229 58.929986 
L 333.439026 60.885608 
L 337.467398 63.142915 
L 341.409696 65.692565 
L 345.255678 68.521331 
L 348.995638 71.612294 
L 352.620543 74.945156 
L 356.122137 78.496644 
L 359.493047 82.241016 
L 362.726856 86.150623 
L 365.818165 90.196509 
L 368.762622 94.349039 
L 371.556945 98.578512 
L 375.462335 105.003401 
L 379.021919 111.442329 
L 382.237283 117.810183 
L 385.114298 124.0328 
L 387.662489 130.048406 
L 389.894352 135.808159 
L 391.824662 141.275897 
L 393.957815 148.071481 
L 395.625546 154.276803 
L 396.870344 159.889746 
L 397.734075 164.928555 
L 398.256754 169.42566 
L 398.475722 173.422389 
L 398.425174 176.96472 
L 398.135938 180.100082 
L 397.635469 182.875085 
L 396.947956 185.334017 
L 396.094533 187.517947 
L 395.09352 189.464272 
L 393.960699 191.206589 
L 392.709578 192.774765 
L 390.996667 194.529943 
L 389.135386 196.098456 
L 386.726851 197.786792 
L 384.146136 199.314131 
L 380.937233 200.950878 
L 377.028055 202.698367 
L 371.254865 205.003036 
L 361.438659 208.623644 
L 346.99563 213.98574 
L 337.38291 217.812933 
L 328.498458 221.605656 
L 319.723815 225.614979 
L 311.168131 229.780149 
L 301.892616 234.570047 
L 292.956115 239.430245 
L 282.013017 245.65491 
L 268.592036 253.571768 
L 242.224828 269.205327 
L 233.534242 274.103813 
L 226.266465 277.998578 
L 218.72315 281.785324 
L 212.891285 284.495145 
L 206.918101 287.039285 
L 200.813934 289.36291 
L 194.592205 291.406213 
L 190.387197 292.581389 
L 186.143123 293.584331 
L 181.866496 294.395478 
L 177.564531 294.995481 
L 173.245122 295.365575 
L 168.916822 295.488 
L 164.588795 295.346439 
L 160.270757 294.926474 
L 155.972898 294.216037 
L 151.705796 293.205844 
L 147.480303 291.889786 
L 143.307429 290.265258 
L 139.198212 288.333415 
L 135.163578 286.099326 
L 131.2142 283.572024 
L 127.360359 280.764441 
L 123.611805 277.693215 
L 119.97763 274.378398 
L 116.466153 270.843046 
L 113.084819 267.112727 
L 109.840122 263.214966 
L 106.737542 259.178637 
L 103.781513 255.033345 
L 100.9754 250.808808 
L 97.052096 244.387145 
L 93.474552 237.946766 
L 90.241421 231.573292 
L 87.347039 225.341501 
L 84.782056 219.313829 
L 82.534111 213.539791 
L 80.588532 208.056191 
L 78.436399 201.238007 
L 76.751333 195.009501 
L 75.490853 189.373714 
L 74.613043 184.313075 
L 74.077798 179.7956 
L 73.84766 175.780222 
L 73.88831 172.221079 
L 74.168784 169.070748 
L 74.661499 166.282556 
L 75.34214 163.812104 
L 76.189462 161.618187 
L 77.185036 159.66326 
L 78.312991 157.91358 
L 79.559731 156.339136 
L 81.26774 154.577465 
L 83.124641 153.003736 
L 85.528462 151.310548 
L 88.104914 149.779624 
L 91.30925 148.139991 
L 95.213554 146.390575 
L 100.437382 144.293191 
L 109.575229 140.90679 
L 125.214521 135.112314 
L 134.81658 131.292533 
L 143.690469 127.508013 
L 152.453947 123.507937 
L 160.998032 119.352737 
L 170.260207 114.574479 
L 179.183174 109.726005 
L 190.108936 103.515771 
L 203.507866 95.615407 
L 229.831509 80.002341 
L 238.508435 75.104649 
L 245.765347 71.207436 
L 253.298092 67.414737 
L 259.122389 64.697705 
L 265.088463 62.143657 
L 271.18613 59.807146 
L 277.402136 57.747745 
L 281.603847 56.559971 
L 285.845103 55.542909 
L 290.119443 54.71612 
L 294.41971 54.098985 
L 298.738059 53.710327 
L 303.065987 53.568 
L 307.394378 53.68845 
L 311.713555 54.086261 
L 316.013361 54.773697 
L 320.283246 55.760275 
L 324.512375 57.052365 
L 328.689745 58.652854 
L 332.804316 60.560887 
L 336.845148 62.771704 
L 340.801543 65.276578 
L 344.663184 68.062878 
L 348.420276 71.114244 
L 352.063671 74.410876 
L 355.584986 77.929938 
L 358.976704 81.646035 
L 362.232256 85.531775 
L 365.34608 89.558367 
L 368.313661 93.69624 
L 371.131549 97.915664 
L 375.072759 104.333846 
L 378.668267 110.775445 
L 381.91918 117.154336 
L 384.830953 123.395133 
L 387.412763 129.434737 
L 389.67683 135.222961 
L 391.637722 140.722356 
L 393.808898 147.563094 
L 395.511363 153.814782 
L 396.787588 159.473441 
L 397.679539 164.555959 
L 398.227407 169.093866 
L 398.468765 173.127962 
L 398.438061 176.703991 
L 398.166391 179.869361 
L 397.681467 182.670809 
L 397.007729 185.152844 
L 396.166538 187.356805 
L 395.176425 189.320385 
L 394.053359 191.077475 
L 392.811017 192.658226 
L 391.107928 194.426433 
L 389.255421 196.005416 
L 387.268676 197.433173 
L 384.724167 198.991633 
L 381.553968 200.65356 
L 377.686 202.418073 
L 372.505616 204.522056 
L 364.032909 207.680306 
L 346.50839 214.17358 
L 337.62401 217.713592 
L 328.760661 221.489937 
L 320.008323 225.480794 
L 311.47581 229.626053 
L 302.226941 234.392699 
L 293.317477 239.229474 
L 282.409009 245.425295 
L 269.032085 253.309157 
L 242.751949 268.90156 
L 234.088681 273.798344 
L 226.842641 277.697883 
L 219.320482 281.496384 
L 213.503773 284.220496 
L 207.544837 286.784304 
L 201.453706 289.13354 
L 195.243467 291.208867 
L 191.045087 292.409121 
L 186.806689 293.440185 
L 182.534678 294.282497 
L 178.236158 294.916651 
L 173.918921 295.323765 
L 169.591419 295.485893 
L 165.262723 295.386464 
L 160.942469 295.010734 
L 156.64078 294.346241 
L 152.368178 293.383238 
L 148.13548 292.115099 
L 143.953681 290.538655 
L 139.833823 288.65446 
L 135.786858 286.466969 
L 131.823509 283.984598 
L 127.954126 281.219681 
L 124.188552 278.188296 
L 120.535988 274.909986 
L 117.004881 271.40737 
L 113.602818 267.705661 
L 110.336445 263.832117 
L 107.211405 259.815442 
L 104.232293 255.685168 
L 101.402645 251.471036 
L 97.443539 245.056591 
L 93.830064 238.614004 
L 90.561353 232.229899 
L 87.632163 225.980267 
L 85.033494 219.928866 
L 82.753267 214.126558 
L 80.777018 208.611435 
L 78.586735 201.74819 
L 76.866806 195.473326 
L 75.574772 189.79177 
L 74.66862 184.687324 
L 74.108072 180.128922 
L 73.855441 176.076037 
L 73.876151 172.483051 
L 74.138976 169.30257 
L 74.616071 166.487798 
L 75.282874 163.994118 
L 76.117907 161.780055 
L 77.102533 159.807771 
L 78.220691 158.043227 
L 79.458617 156.456127 
L 81.156767 154.68134 
L 83.004865 153.097068 
L 84.987625 151.665111 
L 87.527784 150.10281 
L 90.693344 148.437756 
L 94.55639 146.671098 
L 99.730907 144.566117 
L 108.19481 141.409095 
L 125.701237 134.92481 
L 134.575757 131.391668 
L 143.428589 127.623472 
L 152.169812 123.641805 
L 160.690782 119.50646 
L 169.926377 114.751397 
L 178.822372 109.926297 
L 189.713583 103.744872 
L 203.068548 95.877517 
L 231.000121 79.330534 
L 239.737411 74.430225 
L 247.042273 70.544762 
L 254.621588 66.779514 
L 260.479168 64.095349 
L 266.476445 61.586199 
L 272.602555 59.307846 
L 276.751427 57.946918 
L 280.946441 56.734302 
L 285.181942 55.689355 
L 289.451581 54.831638 
L 293.748307 54.180581 
L 298.064381 53.75512 
L 302.391402 53.573291 
L 306.720343 53.651788 
L 311.041613 54.005513 
L 315.345122 54.647123 
L 319.620376 55.58659 
L 323.856575 56.830798 
L 328.042736 58.383195 
L 332.167815 60.243524 
L 336.220848 62.407639 
L 340.191088 64.867431 
L 344.068152 67.610867 
L 347.842152 70.622153 
L 351.503834 73.882002 
L 355.044687 77.368019 
L 358.457054 81.055175 
L 361.734214 84.916348 
L 364.870443 88.922927 
L 367.861064 93.04542 
L 370.702458 97.254083 
L 373.392072 101.519504 
L 377.138863 107.962014 
L 380.540006 114.378276 
L 383.599128 120.68796 
L 386.323859 126.822466 
L 388.725174 132.72594 
L 390.8167 138.355429 
L 393.150667 145.383992 
L 395.002164 151.830475 
L 396.413475 157.682613 
L 397.426894 162.951171 
L 398.083306 167.663516 
L 398.421215 171.857937 
L 398.476129 175.578968 
L 398.280255 178.873773 
L 397.862408 181.789515 
L 397.248084 184.371563 
L 396.459626 186.662369 
L 395.516466 188.70085 
L 394.435382 190.522147 
L 393.230774 192.15762 
L 391.569842 193.9826 
L 389.754922 195.607279 
L 387.802106 197.07138 
L 385.294559 198.663153 
L 382.163681 200.352326 
L 378.337343 202.135735 
L 373.206445 204.248937 
L 365.394062 207.183638 
L 345.303478 214.640709 
L 336.310999 218.256817 
L 328.180559 221.746269 
L 319.378808 225.778074 
L 310.794959 229.967469 
L 302.560279 234.216211 
L 293.677721 239.02966 
L 282.803724 245.196708 
L 269.470672 253.047548 
L 241.585211 269.573032 
L 232.861586 274.472951 
L 225.567564 278.361287 
L 217.998759 282.13301 
L 212.148677 284.824843 
L 206.158413 287.34441 
L 200.038678 289.636204 
L 195.893618 291.007885 
L 191.702005 292.232747 
L 187.469438 293.291457 
L 183.202215 294.164462 
L 178.90733 294.832307 
L 174.592469 295.276004 
L 170.265985 295.477433 
L 165.936855 295.419778 
L 161.614632 295.08798 
L 157.309367 294.469192 
L 153.031527 293.553218 
L 148.791892 292.332921 
L 144.601437 290.804573 
L 140.471203 288.968134 
L 136.412168 286.827445 
L 132.4351 284.390306 
L 128.550415 281.668446 
L 124.768044 278.677376 
L 121.097297 275.436124 
L 117.546744 271.966858 
L 114.124113 268.294421 
L 110.836202 264.445792 
L 107.688812 260.449489 
L 104.686705 256.334957 
L 101.833579 252.131943 
L 99.132073 247.869905 
L 95.367316 241.428419 
L 91.948273 235.008722 
L 88.871544 228.691707 
L 86.129691 222.546616 
L 83.711894 216.629976 
L 81.604649 210.985401 
L 79.251053 203.9348 
L 77.381549 197.465242 
L 75.953889 191.590027 
L 74.925749 186.299162 
L 74.256169 181.565814 
L 73.90654 177.352025 
L 73.841228 173.61343 
L 74.027894 170.302912 
L 74.437593 167.37327 
L 75.044703 164.77904 
L 75.826759 162.477643 
L 76.764223 160.430015 
L 77.840219 158.60087 
L 79.040259 156.958701 
L 80.696094 155.126765 
L 82.506476 153.496479 
L 84.455204 152.02791 
L 86.958308 150.43203 
L 90.084472 148.739479 
L 93.905835 146.953697 
L 99.03084 144.839275 
L 106.835041 141.905387 
L 126.904849 134.458531 
L 135.887255 130.849572 
L 144.007976 127.367715 
L 152.7985 123.345227 
L 161.370682 119.16587 
L 169.59353 114.927455 
L 178.462684 110.125634 
L 189.319506 103.972944 
L 202.63069 96.138624 
L 230.470101 79.63482 
L 239.180062 74.73541 
L 246.463236 70.844327 
L 254.021513 67.066283 
L 259.864076 64.366917 
L 265.847297 61.837083 
L 271.960621 59.532011 
L 278.190389 57.511833 
L 282.400011 56.354726 
L 286.648015 55.372014 
L 290.927808 54.583252 
L 295.232101 54.007743 
L 299.552924 53.664162 
L 303.881654 53.570132 
L 308.209065 53.741783 
L 312.525382 54.193295 
L 316.820368 54.936449 
L 321.08341 55.980196 
L 325.303632 57.330274 
L 329.470015 58.988883 
L 333.571525 60.954441 
L 337.597259 63.221441 
L 341.536578 65.780414 
L 345.379254 68.618009 
L 349.115605 71.717192 
L 352.736617 75.057558 
L 356.234065 78.615748 
L 359.600603 82.365949 
L 362.829849 86.280457 
L 365.916436 90.330287 
L 368.856048 94.485791 
L 371.645436 98.717275 
L 375.54333 105.143439 
L 379.095404 111.581691 
L 382.303342 117.947136 
L 385.173101 124.165866 
L 387.714279 130.176387 
L 389.939428 135.930136 
L 391.863365 141.391221 
L 393.988598 148.17734 
L 395.649098 154.372964 
L 396.887356 159.976361 
L 397.745217 165.006055 
L 398.262657 169.49466 
L 398.47697 173.48361 
L 398.422295 177.01893 
L 398.129408 180.148053 
L 397.625706 182.91756 
L 396.935329 185.371692 
L 396.079362 187.551462 
L 395.076082 189.494205 
L 393.941231 191.233455 
L 392.688284 192.799021 
L 390.973328 194.551496 
L 389.110218 196.117839 
L 386.699717 197.804156 
L 384.117221 199.330005 
L 380.90641 200.965553 
L 376.995195 202.712245 
L 371.219318 205.016596 
L 361.398889 208.638095 
L 346.949606 214.003457 
L 337.332422 217.833759 
L 328.443545 221.62992 
L 319.664224 225.64312 
L 311.103681 229.812467 
L 302.892635 234.040581 
L 294.036854 238.830799 
L 283.197167 244.969149 
L 269.907804 252.786945 
L 242.114383 269.268891 
L 233.418084 274.167673 
L 226.145765 278.061378 
L 226.145765 278.061378 
" clip-path="url(#p87856506cd)" style="fill: none; stroke: #1f77b4; stroke-width: 1.5; stroke-linecap: square"/>
   </g>
   <g id="patch_3">
    <path d="M 57.6 307.584 
L 57.6 41.472 
" style="fill: none; stroke: #000000; stroke-width: 0.8; stroke-linejoin: miter; stroke-linecap: square"/>
   </g>
   <g id="patch_4">
    <path d="M 414.72 307.584 
L 414.72 41.472 
" style="fill: none; stroke: #000000; stroke-width: 0.8; stroke-linejoin: miter; stroke-linecap: square"/>
   </g>
   <g id="patch_5">
    <path d="M 57.6 307.584 
L 414.72 307.584 
" style="fill: none; stroke: #000000; stroke-width: 0.8; stroke-linejoin: miter; stroke-linecap: square"/>
   </g>
   <g id="patch_6">
    <path d="M 57.6 41.472 
L 414.72 41.472 
" style="fill: none; stroke: #000000; stroke-width: 0.8; stroke-linejoin: miter; stroke-linecap: square"/>
   </g>
  </g>
 </g>
 <defs>
  <clipPath id="p87856506cd">
   <rect x="57.6" y="41.472" width="357.12" height="266.112"/>
  </clipPath>
 </defs>
</svg>
