<?xml version="1.0" encoding="utf-8" standalone="no"?>
<!DOCTYPE svg PUBLIC "-//W3C//DTD SVG 1.1//EN"
  "http://www.w3.org/Graphics/SVG/1.1/DTD/svg11.dtd">
<svg xmlns:xlink="http://www.w3.org/1999/xlink" width="460.8pt" height="345.6pt" viewBox="0 0 460.8 345.6" xmlns="http://www.w3.org/2000/svg" version="1.1">
 <metadata>
  <rdf:RDF xmlns:dc="http://purl.org/dc/elements/1.1/" xmlns:cc="http://creativecommons.org/ns#" xmlns:rdf="http://www.w3.org/1999/02/22-rdf-syntax-ns#">
   <cc:Work>
    <dc:type rdf:resource="http://purl.org/dc/dcmitype/StillImage"/>
    <dc:date>2022-11-27T09:36:59.758657</dc:date>
    <dc:format>image/svg+xml</dc:format>
    <dc:creator>
     <cc:Agent>
      <dc:title>Matplotlib v3.6.1, https://matplotlib.org/</dc:title>
     </cc:Agent>
    </dc:creator>
   </cc:Work>
  </rdf:RDF>
 </metadata>
 <defs>
  <style type="text/css">*{stroke-linejoin: round; stroke-linecap: butt}</style>
 </defs>
 <g id="figure_1">
  <g id="patch_1">
   <path d="M 0 345.6 
L 460.8 345.6 
L 460.8 0 
L 0 0 
z
" style="fill: #ffffff"/>
  </g>
  <g id="axes_1">
   <g id="patch_2">
    <path d="M 57.6 307.584 
L 414.72 307.584 
L 414.72 41.472 
L 57.6 41.472 
z
" style="fill: #ffffff"/>
   </g>
   <g id="matplotlib.axis_1">
    <g id="xtick_1">
     <g id="line2d_1">
      <defs>
       <path id="mb2481788dd" d="M 0 0 
L 0 3.5 
" style="stroke: #000000; stroke-width: 0.8"/>
      </defs>
      <g>
       <use xlink:href="#mb2481788dd" x="73.832727" y="307.584" style="stroke: #000000; stroke-width: 0.8"/>
      </g>
     </g>
     <g id="text_1">
      <!-- 0 -->
      <g transform="translate(70.651477 322.182437) scale(0.1 -0.1)">
       <defs>
        <path id="DejaVuSans-30" d="M 2034 4250 
Q 1547 4250 1301 3770 
Q 1056 3291 1056 2328 
Q 1056 1369 1301 889 
Q 1547 409 2034 409 
Q 2525 409 2770 889 
Q 3016 1369 3016 2328 
Q 3016 3291 2770 3770 
Q 2525 4250 2034 4250 
z
M 2034 4750 
Q 2819 4750 3233 4129 
Q 3647 3509 3647 2328 
Q 3647 1150 3233 529 
Q 2819 -91 2034 -91 
Q 1250 -91 836 529 
Q 422 1150 422 2328 
Q 422 3509 836 4129 
Q 1250 4750 2034 4750 
z
" transform="scale(0.015625)"/>
       </defs>
       <use xlink:href="#DejaVuSans-30"/>
      </g>
     </g>
    </g>
    <g id="xtick_2">
     <g id="line2d_2">
      <g>
       <use xlink:href="#mb2481788dd" x="138.776625" y="307.584" style="stroke: #000000; stroke-width: 0.8"/>
      </g>
     </g>
     <g id="text_2">
      <!-- 1000 -->
      <g transform="translate(126.051625 322.182437) scale(0.1 -0.1)">
       <defs>
        <path id="DejaVuSans-31" d="M 794 531 
L 1825 531 
L 1825 4091 
L 703 3866 
L 703 4441 
L 1819 4666 
L 2450 4666 
L 2450 531 
L 3481 531 
L 3481 0 
L 794 0 
L 794 531 
z
" transform="scale(0.015625)"/>
       </defs>
       <use xlink:href="#DejaVuSans-31"/>
       <use xlink:href="#DejaVuSans-30" x="63.623047"/>
       <use xlink:href="#DejaVuSans-30" x="127.246094"/>
       <use xlink:href="#DejaVuSans-30" x="190.869141"/>
      </g>
     </g>
    </g>
    <g id="xtick_3">
     <g id="line2d_3">
      <g>
       <use xlink:href="#mb2481788dd" x="203.720523" y="307.584" style="stroke: #000000; stroke-width: 0.8"/>
      </g>
     </g>
     <g id="text_3">
      <!-- 2000 -->
      <g transform="translate(190.995523 322.182437) scale(0.1 -0.1)">
       <defs>
        <path id="DejaVuSans-32" d="M 1228 531 
L 3431 531 
L 3431 0 
L 469 0 
L 469 531 
Q 828 903 1448 1529 
Q 2069 2156 2228 2338 
Q 2531 2678 2651 2914 
Q 2772 3150 2772 3378 
Q 2772 3750 2511 3984 
Q 2250 4219 1831 4219 
Q 1534 4219 1204 4116 
Q 875 4013 500 3803 
L 500 4441 
Q 881 4594 1212 4672 
Q 1544 4750 1819 4750 
Q 2544 4750 2975 4387 
Q 3406 4025 3406 3419 
Q 3406 3131 3298 2873 
Q 3191 2616 2906 2266 
Q 2828 2175 2409 1742 
Q 1991 1309 1228 531 
z
" transform="scale(0.015625)"/>
       </defs>
       <use xlink:href="#DejaVuSans-32"/>
       <use xlink:href="#DejaVuSans-30" x="63.623047"/>
       <use xlink:href="#DejaVuSans-30" x="127.246094"/>
       <use xlink:href="#DejaVuSans-30" x="190.869141"/>
      </g>
     </g>
    </g>
    <g id="xtick_4">
     <g id="line2d_4">
      <g>
       <use xlink:href="#mb2481788dd" x="268.664421" y="307.584" style="stroke: #000000; stroke-width: 0.8"/>
      </g>
     </g>
     <g id="text_4">
      <!-- 3000 -->
      <g transform="translate(255.939421 322.182437) scale(0.1 -0.1)">
       <defs>
        <path id="DejaVuSans-33" d="M 2597 2516 
Q 3050 2419 3304 2112 
Q 3559 1806 3559 1356 
Q 3559 666 3084 287 
Q 2609 -91 1734 -91 
Q 1441 -91 1130 -33 
Q 819 25 488 141 
L 488 750 
Q 750 597 1062 519 
Q 1375 441 1716 441 
Q 2309 441 2620 675 
Q 2931 909 2931 1356 
Q 2931 1769 2642 2001 
Q 2353 2234 1838 2234 
L 1294 2234 
L 1294 2753 
L 1863 2753 
Q 2328 2753 2575 2939 
Q 2822 3125 2822 3475 
Q 2822 3834 2567 4026 
Q 2313 4219 1838 4219 
Q 1578 4219 1281 4162 
Q 984 4106 628 3988 
L 628 4550 
Q 988 4650 1302 4700 
Q 1616 4750 1894 4750 
Q 2613 4750 3031 4423 
Q 3450 4097 3450 3541 
Q 3450 3153 3228 2886 
Q 3006 2619 2597 2516 
z
" transform="scale(0.015625)"/>
       </defs>
       <use xlink:href="#DejaVuSans-33"/>
       <use xlink:href="#DejaVuSans-30" x="63.623047"/>
       <use xlink:href="#DejaVuSans-30" x="127.246094"/>
       <use xlink:href="#DejaVuSans-30" x="190.869141"/>
      </g>
     </g>
    </g>
    <g id="xtick_5">
     <g id="line2d_5">
      <g>
       <use xlink:href="#mb2481788dd" x="333.608319" y="307.584" style="stroke: #000000; stroke-width: 0.8"/>
      </g>
     </g>
     <g id="text_5">
      <!-- 4000 -->
      <g transform="translate(320.883319 322.182437) scale(0.1 -0.1)">
       <defs>
        <path id="DejaVuSans-34" d="M 2419 4116 
L 825 1625 
L 2419 1625 
L 2419 4116 
z
M 2253 4666 
L 3047 4666 
L 3047 1625 
L 3713 1625 
L 3713 1100 
L 3047 1100 
L 3047 0 
L 2419 0 
L 2419 1100 
L 313 1100 
L 313 1709 
L 2253 4666 
z
" transform="scale(0.015625)"/>
       </defs>
       <use xlink:href="#DejaVuSans-34"/>
       <use xlink:href="#DejaVuSans-30" x="63.623047"/>
       <use xlink:href="#DejaVuSans-30" x="127.246094"/>
       <use xlink:href="#DejaVuSans-30" x="190.869141"/>
      </g>
     </g>
    </g>
    <g id="xtick_6">
     <g id="line2d_6">
      <g>
       <use xlink:href="#mb2481788dd" x="398.552217" y="307.584" style="stroke: #000000; stroke-width: 0.8"/>
      </g>
     </g>
     <g id="text_6">
      <!-- 5000 -->
      <g transform="translate(385.827217 322.182437) scale(0.1 -0.1)">
       <defs>
        <path id="DejaVuSans-35" d="M 691 4666 
L 3169 4666 
L 3169 4134 
L 1269 4134 
L 1269 2991 
Q 1406 3038 1543 3061 
Q 1681 3084 1819 3084 
Q 2600 3084 3056 2656 
Q 3513 2228 3513 1497 
Q 3513 744 3044 326 
Q 2575 -91 1722 -91 
Q 1428 -91 1123 -41 
Q 819 9 494 109 
L 494 744 
Q 775 591 1075 516 
Q 1375 441 1709 441 
Q 2250 441 2565 725 
Q 2881 1009 2881 1497 
Q 2881 1984 2565 2268 
Q 2250 2553 1709 2553 
Q 1456 2553 1204 2497 
Q 953 2441 691 2322 
L 691 4666 
z
" transform="scale(0.015625)"/>
       </defs>
       <use xlink:href="#DejaVuSans-35"/>
       <use xlink:href="#DejaVuSans-30" x="63.623047"/>
       <use xlink:href="#DejaVuSans-30" x="127.246094"/>
       <use xlink:href="#DejaVuSans-30" x="190.869141"/>
      </g>
     </g>
    </g>
   </g>
   <g id="matplotlib.axis_2">
    <g id="ytick_1">
     <g id="line2d_7">
      <defs>
       <path id="m5ff17bfcc3" d="M 0 0 
L -3.5 0 
" style="stroke: #000000; stroke-width: 0.8"/>
      </defs>
      <g>
       <use xlink:href="#m5ff17bfcc3" x="57.6" y="264.848808" style="stroke: #000000; stroke-width: 0.8"/>
      </g>
     </g>
     <g id="text_7">
      <!-- −2 -->
      <g transform="translate(35.857813 268.648027) scale(0.1 -0.1)">
       <defs>
        <path id="DejaVuSans-2212" d="M 678 2272 
L 4684 2272 
L 4684 1741 
L 678 1741 
L 678 2272 
z
" transform="scale(0.015625)"/>
       </defs>
       <use xlink:href="#DejaVuSans-2212"/>
       <use xlink:href="#DejaVuSans-32" x="83.789062"/>
      </g>
     </g>
    </g>
    <g id="ytick_2">
     <g id="line2d_8">
      <g>
       <use xlink:href="#m5ff17bfcc3" x="57.6" y="219.688499" style="stroke: #000000; stroke-width: 0.8"/>
      </g>
     </g>
     <g id="text_8">
      <!-- −1 -->
      <g transform="translate(35.857813 223.487718) scale(0.1 -0.1)">
       <use xlink:href="#DejaVuSans-2212"/>
       <use xlink:href="#DejaVuSans-31" x="83.789062"/>
      </g>
     </g>
    </g>
    <g id="ytick_3">
     <g id="line2d_9">
      <g>
       <use xlink:href="#m5ff17bfcc3" x="57.6" y="174.52819" style="stroke: #000000; stroke-width: 0.8"/>
      </g>
     </g>
     <g id="text_9">
      <!-- 0 -->
      <g transform="translate(44.2375 178.327409) scale(0.1 -0.1)">
       <use xlink:href="#DejaVuSans-30"/>
      </g>
     </g>
    </g>
    <g id="ytick_4">
     <g id="line2d_10">
      <g>
       <use xlink:href="#m5ff17bfcc3" x="57.6" y="129.367881" style="stroke: #000000; stroke-width: 0.8"/>
      </g>
     </g>
     <g id="text_10">
      <!-- 1 -->
      <g transform="translate(44.2375 133.1671) scale(0.1 -0.1)">
       <use xlink:href="#DejaVuSans-31"/>
      </g>
     </g>
    </g>
    <g id="ytick_5">
     <g id="line2d_11">
      <g>
       <use xlink:href="#m5ff17bfcc3" x="57.6" y="84.207572" style="stroke: #000000; stroke-width: 0.8"/>
      </g>
     </g>
     <g id="text_11">
      <!-- 2 -->
      <g transform="translate(44.2375 88.006791) scale(0.1 -0.1)">
       <use xlink:href="#DejaVuSans-32"/>
      </g>
     </g>
    </g>
   </g>
   <g id="line2d_12">
    <path d="M 73.832727 84.207572 
L 74.157447 84.315217 
L 74.54711 84.69867 
L 75.066661 85.567217 
L 75.781044 87.286612 
L 76.690259 90.135942 
L 77.859249 94.608469 
L 79.223071 100.753244 
L 80.651837 108.211066 
L 82.080602 116.854989 
L 83.444424 126.511761 
L 84.678358 136.825313 
L 85.847348 148.450309 
L 86.951395 161.598336 
L 88.120385 178.354328 
L 89.419263 200.501848 
L 91.887131 243.598553 
L 92.666458 253.160418 
L 93.315897 258.801016 
L 93.900392 262.18195 
L 94.419943 264.0301 
L 94.87455 264.907074 
L 95.264214 265.204792 
L 95.588933 265.184629 
L 95.978596 264.889283 
L 96.433204 264.233033 
L 97.082643 262.831167 
L 97.926913 260.387445 
L 99.03096 256.411694 
L 100.329838 250.859507 
L 101.758603 243.774009 
L 103.187369 235.584244 
L 104.551191 226.49818 
L 105.850069 216.327815 
L 107.084003 204.817614 
L 108.252993 191.691561 
L 109.357039 176.768526 
L 110.590973 156.825831 
L 113.903112 100.391668 
L 114.617495 92.873809 
L 115.266934 88.227117 
L 115.851429 85.619782 
L 116.306036 84.452586 
L 116.6957 83.947814 
L 117.020419 83.821533 
L 117.345139 83.92336 
L 117.734802 84.301616 
L 118.254353 85.164967 
L 118.903792 86.701271 
L 119.813007 89.495506 
L 120.981997 93.906837 
L 122.345819 99.977746 
L 123.839529 107.702224 
L 125.268294 116.280697 
L 126.632116 125.848818 
L 127.86605 136.050898 
L 129.03504 147.533204 
L 130.204031 161.346107 
L 131.373021 178.057741 
L 132.671899 200.165148 
L 135.139767 243.348165 
L 135.919094 252.98242 
L 136.568533 258.682702 
L 137.153028 262.110685 
L 137.672579 263.993563 
L 138.127186 264.895422 
L 138.51685 265.210774 
L 138.841569 265.203031 
L 139.231232 264.920268 
L 139.68584 264.276058 
L 140.270335 263.047676 
L 141.049662 260.869261 
L 142.088764 257.247623 
L 143.387642 251.839812 
L 144.816408 244.908314 
L 146.245173 236.896644 
L 147.608995 228.028017 
L 148.907873 218.134288 
L 150.141807 206.97882 
L 151.310797 194.296499 
L 152.414844 179.888897 
L 153.583834 161.641669 
L 155.207431 132.248848 
L 156.636197 107.745917 
L 157.480468 96.869638 
L 158.194851 90.446604 
L 158.779346 86.992555 
L 159.298897 85.09026 
L 159.753504 84.174396 
L 160.143168 83.849076 
L 160.467887 83.849775 
L 160.85755 84.125388 
L 161.312158 84.762747 
L 161.896653 85.984155 
L 162.67598 88.155532 
L 163.715082 91.770205 
L 165.01396 97.171092 
L 166.442726 104.095349 
L 167.871491 112.098756 
L 169.300257 121.414512 
L 170.599135 131.377521 
L 171.833069 142.621744 
L 173.002059 155.415278 
L 174.106106 169.952923 
L 175.275096 188.345411 
L 177.028581 220.219185 
L 178.327459 242.118725 
L 179.17173 252.770749 
L 179.821169 258.536343 
L 180.405664 262.016532 
L 180.925215 263.93832 
L 181.379822 264.868251 
L 181.769486 265.203588 
L 182.094205 265.209967 
L 182.483868 264.941539 
L 182.938476 264.311065 
L 183.522971 263.096663 
L 184.302298 260.932353 
L 185.3414 257.324665 
L 186.640278 251.930712 
L 188.069044 245.013693 
L 189.497809 237.018538 
L 190.926575 227.713326 
L 192.225453 217.763169 
L 193.459387 206.535415 
L 194.628377 193.762507 
L 195.732424 179.24894 
L 196.901414 160.883208 
L 198.589955 130.219844 
L 199.953777 107.085843 
L 200.798048 96.392264 
L 201.447487 90.593957 
L 202.031982 87.087557 
L 202.551533 85.146205 
L 203.00614 84.202146 
L 203.395804 83.856748 
L 203.720523 83.843257 
L 204.045243 84.041978 
L 204.49985 84.620361 
L 205.084345 85.781797 
L 205.863672 87.892813 
L 206.902774 91.448051 
L 208.136708 96.502392 
L 209.565474 103.319478 
L 211.059183 111.587985 
L 212.487949 120.815636 
L 213.786827 130.671378 
L 215.020761 141.778203 
L 216.189751 154.399523 
L 217.293798 168.735562 
L 218.462788 186.90209 
L 220.086385 216.244288 
L 221.515151 240.857362 
L 222.359422 251.856799 
L 223.073805 258.388016 
L 223.6583 261.920696 
L 224.177851 263.881685 
L 224.632458 264.839931 
L 225.022122 265.195438 
L 225.346841 265.216074 
L 225.67156 265.023489 
L 226.126168 264.452268 
L 226.710663 263.298107 
L 227.48999 261.194396 
L 228.464148 257.888667 
L 229.698082 252.884119 
L 231.126848 246.12048 
L 232.620558 237.914724 
L 234.049323 228.763504 
L 235.348201 219.00057 
L 236.582135 208.012519 
L 237.751125 195.540286 
L 238.855172 181.37981 
L 240.024162 163.413498 
L 241.517872 136.624982 
L 243.141469 108.350924 
L 243.98574 97.310605 
L 244.700123 90.74326 
L 245.284618 87.18423 
L 245.804169 85.203533 
L 246.258776 84.231039 
L 246.64844 83.865377 
L 246.973159 83.837562 
L 247.297878 84.023982 
L 247.752486 84.588006 
L 248.336981 85.73486 
L 249.116308 87.831238 
L 250.090466 91.13018 
L 251.3244 96.127974 
L 252.753166 102.884413 
L 254.246876 111.081757 
L 255.675641 120.222759 
L 256.974519 129.973303 
L 258.208453 140.945506 
L 259.377443 153.397832 
L 260.48149 167.534796 
L 261.65048 185.47406 
L 263.14419 212.242921 
L 264.767787 240.553117 
L 265.612058 251.63423 
L 266.326441 258.237734 
L 266.910936 261.823185 
L 267.430487 263.823661 
L 267.885094 264.810464 
L 268.274757 265.186327 
L 268.599477 265.221355 
L 268.924196 265.041129 
L 269.378804 264.484335 
L 269.963299 263.344822 
L 270.742626 261.255807 
L 271.716784 257.963671 
L 272.950718 252.972641 
L 274.379484 246.223401 
L 275.873194 238.034459 
L 277.301959 228.903655 
L 278.600837 219.165473 
L 279.834771 208.209079 
L 281.003761 195.776615 
L 282.107808 181.663126 
L 283.276798 163.750922 
L 284.770508 137.001939 
L 286.394105 108.656033 
L 287.238376 97.534216 
L 287.952759 90.894521 
L 288.537254 87.282583 
L 289.056805 85.262255 
L 289.511412 84.261083 
L 289.901075 83.874973 
L 290.225795 83.832697 
L 290.550514 84.006699 
L 291.005122 84.556229 
L 291.589617 85.688367 
L 292.368944 87.76999 
L 293.343102 91.055299 
L 294.577036 96.039556 
L 296.005802 102.781596 
L 297.499512 110.962148 
L 298.928277 120.082774 
L 300.227155 129.808623 
L 301.461089 140.749245 
L 302.630079 153.161892 
L 303.734126 167.251945 
L 304.903116 185.137077 
L 306.396826 211.865961 
L 308.020423 240.247149 
L 308.864694 251.409577 
L 309.579077 258.085492 
L 310.163572 261.723986 
L 310.683123 263.764238 
L 311.13773 264.77984 
L 311.527393 265.176244 
L 311.852113 265.225801 
L 312.176832 265.058053 
L 312.63144 264.515822 
L 313.215935 263.391091 
L 313.995262 261.31689 
L 314.96942 258.038429 
L 316.203354 253.060957 
L 317.63212 246.326114 
L 319.12583 238.153942 
L 320.554595 229.043474 
L 321.853473 219.329931 
L 323.087407 208.405041 
L 324.256397 196.012166 
L 325.360444 181.945513 
L 326.529434 164.087461 
L 328.023144 137.378896 
L 329.711685 107.984326 
L 330.555956 97.043016 
L 331.270338 90.562981 
L 331.854834 87.067553 
L 332.374385 85.134392 
L 332.828992 84.196249 
L 333.218655 83.855064 
L 333.543375 83.844552 
L 333.933038 84.108783 
L 334.387646 84.735238 
L 334.972141 85.945549 
L 335.751467 88.105735 
L 336.79057 91.70935 
L 338.089448 97.099265 
L 339.518213 104.012074 
L 340.946979 112.002434 
L 342.375745 121.301522 
L 343.674623 131.244216 
L 344.908557 142.462407 
L 346.077547 155.223337 
L 347.181593 169.722913 
L 348.350584 188.073067 
L 350.039125 218.727864 
L 351.402947 241.88412 
L 352.247217 252.601841 
L 352.896656 258.419195 
L 353.481152 261.940875 
L 354.000703 263.893643 
L 354.45531 264.845948 
L 354.844973 265.197221 
L 355.169693 265.214865 
L 355.494412 265.01971 
L 355.94902 264.44549 
L 356.533515 263.288282 
L 357.312841 261.181512 
L 358.287 257.872951 
L 359.520934 252.865582 
L 360.9497 246.098931 
L 362.443409 237.889653 
L 363.872175 228.734153 
L 365.171053 218.96603 
L 366.404987 207.971338 
L 367.573977 195.490766 
L 368.678024 181.320446 
L 369.847014 163.342825 
L 371.405667 135.336733 
L 372.964321 108.287339 
L 373.808592 97.264107 
L 374.522974 90.711877 
L 375.107469 87.163875 
L 375.627021 85.19143 
L 376.081628 84.224902 
L 376.471291 83.863493 
L 376.796011 83.838684 
L 377.12073 84.027686 
L 377.575338 84.594725 
L 378.159833 85.744639 
L 378.939159 87.844087 
L 379.913318 91.14587 
L 381.147252 96.14649 
L 382.576018 102.90594 
L 384.069727 111.106801 
L 385.498493 120.252075 
L 386.797371 130.007797 
L 388.031305 140.986624 
L 389.200295 153.44727 
L 390.304342 167.594063 
L 391.473332 185.544641 
L 392.967041 212.32175 
L 394.590639 240.616883 
L 395.43491 251.680946 
L 396.149292 258.269323 
L 396.733787 261.843715 
L 397.253339 263.83591 
L 397.707946 264.816721 
L 398.097609 265.188312 
L 398.422329 265.220319 
L 398.487273 265.199903 
L 398.487273 265.199903 
" clip-path="url(#pa9bb13ea30)" style="fill: none; stroke: #1f77b4; stroke-width: 1.5; stroke-linecap: square"/>
   </g>
   <g id="line2d_13">
    <path d="M 73.832727 174.52819 
L 74.54711 182.982412 
L 75.261493 189.077268 
L 76.04082 193.929836 
L 76.950034 198.146087 
L 78.119025 202.403569 
L 81.171388 212.959208 
L 82.275434 217.883288 
L 83.249592 223.241873 
L 84.223751 229.922226 
L 85.132966 237.721724 
L 86.107124 248.155143 
L 87.146226 261.85194 
L 89.354319 292.172288 
L 89.743982 294.782827 
L 90.003758 295.437881 
L 90.133646 295.38595 
L 90.328477 294.790798 
L 90.588253 292.971062 
L 90.912972 288.976748 
L 91.36758 280.240966 
L 92.017019 262.531647 
L 94.354999 193.071036 
L 95.134326 178.409836 
L 95.848709 168.830733 
L 96.563092 161.970524 
L 97.342418 156.59328 
L 98.186689 152.324008 
L 99.225791 148.290482 
L 101.109164 142.12475 
L 102.602874 136.850844 
L 103.70692 132.120792 
L 104.681079 126.998746 
L 105.655237 120.632357 
L 106.564452 113.206557 
L 107.473666 103.98528 
L 108.447825 91.845096 
L 110.006478 68.951276 
L 110.850749 58.161307 
L 111.305356 54.590043 
L 111.565132 53.667359 
L 111.69502 53.571322 
L 111.824908 53.740843 
L 112.019739 54.523456 
L 112.279515 56.60762 
L 112.669178 62.034411 
L 113.188729 73.333698 
L 113.968056 96.561621 
L 115.656598 148.152217 
L 116.435924 164.987659 
L 117.150307 176.161814 
L 117.86469 184.172016 
L 118.579073 189.940122 
L 119.3584 194.546602 
L 120.267614 198.580529 
L 121.436604 202.709279 
L 124.294136 212.421318 
L 125.398182 217.198348 
L 126.372341 222.380512 
L 127.346499 228.828475 
L 128.255714 236.35271 
L 129.164928 245.692414 
L 130.204031 258.862846 
L 132.736843 293.131101 
L 133.126506 295.21993 
L 133.321338 295.488 
L 133.451226 295.339594 
L 133.646057 294.590495 
L 133.905833 292.553312 
L 134.295496 287.197564 
L 134.815047 275.981556 
L 135.594374 252.822959 
L 137.282915 201.156177 
L 138.062242 184.2532 
L 138.776625 173.027582 
L 139.491008 164.979524 
L 140.205391 159.185543 
L 140.984718 154.561064 
L 141.893932 150.515268 
L 143.062922 146.38016 
L 145.920454 136.674656 
L 147.0245 131.906454 
L 147.998659 126.735507 
L 148.972817 120.302715 
L 149.882032 112.796744 
L 150.791246 103.47895 
L 151.830349 90.334123 
L 154.428105 55.519997 
L 154.752824 53.865558 
L 154.947656 53.568086 
L 155.077544 53.695356 
L 155.272375 54.410863 
L 155.532151 56.400866 
L 155.921814 61.685063 
L 156.441365 72.816782 
L 157.155748 93.802035 
L 158.974177 149.262744 
L 159.753504 165.799129 
L 160.467887 176.746649 
L 161.18227 184.590584 
L 161.961597 190.677685 
L 162.740923 195.094839 
L 163.650138 199.004446 
L 164.884072 203.278542 
L 167.416884 211.839643 
L 168.52093 216.489335 
L 169.560033 221.882406 
L 170.534191 228.20407 
L 171.443406 235.575954 
L 172.35262 244.732214 
L 173.326779 256.799507 
L 174.820488 278.709123 
L 175.729703 290.585659 
L 176.18431 294.30141 
L 176.50903 295.440841 
L 176.638918 295.46756 
L 176.768805 295.224722 
L 176.963637 294.325965 
L 177.288357 291.325936 
L 177.67802 285.199592 
L 178.197571 273.097126 
L 179.041842 247.094677 
L 180.470608 203.325284 
L 181.249934 185.848649 
L 181.964317 174.180112 
L 182.6787 165.803937 
L 183.393083 159.784632 
L 184.17241 155.002796 
L 185.081624 150.852642 
L 186.250614 146.660605 
L 189.302978 136.241581 
L 190.407024 131.375987 
L 191.381182 126.08155 
L 192.355341 119.481974 
L 193.264555 111.775682 
L 194.238714 101.458117 
L 195.277816 87.877748 
L 197.550853 56.706168 
L 197.940516 54.167352 
L 198.200292 53.572348 
L 198.330179 53.657606 
L 198.525011 54.306237 
L 198.784787 56.202095 
L 199.109506 60.2947 
L 199.564114 69.160489 
L 200.213553 87.004674 
L 202.551533 156.34719 
L 203.33086 170.907085 
L 204.045243 180.41314 
L 204.759625 187.220922 
L 205.538952 192.560154 
L 206.383223 196.804351 
L 207.422325 200.821803 
L 209.435586 207.408944 
L 210.864352 212.517504 
L 211.968398 217.315989 
L 212.942557 222.525413 
L 213.916715 229.010242 
L 214.82593 236.578833 
L 215.800088 246.720025 
L 216.83919 260.114944 
L 219.242115 292.811031 
L 219.631778 295.094752 
L 219.82661 295.479522 
L 219.956497 295.415135 
L 220.151329 294.79978 
L 220.411105 292.950873 
L 220.735824 288.918191 
L 221.190432 280.130264 
L 221.839871 262.363785 
L 224.177851 192.93152 
L 224.957178 178.307952 
L 225.67156 168.756835 
L 226.385943 161.91719 
L 227.16527 156.555218 
L 228.009541 152.296345 
L 229.048643 148.269892 
L 230.99696 141.894948 
L 232.425726 136.832592 
L 233.529772 132.099318 
L 234.503931 126.972848 
L 235.478089 120.600283 
L 236.387304 113.166921 
L 237.296518 103.936455 
L 238.270677 91.785935 
L 239.82933 68.888009 
L 240.673601 58.116993 
L 241.128208 54.566391 
L 241.387984 53.658999 
L 241.517872 53.571474 
L 241.647759 53.750013 
L 241.842591 54.546943 
L 242.102367 56.651183 
L 242.49203 62.108339 
L 243.011581 73.443243 
L 243.790908 96.700904 
L 245.414505 146.619521 
L 246.193832 163.862708 
L 246.908215 175.349819 
L 247.622598 183.591135 
L 248.336981 189.517636 
L 249.116308 194.234553 
L 250.025522 198.341556 
L 251.194512 202.509886 
L 254.181932 212.694132 
L 255.285978 217.532356 
L 256.260136 222.792163 
L 257.234295 229.345033 
L 258.143509 236.995341 
L 259.117668 247.24138 
L 260.15677 260.747123 
L 262.494751 292.644513 
L 262.884414 295.023594 
L 263.14419 295.487447 
L 263.274077 295.330171 
L 263.468909 294.566984 
L 263.728685 292.510035 
L 264.118348 287.124359 
L 264.637899 275.87319 
L 265.417226 252.68515 
L 267.105767 201.050021 
L 267.885094 184.175433 
L 268.599477 172.971486 
L 269.31386 164.939387 
L 270.028243 159.156325 
L 270.80757 154.539449 
L 271.716784 150.498676 
L 272.885774 146.366272 
L 275.743306 136.658081 
L 276.847352 131.886196 
L 277.82151 126.710565 
L 278.795669 120.271434 
L 279.704884 112.75783 
L 280.614098 103.430875 
L 281.6532 90.275332 
L 284.250956 55.490109 
L 284.575676 53.853192 
L 284.770508 53.568 
L 284.900395 53.704101 
L 285.095227 54.433647 
L 285.355003 56.443376 
L 285.744666 61.757511 
L 286.264217 72.92454 
L 286.9786 93.938454 
L 288.797029 149.366817 
L 289.576356 165.87501 
L 290.290739 176.801294 
L 291.005122 184.629701 
L 291.784449 190.705467 
L 292.563775 195.115582 
L 293.47299 199.020595 
L 294.706924 203.292264 
L 297.239736 211.855856 
L 298.343782 216.509036 
L 299.382885 221.906932 
L 300.357043 228.234795 
L 301.266258 235.614173 
L 302.175472 244.779492 
L 303.149631 256.856982 
L 304.64334 278.771575 
L 305.552555 290.629482 
L 306.007162 294.325285 
L 306.331882 295.445803 
L 306.461769 295.463976 
L 306.591657 295.212114 
L 306.786489 294.299093 
L 307.111208 291.274154 
L 307.500872 285.118304 
L 308.020423 272.982684 
L 308.864694 246.954987 
L 310.293459 203.216022 
L 311.072786 185.767983 
L 311.787169 174.121758 
L 312.501552 165.762204 
L 313.215935 159.754351 
L 313.995262 154.980534 
L 314.904476 150.835718 
L 316.073466 146.646625 
L 319.12583 136.224711 
L 320.229876 131.355277 
L 321.204034 126.055984 
L 322.178193 119.449864 
L 323.087407 111.735735 
L 324.061566 101.408178 
L 325.100668 87.817448 
L 327.373705 56.669511 
L 327.763368 54.150019 
L 328.023144 53.570931 
L 328.153031 53.664945 
L 328.347863 54.327525 
L 328.607639 56.243044 
L 328.932358 60.360707 
L 329.386965 69.258978 
L 330.036404 87.135432 
L 332.309441 154.999767 
L 333.088768 169.944025 
L 333.80315 179.723395 
L 334.517533 186.724941 
L 335.29686 192.202711 
L 336.141131 196.536495 
L 337.115289 200.379347 
L 338.738887 205.731306 
L 340.427428 211.531517 
L 341.531474 216.115626 
L 342.570577 221.417709 
L 343.544735 227.622262 
L 344.45395 234.852327 
L 345.363164 243.836497 
L 346.337323 255.708065 
L 347.701145 275.564283 
L 348.740247 289.719421 
L 349.259798 294.209116 
L 349.584518 295.419642 
L 349.714405 295.47853 
L 349.844293 295.269688 
L 350.039125 294.42473 
L 350.298901 292.253305 
L 350.688564 286.694888 
L 351.208115 275.241934 
L 351.987442 251.887295 
L 353.611039 202.07131 
L 354.390366 184.92479 
L 355.104749 173.512324 
L 355.819132 165.326308 
L 356.533515 159.437784 
L 357.312841 154.747389 
L 358.222056 150.657977 
L 359.391046 146.499245 
L 362.313522 136.562038 
L 363.417568 131.768736 
L 364.391726 126.565891 
L 365.365885 120.089956 
L 366.275099 112.53206 
L 367.184314 103.152029 
L 368.223416 89.93466 
L 370.756228 55.784165 
L 371.145892 53.78668 
L 371.340723 53.573015 
L 371.470611 53.760473 
L 371.665443 54.571546 
L 371.925218 56.695584 
L 372.314882 62.182617 
L 372.834433 73.552421 
L 373.61376 96.838895 
L 375.237357 146.727508 
L 376.016684 163.942176 
L 376.731067 175.407235 
L 377.44545 183.632203 
L 378.159833 189.547473 
L 378.939159 194.256544 
L 379.848374 198.35834 
L 381.017364 202.523825 
L 384.004784 212.710918 
L 385.10883 217.552939 
L 386.082988 222.817554 
L 387.057147 229.376911 
L 387.966361 237.034999 
L 388.94052 247.290994 
L 389.979622 260.807172 
L 392.317602 292.679685 
L 392.707266 295.03894 
L 392.902098 295.469175 
L 393.031985 295.437613 
L 393.226817 294.874666 
L 393.486593 293.099847 
L 393.811312 289.161982 
L 394.265919 280.497762 
L 394.915358 262.855776 
L 397.318283 191.864515 
L 398.097609 177.547413 
L 398.487273 172.070594 
L 398.487273 172.070594 
" clip-path="url(#pa9bb13ea30)" style="fill: none; stroke: #ff7f0e; stroke-width: 1.5; stroke-linecap: square"/>
   </g>
   <g id="patch_3">
    <path d="M 57.6 307.584 
L 57.6 41.472 
" style="fill: none; stroke: #000000; stroke-width: 0.8; stroke-linejoin: miter; stroke-linecap: square"/>
   </g>
   <g id="patch_4">
    <path d="M 414.72 307.584 
L 414.72 41.472 
" style="fill: none; stroke: #000000; stroke-width: 0.8; stroke-linejoin: miter; stroke-linecap: square"/>
   </g>
   <g id="patch_5">
    <path d="M 57.6 307.584 
L 414.72 307.584 
" style="fill: none; stroke: #000000; stroke-width: 0.8; stroke-linejoin: miter; stroke-linecap: square"/>
   </g>
   <g id="patch_6">
    <path d="M 57.6 41.472 
L 414.72 41.472 
" style="fill: none; stroke: #000000; stroke-width: 0.8; stroke-linejoin: miter; stroke-linecap: square"/>
   </g>
   <g id="legend_1">
    <g id="patch_7">
     <path d="M 64.6 302.584 
L 118.989062 302.584 
Q 120.989062 302.584 120.989062 300.584 
L 120.989062 272.22775 
Q 120.989062 270.22775 118.989062 270.22775 
L 64.6 270.22775 
Q 62.6 270.22775 62.6 272.22775 
L 62.6 300.584 
Q 62.6 302.584 64.6 302.584 
z
" style="fill: #ffffff; opacity: 0.8; stroke: #cccccc; stroke-linejoin: miter"/>
    </g>
    <g id="line2d_14">
     <path d="M 66.6 278.326187 
L 76.6 278.326187 
L 86.6 278.326187 
" style="fill: none; stroke: #1f77b4; stroke-width: 1.5; stroke-linecap: square"/>
    </g>
    <g id="text_12">
     <!-- y(x) -->
     <g transform="translate(94.6 281.826187) scale(0.1 -0.1)">
      <defs>
       <path id="DejaVuSans-79" d="M 2059 -325 
Q 1816 -950 1584 -1140 
Q 1353 -1331 966 -1331 
L 506 -1331 
L 506 -850 
L 844 -850 
Q 1081 -850 1212 -737 
Q 1344 -625 1503 -206 
L 1606 56 
L 191 3500 
L 800 3500 
L 1894 763 
L 2988 3500 
L 3597 3500 
L 2059 -325 
z
" transform="scale(0.015625)"/>
       <path id="DejaVuSans-28" d="M 1984 4856 
Q 1566 4138 1362 3434 
Q 1159 2731 1159 2009 
Q 1159 1288 1364 580 
Q 1569 -128 1984 -844 
L 1484 -844 
Q 1016 -109 783 600 
Q 550 1309 550 2009 
Q 550 2706 781 3412 
Q 1013 4119 1484 4856 
L 1984 4856 
z
" transform="scale(0.015625)"/>
       <path id="DejaVuSans-78" d="M 3513 3500 
L 2247 1797 
L 3578 0 
L 2900 0 
L 1881 1375 
L 863 0 
L 184 0 
L 1544 1831 
L 300 3500 
L 978 3500 
L 1906 2253 
L 2834 3500 
L 3513 3500 
z
" transform="scale(0.015625)"/>
       <path id="DejaVuSans-29" d="M 513 4856 
L 1013 4856 
Q 1481 4119 1714 3412 
Q 1947 2706 1947 2009 
Q 1947 1309 1714 600 
Q 1481 -109 1013 -844 
L 513 -844 
Q 928 -128 1133 580 
Q 1338 1288 1338 2009 
Q 1338 2731 1133 3434 
Q 928 4138 513 4856 
z
" transform="scale(0.015625)"/>
      </defs>
      <use xlink:href="#DejaVuSans-79"/>
      <use xlink:href="#DejaVuSans-28" x="59.179688"/>
      <use xlink:href="#DejaVuSans-78" x="98.193359"/>
      <use xlink:href="#DejaVuSans-29" x="157.373047"/>
     </g>
    </g>
    <g id="line2d_15">
     <path d="M 66.6 293.004312 
L 76.6 293.004312 
L 86.6 293.004312 
" style="fill: none; stroke: #ff7f0e; stroke-width: 1.5; stroke-linecap: square"/>
    </g>
    <g id="text_13">
     <!-- y'(x) -->
     <g transform="translate(94.6 296.504312) scale(0.1 -0.1)">
      <defs>
       <path id="DejaVuSans-27" d="M 1147 4666 
L 1147 2931 
L 616 2931 
L 616 4666 
L 1147 4666 
z
" transform="scale(0.015625)"/>
      </defs>
      <use xlink:href="#DejaVuSans-79"/>
      <use xlink:href="#DejaVuSans-27" x="59.179688"/>
      <use xlink:href="#DejaVuSans-28" x="86.669922"/>
      <use xlink:href="#DejaVuSans-78" x="125.683594"/>
      <use xlink:href="#DejaVuSans-29" x="184.863281"/>
     </g>
    </g>
   </g>
  </g>
 </g>
 <defs>
  <clipPath id="pa9bb13ea30">
   <rect x="57.6" y="41.472" width="357.12" height="266.112"/>
  </clipPath>
 </defs>
</svg>
